<svg width="58" height="65" viewBox="0 0 58 65" fill="none" xmlns="http://www.w3.org/2000/svg">
<path d="M18.561 35.438C18.9201 38.9024 19.2797 42.3689 19.6364 45.8337C19.9797 49.1237 20.0812 52.5197 20.7508 55.7706C20.9977 56.9663 21.4075 58.2929 22.5508 59.0398C23.6609 59.7639 25.1853 59.6725 26.4879 59.6171C31.9705 59.3904 45.8756 57.216 50.2357 56.3064C51.6065 56.0208 52.796 55.2777 53.229 54.0029C53.6253 52.8427 53.4304 51.5635 53.1972 50.3923C52.5218 47.0173 51.6546 43.6677 50.8808 40.3104C49.3783 33.8077 47.8758 27.305 46.3739 20.8044C36.7363 22.1405 27.0961 23.436 17.4528 24.7186C17.8239 28.2921 18.1927 31.8661 18.5633 35.4375L18.561 35.438Z" fill="#FFFCED"/>
<path d="M46.9976 18.4191C45.2115 18.6676 43.4248 18.914 41.6406 19.1599C40.529 16.5573 39.2857 13.995 37.9682 11.4747C36.8167 9.27179 35.6687 6.33228 33.5154 4.7224C30.7296 2.6381 27.1482 4.01911 25.5703 6.63764C24.3569 8.65096 23.9771 11.3071 23.492 13.5189C22.8969 16.2391 22.3994 18.9821 21.9878 21.7303C21.9834 21.7627 21.9814 21.7946 21.9794 21.8265C19.9094 22.1035 17.8418 22.38 15.7712 22.6549C14.9743 22.7607 14.6708 23.511 14.7362 24.1346C15.5203 31.7366 16.3016 39.3369 17.0858 46.9389C17.2766 48.7881 17.4673 50.6373 17.6581 52.4866C17.8197 54.0582 17.8965 55.6786 18.3872 57.2036C19.3155 60.0797 21.6602 62.0197 25.0153 61.9202C28.3156 61.8206 46.2765 59.4975 50.1112 58.6456C53.368 57.9202 55.7389 56.0112 55.9339 52.8616C56.0176 51.5168 55.7474 50.1586 55.4488 48.8466C55.02 46.9602 54.577 45.0768 54.1435 43.1914C53.2882 39.488 52.4334 35.7867 51.5781 32.0833C50.5993 27.8424 49.6199 23.5994 48.6387 19.3591C48.4802 18.6712 47.7266 18.3204 47.0034 18.4225L46.9976 18.4191ZM27.4943 9.32706C27.9431 7.80005 29.6816 5.20736 31.753 6.81813C32.4561 7.36599 32.9345 8.11033 33.3231 8.86391C33.9554 10.0878 34.6537 11.287 35.2907 12.5099C36.5005 14.827 37.6451 17.1821 38.6877 19.5669C34.1178 20.1926 29.5464 20.8118 24.9757 21.4241C25.5949 17.3691 26.3356 13.2826 27.4972 9.32872L27.4943 9.32706ZM50.6743 40.2986C51.4409 43.615 52.2978 46.9243 52.9621 50.2592C53.1923 51.4163 53.3844 52.6802 52.9904 53.827C52.5574 55.0875 51.3771 55.8227 50.0199 56.1055C45.6958 57.0097 31.9041 59.1666 26.4671 59.3948C25.1747 59.4484 23.6658 59.5415 22.5633 58.8273C21.4278 58.0906 21.0221 56.7779 20.7813 55.5982C20.1226 52.3859 20.0228 49.0307 19.6882 45.7817C19.3353 42.3587 18.9819 38.9335 18.6313 35.51C18.2665 31.9791 17.9041 28.4478 17.5399 24.9191C27.104 23.6444 36.665 22.357 46.2211 21.03C47.7051 27.4544 49.189 33.8789 50.6725 40.3013L50.6743 40.2986Z" fill="#57751F"/>
<path fill-rule="evenodd" clip-rule="evenodd" d="M4.56186 19.66C4.94751 19.1301 5.68978 19.013 6.21977 19.3987L10.3391 22.396C10.869 22.7817 10.9861 23.524 10.6004 24.054C10.2148 24.5839 9.4725 24.701 8.94251 24.3153L4.82323 21.318C4.29323 20.9323 4.17622 20.19 4.56186 19.66ZM14.6887 12.637C15.2714 12.3369 15.9871 12.566 16.2872 13.1487L18.6196 17.6778C18.9197 18.2605 18.6906 18.9762 18.1079 19.2763C17.5252 19.5764 16.8095 19.3472 16.5094 18.7645L14.177 14.2355C13.8769 13.6528 14.106 12.9371 14.6887 12.637Z" fill="#D90718"/>
<path d="M2.58196 33.3742C2.39691 32.7455 2.75664 32.0857 3.38542 31.9007L8.27255 30.4624C8.90134 30.2774 9.56108 30.6371 9.74613 31.2659C9.93118 31.8947 9.57146 32.5544 8.94267 32.7394L4.05554 34.1777C3.42676 34.3628 2.76701 34.003 2.58196 33.3742Z" fill="#D90718"/>
</svg>
