<svg width="256" height="305" viewBox="0 0 256 305" fill="none" xmlns="http://www.w3.org/2000/svg">
<path fill-rule="evenodd" clip-rule="evenodd" d="M250.893 109.608C247.443 103.814 238.876 94.1923 219.924 94.1923C219.613 94.1923 219.291 94.1923 218.981 94.1923C206.239 94.3993 195.004 98.3194 186.241 102.55C186.425 94.9856 186.54 86.5475 186.655 78.2014C186.954 55.6808 179.088 34.6201 165.07 20.4226C152.201 7.3861 134.768 0.5 114.666 0.5C71.5073 0.5 40.1933 32.9417 40.1933 77.6496V241.996C38.0314 242.065 35.7084 242.249 33.3279 242.594C17.5502 244.87 6.45287 253.32 2.08294 266.402C-1.5625 277.312 1.20895 289.291 9.15532 296.901C14.3877 301.902 21.1611 304.5 28.475 304.5C32.4885 304.5 36.6629 303.718 40.8143 302.132C59.2485 295.085 62.204 277.117 62.6755 265.483L174.695 263.471C177.823 263.413 180.79 262.091 182.918 259.804C185.045 257.516 186.149 254.458 185.976 251.343C185.562 243.974 184.792 223.005 186.183 214.509C189.967 191.333 204.986 181.16 220.901 170.399C232.183 162.766 243.855 154.857 250.962 142.326C256.712 132.187 256.689 119.369 250.916 109.654L250.893 109.608ZM32.5805 280.634C30.6715 281.37 27.1525 282.29 25.0596 280.278C23.5071 278.795 23.0471 276.197 23.8866 273.679C26.0256 267.299 33.3624 265.425 39.6298 265.046C39.2273 273.438 37.5714 278.726 32.5805 280.634ZM165.541 201.438C164.61 205.68 163.575 213.245 162.931 219.165C147.694 217.843 135.331 208.842 132.238 197.162H166.645C166.243 198.553 165.863 199.967 165.541 201.438ZM230.929 130.945C226.479 138.797 217.9 144.602 207.976 151.316C195.717 159.616 180.342 169.077 171.372 185.666H125.74C122.566 185.666 119.991 188.241 119.991 191.414C119.991 211.854 138.563 228.718 162.241 230.661C162.252 234.156 162.436 237.593 162.517 240.674L63.1929 242.456V77.6496C63.1929 61.1988 68.4943 47.3232 78.5107 37.5286C87.7795 28.4697 100.625 23.492 114.678 23.492C128.73 23.492 140.138 27.8949 148.717 36.5744C158.446 46.4265 163.897 61.4862 163.678 77.9025C163.46 94.7211 163.161 113.368 162.425 121.898C162.091 125.806 163.77 129.611 166.887 131.991C170.003 134.382 174.109 135.015 177.8 133.681C179.79 132.968 181.595 131.819 184.32 130.094C191.312 125.668 204.342 117.437 219.383 117.184C223.546 117.092 229.032 117.782 231.148 121.346C232.827 124.174 232.367 128.45 230.952 130.945H230.929Z" fill="#F29F05"/>
<path fill-rule="evenodd" clip-rule="evenodd" d="M114.436 75.3388C101.028 79.6153 93.5988 93.9968 97.8882 107.401C99.9582 113.896 104.443 119.185 110.492 122.311C114.16 124.208 118.151 125.162 122.164 125.162C124.775 125.162 127.397 124.76 129.95 123.944C136.447 121.875 141.748 117.391 144.876 111.344C148.004 105.286 148.579 98.3768 146.509 91.8815C142.231 78.4772 127.834 71.0623 114.436 75.3273V75.3388ZM134.653 106.079C132.94 109.401 130.019 111.862 126.454 113C122.889 114.138 119.082 113.816 115.759 112.103C112.435 110.39 109.974 107.47 108.836 103.906C106.49 96.5374 110.561 88.6396 117.932 86.2945C119.347 85.8461 120.773 85.6277 122.187 85.6277C122.325 85.6277 122.475 85.6392 122.613 85.6392C118.864 88.0189 117.024 92.6977 118.438 97.1237C120.117 102.389 125.752 105.297 131.019 103.619C133.216 102.918 134.998 101.527 136.217 99.7563C136.206 101.929 135.688 104.09 134.665 106.068L134.653 106.079Z" fill="#F29F05"/>
</svg>
