<svg width="33" height="45" viewBox="0 0 33 45" fill="none" xmlns="http://www.w3.org/2000/svg">
<path d="M31.8341 25.4997C31.4889 24.92 30.6317 23.9572 28.7354 23.9572C28.7043 23.9572 28.6721 23.9572 28.641 23.9572C27.3661 23.9779 26.2419 24.3702 25.3651 24.7935C25.3835 24.0366 25.395 23.1923 25.4065 22.3572C25.4364 20.1038 24.6494 17.9965 23.2467 16.5759C21.958 15.2715 20.2147 14.5825 18.2022 14.5825C13.8849 14.5825 10.7505 17.8286 10.7505 22.302V38.7462C10.5342 38.7531 10.3017 38.7715 10.0636 38.806C8.48484 39.0338 7.37445 39.8793 6.9372 41.1883C6.57244 42.2799 6.84975 43.4784 7.64486 44.2399C8.16841 44.7403 8.84615 45.0003 9.57797 45.0003C9.97956 45.0003 10.3972 44.922 10.8126 44.7633C12.6572 44.0582 12.9529 42.2603 13.0001 41.0962L24.2087 40.8949C24.5217 40.8892 24.8185 40.7569 25.0314 40.528C25.2443 40.2991 25.3547 39.9931 25.3375 39.6814C25.2961 38.9441 25.219 36.846 25.3582 35.9959C25.7368 33.677 27.2395 32.659 28.8321 31.5824C29.9609 30.8186 31.1288 30.0272 31.8399 28.7734C32.4152 27.7589 32.4129 26.4763 31.8353 25.5043L31.8341 25.4997ZM9.98991 42.6123C9.7989 42.6859 9.4468 42.7779 9.23738 42.5766C9.08204 42.4282 9.03601 42.1683 9.12001 41.9164C9.33403 41.278 10.0682 41.0905 10.6953 41.0525C10.655 41.8922 10.4893 42.4213 9.98991 42.6123ZM29.8366 27.6346C29.3913 28.4203 28.5329 29.0011 27.5399 29.6729C25.9692 30.7358 24.0533 32.0333 23.2939 34.6881C22.3699 34.4994 21.683 33.9094 21.6795 33.9059C21.2066 33.4815 20.4794 33.5194 20.0548 33.9922C19.6302 34.4649 19.6682 35.1919 20.1411 35.6164C20.2009 35.6704 21.3458 36.6804 22.9844 36.9702C22.9706 37.5281 22.9775 38.1159 22.9913 38.614L13.053 38.7922V22.302C13.053 20.6559 13.5834 19.2676 14.5857 18.2875C15.5131 17.3811 16.7984 16.8831 18.2045 16.8831C19.6106 16.8831 20.7521 17.3236 21.6105 18.1921C22.5839 19.1778 23.1294 20.6847 23.1075 22.3273C23.0856 24.0101 23.0557 25.8759 22.9821 26.7294C22.9487 27.1205 23.1167 27.5012 23.4285 27.7393C23.7404 27.9786 24.1511 28.0418 24.5205 27.9084C24.7196 27.8371 24.9002 27.7221 25.1729 27.5495C25.8725 27.1067 27.1762 26.2831 28.6813 26.2578C29.0979 26.2486 29.6467 26.3176 29.8584 26.6742C30.0264 26.9571 29.9804 27.385 29.8389 27.6346H29.8366Z" fill="#D90718"/>
<path d="M21.6738 24.0577C20.6992 23.1927 19.3679 22.8568 18.1102 23.1582C16.8733 23.4549 15.8952 24.3096 15.4257 25.5047C15.1933 26.096 15.4844 26.7631 16.0759 26.9955C16.2139 27.0495 16.3566 27.076 16.497 27.076C16.9561 27.076 17.3899 26.7988 17.5683 26.3467C17.8295 25.6819 18.3565 25.4656 18.6476 25.3966C19.1734 25.2701 19.735 25.4139 20.1481 25.7796C20.6233 26.2018 21.3505 26.1581 21.7728 25.683C22.1951 25.208 22.1514 24.481 21.6761 24.0588L21.6738 24.0577Z" fill="#D90718"/>
<g clip-path="url(#clip0_1668_6781)">
<path d="M13.3228 19.9383L13.3222 19.9397L13.3207 19.9391L10.9984 20.8695L11.3172 21.7972L22.709 17.2334L22.2939 16.3443L13.3228 19.9383Z" fill="#FFFCED"/>
<path d="M22.8329 6.22307C22.508 5.19467 21.6329 4.47756 20.5492 4.35205C19.3947 4.21812 18.3132 4.79624 17.6569 5.89983C17.626 5.95146 17.5918 6.01918 17.5519 6.09409C17.283 6.60555 16.9153 7.30514 16.2308 7.39774C15.629 7.4793 15.1792 7.00291 14.8822 6.68744C14.8394 6.64197 14.802 6.60053 14.7706 6.57135C13.8343 5.70449 12.6651 5.45125 11.6287 5.89712C10.5729 6.28821 9.89622 7.27969 9.81715 8.55581C9.81463 8.59855 9.81614 8.6544 9.81618 8.71575C9.81916 9.149 9.82268 9.80418 9.33101 10.1607C8.77083 10.5667 8.02286 10.3141 7.47527 10.1297C7.39465 10.1031 7.32313 10.0778 7.26516 10.0617C6.02845 9.71651 4.84648 10.044 4.1042 10.939C3.40695 11.778 3.26898 12.901 3.74401 13.8692C3.95494 14.2977 4.71581 15.3331 7.44701 17.442C8.59346 18.3278 9.68865 19.0918 10.2262 19.4594L11.8506 18.8086L9.80838 15.5154C9.57611 15.1409 9.69199 14.649 10.0655 14.4171C10.4411 14.1845 10.9319 14.3008 11.1638 14.6742L13.3529 18.2056L15.5811 17.3129L13.9203 13.1428C13.7568 12.7346 13.9562 12.2706 14.3644 12.107L14.3655 12.1066C14.7748 11.9426 15.2382 12.1436 15.4017 12.5518L17.0612 16.7187L19.1467 15.8832L18.2243 11.7917C18.1269 11.3618 18.3964 10.9348 18.8267 10.8385C19.2565 10.7412 19.6825 11.0111 19.7798 11.4409L20.6458 15.2814L22.0048 14.737C22.1398 14.0999 22.4036 12.7916 22.6224 11.3588C23.142 7.94747 22.9776 6.67317 22.8344 6.21756L22.8329 6.22307Z" fill="#FFFCED"/>
<path d="M24.5107 17.3229L23.532 15.2261C23.8536 13.7497 25.0437 7.93439 24.3529 5.74435C23.836 4.10806 22.4489 2.96769 20.7318 2.76827C18.9337 2.55958 17.272 3.42656 16.285 5.08608C16.2381 5.16501 16.1901 5.25664 16.1392 5.35314C16.1094 5.41048 16.0665 5.49026 16.0208 5.57237C15.963 5.51084 15.908 5.45311 15.8519 5.40195C14.4711 4.12407 12.7063 3.75352 11.1103 4.38924L10.9569 4.45067C10.9569 4.45067 10.9569 4.45067 10.9559 4.4511C9.36069 5.09507 8.34223 6.57817 8.2254 8.4585C8.22121 8.53381 8.22125 8.61357 8.22151 8.69692C8.13179 8.66904 8.04525 8.6399 7.98453 8.62004C7.88106 8.5854 7.78309 8.55224 7.69465 8.52754C5.83484 8.00854 4.0346 8.5297 2.87752 9.92106C1.77097 11.2517 1.55487 13.0343 2.31072 14.5749C3.27877 16.5471 7.7806 19.7275 9.26708 20.7421L10.0828 23.1092C10.1542 23.315 10.3064 23.4835 10.5049 23.5746C10.7034 23.6656 10.93 23.6706 11.133 23.5892L24.0846 18.4006C24.2877 18.3192 24.4488 18.1577 24.5301 17.9533C24.6104 17.7494 24.6037 17.5213 24.5107 17.3229ZM11.3172 21.7973L10.9972 20.87L13.3196 19.9397C13.3196 19.9397 13.3196 19.9397 13.3206 19.9392C13.3217 19.9388 13.3206 19.9392 13.3217 19.9388L22.2927 16.3448L22.7078 17.234L11.3172 21.7973ZM22.0031 14.7427L20.6442 15.2871L19.7781 11.4466C19.6808 11.0168 19.2548 10.7469 18.825 10.8442C18.3947 10.9405 18.1252 11.3675 18.2226 11.7974L19.145 15.8889L17.0596 16.7244L15.4 12.5575C15.2361 12.1482 14.7731 11.9484 14.3638 12.1123L14.3628 12.1127C13.9546 12.2763 13.7557 12.7388 13.9186 13.1485L15.5794 17.3186L13.3512 18.2113L11.1621 14.6799C10.9298 14.3054 10.4394 14.1902 10.0638 14.4229C9.68926 14.6551 9.57444 15.1466 9.80671 15.5212L11.8489 18.8143L10.2245 19.4651C9.68698 19.0975 8.59285 18.3331 7.44534 17.4477C4.71414 15.3388 3.95327 14.3034 3.74234 13.8749C3.26731 12.9067 3.40528 11.7837 4.10253 10.9447C4.84523 10.0507 6.02678 9.72221 7.26349 10.0674C7.32146 10.0835 7.39255 10.1078 7.47359 10.1354C8.02119 10.3198 8.76916 10.5725 9.32934 10.1664C9.82207 9.80946 9.81749 9.15471 9.8145 8.72146C9.81405 8.65905 9.81254 8.6032 9.81548 8.56152C9.89455 7.2854 10.5712 6.29392 11.6271 5.90283C12.6634 5.45696 13.8322 5.70914 14.769 6.57706C14.8003 6.60624 14.8378 6.64768 14.8805 6.69314C15.1775 7.00862 15.6269 7.48395 16.2291 7.40345C16.9136 7.31085 17.2814 6.61126 17.5502 6.0998C17.5901 6.02488 17.6244 5.95717 17.6552 5.90553C18.3115 4.80194 19.3926 4.22277 20.5476 4.35776C21.6312 4.48326 22.5064 5.20038 22.8312 6.22877C22.9745 6.68438 23.1389 7.95868 22.6192 11.37C22.4015 12.8023 22.1367 14.1111 22.0016 14.7482L22.0031 14.7427Z" fill="#9EA5D3"/>
</g>
<defs>
<clipPath id="clip0_1668_6781">
<rect width="23.7714" height="17.8314" fill="white" transform="translate(0 8.84033) rotate(-21.832)"/>
</clipPath>
</defs>
</svg>
