<svg width="216" height="257" viewBox="0 0 216 257" fill="none" xmlns="http://www.w3.org/2000/svg">
<path d="M211.693 92.2397C208.776 87.3415 201.534 79.207 185.512 79.207C185.249 79.207 184.977 79.207 184.714 79.207C173.942 79.3819 164.444 82.696 157.036 86.2725C157.191 79.8776 157.289 72.7441 157.386 65.6884C157.639 46.6495 150.989 28.845 139.138 16.8424C128.249 5.82147 113.52 0 96.5165 0C60.0396 0 33.5569 27.426 33.5569 65.2219V204.16C31.7292 204.218 29.7653 204.374 27.7529 204.665C14.4143 206.589 5.03258 213.733 1.33822 224.792C-1.74365 234.015 0.599352 244.142 7.31725 250.576C11.7408 254.804 17.467 257 23.6502 257C27.0432 257 30.5723 256.339 34.0819 254.998C49.6663 249.04 52.1648 233.85 52.5634 224.015L147.265 222.314C149.91 222.266 152.418 221.148 154.217 219.214C156.015 217.28 156.948 214.695 156.803 212.061C156.453 205.831 155.801 188.104 156.978 180.922C160.176 161.33 172.873 152.729 186.328 143.632C195.866 137.179 205.733 130.492 211.742 119.899C216.603 111.327 216.583 100.491 211.703 92.2786L211.693 92.2397ZM27.1307 236.824C25.5168 237.446 22.5419 238.224 20.7725 236.523C19.46 235.269 19.0711 233.073 19.7808 230.944C21.5891 225.55 27.7918 223.966 33.0903 223.646C32.75 230.74 31.35 235.211 27.1307 236.824ZM194.816 110.278C191.053 116.915 183.801 121.823 175.411 127.499C162.14 136.479 145.953 147.442 139.536 169.872C131.73 168.278 125.926 163.293 125.896 163.264C121.901 159.677 115.756 159.998 112.169 163.993C108.582 167.987 108.902 174.129 112.898 177.715C113.404 178.172 123.077 186.705 136.921 189.154C136.804 193.868 136.863 198.834 136.979 203.042L53.0106 204.548V65.2219C53.0106 51.3145 57.4925 39.5841 65.9603 31.3038C73.7962 23.6455 84.6557 19.4373 96.536 19.4373C108.416 19.4373 118.06 23.1595 125.313 30.4971C133.538 38.826 138.146 51.5574 137.961 65.4357C137.777 79.6541 137.524 95.4177 136.902 102.629C136.62 105.933 138.039 109.15 140.674 111.162C143.308 113.183 146.779 113.718 149.9 112.591C151.582 111.988 153.108 111.016 155.412 109.558C161.323 105.817 172.338 98.8581 185.055 98.6443C188.574 98.5666 193.211 99.1497 195 102.162C196.42 104.553 196.031 108.169 194.835 110.278H194.816Z" fill="#FFFCED"/>
<path d="M125.849 80.0522C117.614 72.7438 106.366 69.9059 95.7396 72.4522C85.2885 74.9596 77.0248 82.1806 73.0582 92.2783C71.0944 97.2737 73.554 102.91 78.5512 104.874C79.7178 105.33 80.9233 105.554 82.1094 105.554C85.9885 105.554 89.6537 103.212 91.1606 99.3923C93.3675 93.7749 97.8201 91.9478 100.28 91.3647C104.723 90.2957 109.467 91.5105 112.957 94.601C116.972 98.1678 123.117 97.7985 126.685 93.7847C130.253 89.7709 129.883 83.6287 125.868 80.0619L125.849 80.0522Z" fill="#FFFCED"/>
</svg>
