<svg width="299" height="170" viewBox="0 0 299 170" fill="none" xmlns="http://www.w3.org/2000/svg">
<path d="M172.161 18C172.161 11.3726 166.788 6 160.161 6H108.716C102.088 6 96.7158 11.3726 96.7158 18V29.0432L96.1556 33.2757V33.2757C96.0916 33.9845 96.8656 34.4612 97.4698 34.0851L98.4249 33.4905C98.6505 33.3501 98.9109 33.2757 99.1766 33.2757H160.161C166.788 33.2757 172.161 27.9031 172.161 21.2757V18Z" fill="#FFFCED"/>
<path d="M115.656 14.6C116.392 14.6 116.948 14.78 117.324 15.14C117.708 15.5 117.9 16.024 117.9 16.712C117.9 17.072 117.812 17.4 117.636 17.696C117.468 17.984 117.216 18.212 116.88 18.38C116.552 18.548 116.14 18.636 115.644 18.644L115.668 18.2C115.932 18.2 116.216 18.236 116.52 18.308C116.832 18.38 117.124 18.504 117.396 18.68C117.668 18.856 117.892 19.096 118.068 19.4C118.244 19.696 118.332 20.068 118.332 20.516C118.332 21.004 118.252 21.412 118.092 21.74C117.932 22.06 117.72 22.312 117.456 22.496C117.192 22.68 116.9 22.812 116.58 22.892C116.268 22.964 115.96 23 115.656 23H112.584C112.416 23 112.272 22.944 112.152 22.832C112.032 22.712 111.972 22.564 111.972 22.388V15.212C111.972 15.036 112.032 14.892 112.152 14.78C112.272 14.66 112.416 14.6 112.584 14.6H115.656ZM115.488 15.776H113.124L113.268 15.584V18.164L113.136 18.032H115.512C115.8 18.024 116.052 17.928 116.268 17.744C116.492 17.552 116.604 17.272 116.604 16.904C116.604 16.528 116.504 16.248 116.304 16.064C116.104 15.872 115.832 15.776 115.488 15.776ZM115.572 19.208H113.184L113.268 19.124V21.956L113.172 21.848H115.644C116.06 21.848 116.396 21.74 116.652 21.524C116.908 21.3 117.036 20.964 117.036 20.516C117.036 20.14 116.96 19.86 116.808 19.676C116.656 19.492 116.468 19.368 116.244 19.304C116.02 19.24 115.796 19.208 115.572 19.208ZM125.728 19.844C125.728 20.484 125.588 21.052 125.308 21.548C125.028 22.036 124.648 22.42 124.168 22.7C123.688 22.98 123.148 23.12 122.548 23.12C121.948 23.12 121.408 22.98 120.928 22.7C120.448 22.42 120.064 22.036 119.776 21.548C119.496 21.052 119.356 20.484 119.356 19.844C119.356 19.196 119.496 18.628 119.776 18.14C120.064 17.644 120.448 17.256 120.928 16.976C121.408 16.688 121.948 16.544 122.548 16.544C123.148 16.544 123.688 16.688 124.168 16.976C124.648 17.256 125.028 17.644 125.308 18.14C125.588 18.628 125.728 19.196 125.728 19.844ZM124.528 19.844C124.528 19.404 124.44 19.024 124.264 18.704C124.088 18.376 123.848 18.12 123.544 17.936C123.248 17.744 122.916 17.648 122.548 17.648C122.18 17.648 121.844 17.744 121.54 17.936C121.236 18.12 120.996 18.376 120.82 18.704C120.644 19.024 120.556 19.404 120.556 19.844C120.556 20.268 120.644 20.644 120.82 20.972C120.996 21.3 121.236 21.556 121.54 21.74C121.844 21.924 122.18 22.016 122.548 22.016C122.916 22.016 123.248 21.924 123.544 21.74C123.848 21.556 124.088 21.3 124.264 20.972C124.44 20.644 124.528 20.268 124.528 19.844ZM130.338 16.544C130.906 16.544 131.346 16.664 131.658 16.904C131.97 17.136 132.186 17.452 132.306 17.852C132.434 18.244 132.498 18.684 132.498 19.172V22.388C132.498 22.564 132.438 22.712 132.318 22.832C132.206 22.944 132.066 23 131.898 23C131.722 23 131.578 22.944 131.466 22.832C131.354 22.712 131.298 22.564 131.298 22.388V19.184C131.298 18.896 131.258 18.64 131.178 18.416C131.098 18.184 130.958 18 130.758 17.864C130.566 17.72 130.294 17.648 129.942 17.648C129.614 17.648 129.326 17.72 129.078 17.864C128.83 18 128.634 18.184 128.49 18.416C128.354 18.64 128.286 18.896 128.286 19.184V22.388C128.286 22.564 128.226 22.712 128.106 22.832C127.994 22.944 127.854 23 127.686 23C127.51 23 127.366 22.944 127.254 22.832C127.142 22.712 127.086 22.564 127.086 22.388V17.3C127.086 17.124 127.142 16.98 127.254 16.868C127.366 16.748 127.51 16.688 127.686 16.688C127.854 16.688 127.994 16.748 128.106 16.868C128.226 16.98 128.286 17.124 128.286 17.3V17.972L128.07 18.092C128.126 17.916 128.222 17.74 128.358 17.564C128.502 17.38 128.674 17.212 128.874 17.06C129.074 16.9 129.298 16.776 129.546 16.688C129.794 16.592 130.058 16.544 130.338 16.544ZM135.532 23.264C135.532 23.696 135.444 24.068 135.268 24.38C135.092 24.692 134.86 24.932 134.572 25.1C134.284 25.268 133.976 25.352 133.648 25.352C133.48 25.352 133.344 25.296 133.24 25.184C133.136 25.08 133.084 24.952 133.084 24.8V24.692C133.084 24.548 133.136 24.432 133.24 24.344C133.336 24.256 133.456 24.188 133.6 24.14C133.784 24.084 133.928 24 134.032 23.888C134.144 23.784 134.22 23.648 134.26 23.48C134.308 23.32 134.332 23.144 134.332 22.952V17.288C134.332 17.12 134.388 16.98 134.5 16.868C134.612 16.748 134.756 16.688 134.932 16.688C135.108 16.688 135.252 16.748 135.364 16.868C135.476 16.98 135.532 17.12 135.532 17.288V23.264ZM134.908 15.848C134.676 15.848 134.508 15.808 134.404 15.728C134.3 15.64 134.248 15.496 134.248 15.296V15.104C134.248 14.904 134.304 14.764 134.416 14.684C134.528 14.604 134.696 14.564 134.92 14.564C135.16 14.564 135.332 14.608 135.436 14.696C135.54 14.776 135.592 14.912 135.592 15.104V15.296C135.592 15.504 135.536 15.648 135.424 15.728C135.32 15.808 135.148 15.848 134.908 15.848ZM143.493 19.844C143.493 20.484 143.353 21.052 143.073 21.548C142.793 22.036 142.413 22.42 141.933 22.7C141.453 22.98 140.913 23.12 140.313 23.12C139.713 23.12 139.173 22.98 138.693 22.7C138.213 22.42 137.829 22.036 137.541 21.548C137.261 21.052 137.121 20.484 137.121 19.844C137.121 19.196 137.261 18.628 137.541 18.14C137.829 17.644 138.213 17.256 138.693 16.976C139.173 16.688 139.713 16.544 140.313 16.544C140.913 16.544 141.453 16.688 141.933 16.976C142.413 17.256 142.793 17.644 143.073 18.14C143.353 18.628 143.493 19.196 143.493 19.844ZM142.293 19.844C142.293 19.404 142.205 19.024 142.029 18.704C141.853 18.376 141.613 18.12 141.309 17.936C141.013 17.744 140.681 17.648 140.313 17.648C139.945 17.648 139.609 17.744 139.305 17.936C139.001 18.12 138.761 18.376 138.585 18.704C138.409 19.024 138.321 19.404 138.321 19.844C138.321 20.268 138.409 20.644 138.585 20.972C138.761 21.3 139.001 21.556 139.305 21.74C139.609 21.924 139.945 22.016 140.313 22.016C140.681 22.016 141.013 21.924 141.309 21.74C141.613 21.556 141.853 21.3 142.029 20.972C142.205 20.644 142.293 20.268 142.293 19.844ZM149.556 16.688C149.724 16.688 149.864 16.748 149.976 16.868C150.096 16.98 150.156 17.124 150.156 17.3V20.456C150.156 21.288 149.924 21.94 149.46 22.412C148.996 22.876 148.34 23.108 147.492 23.108C146.652 23.108 146 22.876 145.536 22.412C145.08 21.94 144.852 21.288 144.852 20.456V17.3C144.852 17.124 144.908 16.98 145.02 16.868C145.132 16.748 145.276 16.688 145.452 16.688C145.62 16.688 145.76 16.748 145.872 16.868C145.992 16.98 146.052 17.124 146.052 17.3V20.456C146.052 20.976 146.172 21.364 146.412 21.62C146.66 21.876 147.02 22.004 147.492 22.004C147.972 22.004 148.336 21.876 148.584 21.62C148.832 21.364 148.956 20.976 148.956 20.456V17.3C148.956 17.124 149.012 16.98 149.124 16.868C149.236 16.748 149.38 16.688 149.556 16.688ZM152.424 23C152.248 23 152.104 22.944 151.992 22.832C151.88 22.712 151.824 22.564 151.824 22.388V17.3C151.824 17.124 151.88 16.98 151.992 16.868C152.104 16.748 152.248 16.688 152.424 16.688C152.592 16.688 152.732 16.748 152.844 16.868C152.964 16.98 153.024 17.124 153.024 17.3V18.644L152.904 18.128C152.968 17.904 153.064 17.696 153.192 17.504C153.328 17.312 153.488 17.144 153.672 17C153.856 16.856 154.06 16.744 154.284 16.664C154.516 16.584 154.756 16.544 155.004 16.544C155.212 16.544 155.392 16.6 155.544 16.712C155.696 16.824 155.772 16.964 155.772 17.132C155.772 17.348 155.716 17.508 155.604 17.612C155.492 17.708 155.368 17.756 155.232 17.756C155.112 17.756 154.996 17.732 154.884 17.684C154.772 17.628 154.64 17.6 154.488 17.6C154.32 17.6 154.148 17.644 153.972 17.732C153.796 17.82 153.636 17.952 153.492 18.128C153.348 18.296 153.232 18.496 153.144 18.728C153.064 18.96 153.024 19.22 153.024 19.508V22.388C153.024 22.564 152.964 22.712 152.844 22.832C152.732 22.944 152.592 23 152.424 23ZM112.44 56.444C112.208 56.444 112.084 56.316 112.068 56.06L111.792 51.344C111.776 51.136 111.828 50.96 111.948 50.816C112.068 50.672 112.232 50.6 112.44 50.6C112.64 50.6 112.8 50.672 112.92 50.816C113.048 50.96 113.1 51.136 113.076 51.344L112.812 56.06C112.796 56.316 112.672 56.444 112.44 56.444ZM112.38 59C112.18 59 112.024 58.944 111.912 58.832C111.808 58.72 111.756 58.564 111.756 58.364V58.148C111.756 57.94 111.808 57.784 111.912 57.68C112.024 57.568 112.18 57.512 112.38 57.512H112.5C112.708 57.512 112.864 57.568 112.968 57.68C113.072 57.784 113.124 57.94 113.124 58.148V58.364C113.124 58.564 113.072 58.72 112.968 58.832C112.864 58.944 112.708 59 112.5 59H112.38Z" fill="black"/>
<path d="M244.251 154C244.251 147.373 249.624 142 256.251 142H282.855C289.482 142 294.855 147.373 294.855 154V164.249L295.231 168.335V168.335C295.269 168.945 294.548 169.295 294.093 168.887L293.729 168.561C293.567 168.415 293.357 168.335 293.139 168.335H256.251C249.624 168.335 244.251 162.963 244.251 156.335V154Z" fill="#FFFCED"/>
<path d="M262.51 158.15C261.63 158.15 260.96 157.91 260.5 157.43C260.06 156.95 259.84 156.32 259.84 155.54C259.84 154.64 260.09 153.92 260.59 153.38C261.11 152.84 261.83 152.57 262.75 152.57C263.63 152.57 264.29 152.79 264.73 153.23C265.19 153.65 265.42 154.28 265.42 155.12C265.42 156.04 265.16 156.78 264.64 157.34C264.12 157.88 263.41 158.15 262.51 158.15ZM270.215 158.15C269.335 158.15 268.665 157.91 268.205 157.43C267.765 156.95 267.545 156.32 267.545 155.54C267.545 154.64 267.795 153.92 268.295 153.38C268.815 152.84 269.535 152.57 270.455 152.57C271.335 152.57 271.995 152.79 272.435 153.23C272.895 153.65 273.125 154.28 273.125 155.12C273.125 156.04 272.865 156.78 272.345 157.34C271.825 157.88 271.115 158.15 270.215 158.15ZM277.92 158.15C277.04 158.15 276.37 157.91 275.91 157.43C275.47 156.95 275.25 156.32 275.25 155.54C275.25 154.64 275.5 153.92 276 153.38C276.52 152.84 277.24 152.57 278.16 152.57C279.04 152.57 279.7 152.79 280.14 153.23C280.6 153.65 280.83 154.28 280.83 155.12C280.83 156.04 280.57 156.78 280.05 157.34C279.53 157.88 278.82 158.15 277.92 158.15Z" fill="#D90718"/>
<path d="M288 62C288 55.3726 282.627 50 276 50H109.805C103.177 50 97.8047 55.3726 97.8047 62V72.803C97.8047 74.0156 97.6209 75.2212 97.2595 76.3788L96.3923 79.1568V79.1568C96.2125 80.0017 96.9868 80.7395 97.8221 80.519L102.467 79.293C102.81 79.2026 103.163 79.1568 103.517 79.1568H276C282.627 79.1568 288 73.7842 288 67.1568V62Z" fill="#FFFCED"/>
<path d="M119.489 64.8C119.489 65.408 119.389 65.976 119.189 66.504C118.989 67.024 118.705 67.48 118.337 67.872C117.977 68.264 117.549 68.572 117.053 68.796C116.557 69.012 116.013 69.12 115.421 69.12C114.837 69.12 114.297 69.012 113.801 68.796C113.305 68.572 112.873 68.264 112.505 67.872C112.145 67.48 111.865 67.024 111.665 66.504C111.473 65.976 111.377 65.408 111.377 64.8C111.377 64.192 111.473 63.628 111.665 63.108C111.865 62.58 112.145 62.12 112.505 61.728C112.873 61.336 113.305 61.032 113.801 60.816C114.297 60.592 114.837 60.48 115.421 60.48C116.013 60.48 116.557 60.592 117.053 60.816C117.549 61.032 117.977 61.336 118.337 61.728C118.705 62.12 118.989 62.58 119.189 63.108C119.389 63.628 119.489 64.192 119.489 64.8ZM118.193 64.8C118.193 64.208 118.073 63.676 117.833 63.204C117.601 62.732 117.277 62.36 116.861 62.088C116.445 61.816 115.965 61.68 115.421 61.68C114.885 61.68 114.409 61.816 113.993 62.088C113.577 62.36 113.253 62.732 113.021 63.204C112.789 63.668 112.673 64.2 112.673 64.8C112.673 65.392 112.789 65.924 113.021 66.396C113.253 66.868 113.577 67.24 113.993 67.512C114.409 67.784 114.885 67.92 115.421 67.92C115.965 67.92 116.445 67.784 116.861 67.512C117.277 67.24 117.601 66.868 117.833 66.396C118.073 65.924 118.193 65.392 118.193 64.8ZM124.082 62.544C124.65 62.544 125.09 62.664 125.402 62.904C125.714 63.136 125.93 63.452 126.05 63.852C126.178 64.244 126.242 64.684 126.242 65.172V68.388C126.242 68.564 126.182 68.712 126.062 68.832C125.95 68.944 125.81 69 125.642 69C125.466 69 125.322 68.944 125.21 68.832C125.098 68.712 125.042 68.564 125.042 68.388V65.184C125.042 64.896 125.002 64.64 124.922 64.416C124.842 64.184 124.702 64 124.502 63.864C124.31 63.72 124.038 63.648 123.686 63.648C123.358 63.648 123.07 63.72 122.822 63.864C122.574 64 122.378 64.184 122.234 64.416C122.098 64.64 122.03 64.896 122.03 65.184V68.388C122.03 68.564 121.97 68.712 121.85 68.832C121.738 68.944 121.598 69 121.43 69C121.254 69 121.11 68.944 120.998 68.832C120.886 68.712 120.83 68.564 120.83 68.388V63.3C120.83 63.124 120.886 62.98 120.998 62.868C121.11 62.748 121.254 62.688 121.43 62.688C121.598 62.688 121.738 62.748 121.85 62.868C121.97 62.98 122.03 63.124 122.03 63.3V63.972L121.814 64.092C121.87 63.916 121.966 63.74 122.102 63.564C122.246 63.38 122.418 63.212 122.618 63.06C122.818 62.9 123.042 62.776 123.29 62.688C123.538 62.592 123.802 62.544 124.082 62.544ZM134.428 62.58C134.988 62.58 135.484 62.72 135.916 63C136.356 63.28 136.704 63.664 136.96 64.152C137.216 64.632 137.344 65.192 137.344 65.832C137.344 66.472 137.216 67.04 136.96 67.536C136.704 68.024 136.36 68.408 135.928 68.688C135.496 68.968 135.008 69.108 134.464 69.108C134.16 69.108 133.872 69.06 133.6 68.964C133.328 68.868 133.088 68.744 132.88 68.592C132.672 68.432 132.5 68.264 132.364 68.088C132.236 67.912 132.156 67.748 132.124 67.596L132.448 67.44V70.788C132.448 70.964 132.388 71.108 132.268 71.22C132.156 71.34 132.016 71.4 131.848 71.4C131.672 71.4 131.528 71.34 131.416 71.22C131.304 71.108 131.248 70.964 131.248 70.788V63.276C131.248 63.108 131.304 62.964 131.416 62.844C131.528 62.724 131.672 62.664 131.848 62.664C132.016 62.664 132.156 62.724 132.268 62.844C132.388 62.964 132.448 63.108 132.448 63.276V64.104L132.256 63.996C132.28 63.844 132.356 63.688 132.484 63.528C132.612 63.36 132.772 63.204 132.964 63.06C133.164 62.916 133.388 62.8 133.636 62.712C133.892 62.624 134.156 62.58 134.428 62.58ZM134.296 63.684C133.912 63.684 133.576 63.78 133.288 63.972C133.008 64.156 132.788 64.408 132.628 64.728C132.468 65.048 132.388 65.416 132.388 65.832C132.388 66.24 132.468 66.612 132.628 66.948C132.788 67.276 133.008 67.536 133.288 67.728C133.576 67.912 133.912 68.004 134.296 68.004C134.672 68.004 135 67.912 135.28 67.728C135.56 67.536 135.78 67.276 135.94 66.948C136.108 66.612 136.192 66.24 136.192 65.832C136.192 65.424 136.108 65.06 135.94 64.74C135.78 64.412 135.56 64.156 135.28 63.972C135 63.78 134.672 63.684 134.296 63.684ZM139.997 68.388C139.997 68.564 139.937 68.712 139.817 68.832C139.705 68.944 139.565 69 139.397 69C139.229 69 139.085 68.944 138.965 68.832C138.853 68.712 138.797 68.564 138.797 68.388V60.732C138.797 60.556 138.857 60.412 138.977 60.3C139.097 60.18 139.241 60.12 139.409 60.12C139.585 60.12 139.725 60.18 139.829 60.3C139.941 60.412 139.997 60.556 139.997 60.732V68.388ZM146.955 62.592C147.131 62.592 147.275 62.652 147.387 62.772C147.499 62.884 147.555 63.028 147.555 63.204V68.388C147.555 68.564 147.499 68.712 147.387 68.832C147.275 68.944 147.131 69 146.955 69C146.787 69 146.643 68.944 146.523 68.832C146.411 68.712 146.355 68.564 146.355 68.388V67.524L146.607 67.56C146.607 67.704 146.547 67.864 146.427 68.04C146.315 68.216 146.159 68.388 145.959 68.556C145.759 68.716 145.523 68.852 145.251 68.964C144.979 69.068 144.687 69.12 144.375 69.12C143.823 69.12 143.327 68.98 142.887 68.7C142.447 68.412 142.099 68.02 141.843 67.524C141.587 67.028 141.459 66.464 141.459 65.832C141.459 65.184 141.587 64.616 141.843 64.128C142.099 63.632 142.443 63.244 142.875 62.964C143.315 62.684 143.803 62.544 144.339 62.544C144.683 62.544 144.999 62.6 145.287 62.712C145.583 62.824 145.839 62.968 146.055 63.144C146.271 63.32 146.435 63.508 146.547 63.708C146.667 63.9 146.727 64.084 146.727 64.26L146.355 64.296V63.204C146.355 63.036 146.411 62.892 146.523 62.772C146.643 62.652 146.787 62.592 146.955 62.592ZM144.507 68.016C144.883 68.016 145.215 67.92 145.503 67.728C145.791 67.536 146.015 67.276 146.175 66.948C146.335 66.612 146.415 66.24 146.415 65.832C146.415 65.416 146.335 65.044 146.175 64.716C146.015 64.388 145.791 64.128 145.503 63.936C145.215 63.744 144.883 63.648 144.507 63.648C144.139 63.648 143.811 63.744 143.523 63.936C143.243 64.128 143.019 64.388 142.851 64.716C142.691 65.044 142.611 65.416 142.611 65.832C142.611 66.24 142.691 66.612 142.851 66.948C143.019 67.276 143.243 67.536 143.523 67.728C143.811 67.92 144.139 68.016 144.507 68.016ZM152.488 62.544C153.056 62.544 153.496 62.664 153.808 62.904C154.12 63.136 154.336 63.452 154.456 63.852C154.584 64.244 154.648 64.684 154.648 65.172V68.388C154.648 68.564 154.588 68.712 154.468 68.832C154.356 68.944 154.216 69 154.048 69C153.872 69 153.728 68.944 153.616 68.832C153.504 68.712 153.448 68.564 153.448 68.388V65.184C153.448 64.896 153.408 64.64 153.328 64.416C153.248 64.184 153.108 64 152.908 63.864C152.716 63.72 152.444 63.648 152.092 63.648C151.764 63.648 151.476 63.72 151.228 63.864C150.98 64 150.784 64.184 150.64 64.416C150.504 64.64 150.436 64.896 150.436 65.184V68.388C150.436 68.564 150.376 68.712 150.256 68.832C150.144 68.944 150.004 69 149.836 69C149.66 69 149.516 68.944 149.404 68.832C149.292 68.712 149.236 68.564 149.236 68.388V63.3C149.236 63.124 149.292 62.98 149.404 62.868C149.516 62.748 149.66 62.688 149.836 62.688C150.004 62.688 150.144 62.748 150.256 62.868C150.376 62.98 150.436 63.124 150.436 63.3V63.972L150.22 64.092C150.276 63.916 150.372 63.74 150.508 63.564C150.652 63.38 150.824 63.212 151.024 63.06C151.224 62.9 151.448 62.776 151.696 62.688C151.944 62.592 152.208 62.544 152.488 62.544ZM157.442 68.388C157.442 68.564 157.386 68.712 157.274 68.832C157.162 68.944 157.018 69 156.842 69C156.674 69 156.53 68.944 156.41 68.832C156.298 68.712 156.242 68.564 156.242 68.388V63.252C156.242 63.076 156.298 62.932 156.41 62.82C156.53 62.7 156.674 62.64 156.842 62.64C157.018 62.64 157.162 62.7 157.274 62.82C157.386 62.932 157.442 63.076 157.442 63.252V68.388ZM156.83 61.848C156.598 61.848 156.43 61.808 156.326 61.728C156.222 61.64 156.17 61.496 156.17 61.296V61.104C156.17 60.904 156.226 60.764 156.338 60.684C156.45 60.604 156.618 60.564 156.842 60.564C157.082 60.564 157.254 60.608 157.358 60.696C157.462 60.776 157.514 60.912 157.514 61.104V61.296C157.514 61.504 157.458 61.648 157.346 61.728C157.242 61.808 157.07 61.848 156.83 61.848ZM161.996 60.132C162.148 60.132 162.304 60.152 162.464 60.192C162.624 60.232 162.756 60.3 162.86 60.396C162.972 60.484 163.028 60.608 163.028 60.768C163.028 60.928 162.98 61.06 162.884 61.164C162.788 61.26 162.676 61.308 162.548 61.308C162.468 61.308 162.36 61.292 162.224 61.26C162.088 61.22 161.952 61.2 161.816 61.2C161.632 61.2 161.484 61.244 161.372 61.332C161.26 61.412 161.18 61.516 161.132 61.644C161.084 61.764 161.06 61.884 161.06 62.004V68.388C161.06 68.564 161 68.712 160.88 68.832C160.768 68.944 160.628 69 160.46 69C160.284 69 160.14 68.944 160.028 68.832C159.916 68.712 159.86 68.564 159.86 68.388V62.016C159.86 61.464 160.04 61.012 160.4 60.66C160.768 60.308 161.3 60.132 161.996 60.132ZM162.236 62.796C162.396 62.796 162.528 62.848 162.632 62.952C162.736 63.056 162.788 63.188 162.788 63.348C162.788 63.508 162.736 63.64 162.632 63.744C162.528 63.848 162.396 63.9 162.236 63.9H159.128C158.976 63.9 158.844 63.848 158.732 63.744C158.628 63.64 158.576 63.508 158.576 63.348C158.576 63.188 158.628 63.056 158.732 62.952C158.844 62.848 158.976 62.796 159.128 62.796H162.236ZM165.116 68.388C165.116 68.564 165.06 68.712 164.948 68.832C164.836 68.944 164.692 69 164.516 69C164.348 69 164.204 68.944 164.084 68.832C163.972 68.712 163.916 68.564 163.916 68.388V63.252C163.916 63.076 163.972 62.932 164.084 62.82C164.204 62.7 164.348 62.64 164.516 62.64C164.692 62.64 164.836 62.7 164.948 62.82C165.06 62.932 165.116 63.076 165.116 63.252V68.388ZM164.516 61.848C164.284 61.848 164.116 61.808 164.012 61.728C163.908 61.64 163.856 61.496 163.856 61.296V61.104C163.856 60.904 163.912 60.764 164.024 60.684C164.136 60.604 164.304 60.564 164.528 60.564C164.768 60.564 164.94 60.608 165.044 60.696C165.148 60.776 165.2 60.912 165.2 61.104V61.296C165.2 61.504 165.144 61.648 165.032 61.728C164.928 61.808 164.756 61.848 164.516 61.848ZM169.672 69.12C169.008 69.12 168.432 68.984 167.944 68.712C167.456 68.432 167.076 68.052 166.804 67.572C166.54 67.084 166.408 66.528 166.408 65.904C166.408 65.2 166.548 64.6 166.828 64.104C167.116 63.6 167.488 63.216 167.944 62.952C168.4 62.68 168.884 62.544 169.396 62.544C169.788 62.544 170.16 62.624 170.512 62.784C170.864 62.936 171.176 63.152 171.448 63.432C171.728 63.704 171.948 64.028 172.108 64.404C172.268 64.772 172.352 65.176 172.36 65.616C172.352 65.776 172.288 65.908 172.168 66.012C172.048 66.116 171.908 66.168 171.748 66.168H167.08L166.792 65.148H171.304L171.076 65.364V65.064C171.06 64.784 170.968 64.54 170.8 64.332C170.632 64.116 170.424 63.952 170.176 63.84C169.928 63.72 169.668 63.66 169.396 63.66C169.156 63.66 168.924 63.7 168.7 63.78C168.484 63.852 168.288 63.972 168.112 64.14C167.944 64.308 167.808 64.532 167.704 64.812C167.608 65.084 167.56 65.424 167.56 65.832C167.56 66.272 167.652 66.656 167.836 66.984C168.02 67.312 168.268 67.568 168.58 67.752C168.892 67.928 169.236 68.016 169.612 68.016C169.908 68.016 170.152 67.988 170.344 67.932C170.536 67.868 170.696 67.792 170.824 67.704C170.952 67.616 171.064 67.532 171.16 67.452C171.28 67.38 171.4 67.344 171.52 67.344C171.664 67.344 171.784 67.396 171.88 67.5C171.976 67.596 172.024 67.712 172.024 67.848C172.024 68.024 171.936 68.184 171.76 68.328C171.544 68.536 171.244 68.72 170.86 68.88C170.484 69.04 170.088 69.12 169.672 69.12ZM177.2 62.628C177.32 62.628 177.432 62.66 177.536 62.724C177.648 62.788 177.728 62.884 177.776 63.012L179.66 67.368L179.432 67.476L181.34 63.024C181.452 62.76 181.632 62.632 181.88 62.64C182.04 62.64 182.172 62.692 182.276 62.796C182.388 62.892 182.444 63.02 182.444 63.18C182.444 63.228 182.436 63.28 182.42 63.336C182.404 63.384 182.384 63.432 182.36 63.48L180.08 68.616C179.976 68.856 179.804 68.984 179.564 69C179.444 69.016 179.324 68.992 179.204 68.928C179.092 68.856 179.004 68.752 178.94 68.616L176.672 63.48C176.656 63.448 176.64 63.408 176.624 63.36C176.608 63.304 176.6 63.24 176.6 63.168C176.6 63.048 176.652 62.928 176.756 62.808C176.868 62.688 177.016 62.628 177.2 62.628ZM189.655 65.844C189.655 66.484 189.515 67.052 189.235 67.548C188.955 68.036 188.575 68.42 188.095 68.7C187.615 68.98 187.075 69.12 186.475 69.12C185.875 69.12 185.335 68.98 184.855 68.7C184.375 68.42 183.991 68.036 183.703 67.548C183.423 67.052 183.283 66.484 183.283 65.844C183.283 65.196 183.423 64.628 183.703 64.14C183.991 63.644 184.375 63.256 184.855 62.976C185.335 62.688 185.875 62.544 186.475 62.544C187.075 62.544 187.615 62.688 188.095 62.976C188.575 63.256 188.955 63.644 189.235 64.14C189.515 64.628 189.655 65.196 189.655 65.844ZM188.455 65.844C188.455 65.404 188.367 65.024 188.191 64.704C188.015 64.376 187.775 64.12 187.471 63.936C187.175 63.744 186.843 63.648 186.475 63.648C186.107 63.648 185.771 63.744 185.467 63.936C185.163 64.12 184.923 64.376 184.747 64.704C184.571 65.024 184.483 65.404 184.483 65.844C184.483 66.268 184.571 66.644 184.747 66.972C184.923 67.3 185.163 67.556 185.467 67.74C185.771 67.924 186.107 68.016 186.475 68.016C186.843 68.016 187.175 67.924 187.471 67.74C187.775 67.556 188.015 67.3 188.191 66.972C188.367 66.644 188.455 66.268 188.455 65.844ZM190.929 62.76H193.749C193.909 62.76 194.041 62.816 194.145 62.928C194.257 63.032 194.313 63.164 194.313 63.324C194.313 63.476 194.257 63.604 194.145 63.708C194.041 63.812 193.909 63.864 193.749 63.864H190.929C190.769 63.864 190.633 63.812 190.521 63.708C190.417 63.596 190.365 63.464 190.365 63.312C190.365 63.152 190.417 63.02 190.521 62.916C190.633 62.812 190.769 62.76 190.929 62.76ZM192.189 61.2C192.365 61.2 192.509 61.26 192.621 61.38C192.733 61.492 192.789 61.636 192.789 61.812V67.38C192.789 67.524 192.813 67.64 192.861 67.728C192.909 67.816 192.973 67.876 193.053 67.908C193.141 67.94 193.229 67.956 193.317 67.956C193.405 67.956 193.481 67.94 193.545 67.908C193.617 67.876 193.701 67.86 193.797 67.86C193.893 67.86 193.981 67.904 194.061 67.992C194.141 68.08 194.181 68.2 194.181 68.352C194.181 68.544 194.077 68.7 193.869 68.82C193.661 68.94 193.437 69 193.197 69C193.061 69 192.901 68.988 192.717 68.964C192.533 68.94 192.353 68.88 192.177 68.784C192.009 68.688 191.869 68.536 191.757 68.328C191.645 68.112 191.589 67.812 191.589 67.428V61.812C191.589 61.636 191.645 61.492 191.757 61.38C191.877 61.26 192.021 61.2 192.189 61.2ZM196.242 69C196.066 69 195.922 68.944 195.81 68.832C195.698 68.712 195.642 68.564 195.642 68.388V63.3C195.642 63.124 195.698 62.98 195.81 62.868C195.922 62.748 196.066 62.688 196.242 62.688C196.41 62.688 196.55 62.748 196.662 62.868C196.782 62.98 196.842 63.124 196.842 63.3V64.644L196.722 64.128C196.786 63.904 196.882 63.696 197.01 63.504C197.146 63.312 197.306 63.144 197.49 63C197.674 62.856 197.878 62.744 198.102 62.664C198.334 62.584 198.574 62.544 198.822 62.544C199.03 62.544 199.21 62.6 199.362 62.712C199.514 62.824 199.59 62.964 199.59 63.132C199.59 63.348 199.534 63.508 199.422 63.612C199.31 63.708 199.186 63.756 199.05 63.756C198.93 63.756 198.814 63.732 198.702 63.684C198.59 63.628 198.458 63.6 198.306 63.6C198.138 63.6 197.966 63.644 197.79 63.732C197.614 63.82 197.454 63.952 197.31 64.128C197.166 64.296 197.05 64.496 196.962 64.728C196.882 64.96 196.842 65.22 196.842 65.508V68.388C196.842 68.564 196.782 68.712 196.662 68.832C196.55 68.944 196.41 69 196.242 69ZM203.328 69.12C202.664 69.12 202.088 68.984 201.6 68.712C201.112 68.432 200.732 68.052 200.46 67.572C200.196 67.084 200.064 66.528 200.064 65.904C200.064 65.2 200.204 64.6 200.484 64.104C200.772 63.6 201.144 63.216 201.6 62.952C202.056 62.68 202.54 62.544 203.052 62.544C203.444 62.544 203.816 62.624 204.168 62.784C204.52 62.936 204.832 63.152 205.104 63.432C205.384 63.704 205.604 64.028 205.764 64.404C205.924 64.772 206.008 65.176 206.016 65.616C206.008 65.776 205.944 65.908 205.824 66.012C205.704 66.116 205.564 66.168 205.404 66.168H200.736L200.448 65.148H204.96L204.732 65.364V65.064C204.716 64.784 204.624 64.54 204.456 64.332C204.288 64.116 204.08 63.952 203.832 63.84C203.584 63.72 203.324 63.66 203.052 63.66C202.812 63.66 202.58 63.7 202.356 63.78C202.14 63.852 201.944 63.972 201.768 64.14C201.6 64.308 201.464 64.532 201.36 64.812C201.264 65.084 201.216 65.424 201.216 65.832C201.216 66.272 201.308 66.656 201.492 66.984C201.676 67.312 201.924 67.568 202.236 67.752C202.548 67.928 202.892 68.016 203.268 68.016C203.564 68.016 203.808 67.988 204 67.932C204.192 67.868 204.352 67.792 204.48 67.704C204.608 67.616 204.72 67.532 204.816 67.452C204.936 67.38 205.056 67.344 205.176 67.344C205.32 67.344 205.44 67.396 205.536 67.5C205.632 67.596 205.68 67.712 205.68 67.848C205.68 68.024 205.592 68.184 205.416 68.328C205.2 68.536 204.9 68.72 204.516 68.88C204.14 69.04 203.744 69.12 203.328 69.12ZM213.88 62.58C214.472 62.58 214.928 62.728 215.248 63.024C215.568 63.312 215.78 63.704 215.884 64.2L215.692 64.14L215.776 63.948C215.88 63.74 216.036 63.532 216.244 63.324C216.46 63.108 216.716 62.932 217.012 62.796C217.308 62.652 217.624 62.58 217.96 62.58C218.512 62.58 218.94 62.7 219.244 62.94C219.548 63.172 219.76 63.488 219.88 63.888C220 64.28 220.06 64.72 220.06 65.208V68.388C220.06 68.564 220.004 68.712 219.892 68.832C219.78 68.944 219.636 69 219.46 69C219.292 69 219.148 68.944 219.028 68.832C218.916 68.712 218.86 68.564 218.86 68.388V65.22C218.86 64.94 218.82 64.684 218.74 64.452C218.668 64.22 218.536 64.036 218.344 63.9C218.16 63.756 217.904 63.684 217.576 63.684C217.264 63.684 216.984 63.756 216.736 63.9C216.496 64.036 216.308 64.22 216.172 64.452C216.036 64.684 215.968 64.94 215.968 65.22V68.388C215.968 68.564 215.912 68.712 215.8 68.832C215.688 68.944 215.544 69 215.368 69C215.192 69 215.048 68.944 214.936 68.832C214.824 68.712 214.768 68.564 214.768 68.388V65.208C214.768 64.928 214.728 64.672 214.648 64.44C214.576 64.208 214.448 64.024 214.264 63.888C214.08 63.752 213.824 63.684 213.496 63.684C213.184 63.684 212.908 63.752 212.668 63.888C212.428 64.024 212.24 64.208 212.104 64.44C211.976 64.672 211.912 64.928 211.912 65.208V68.388C211.912 68.564 211.852 68.712 211.732 68.832C211.62 68.944 211.48 69 211.312 69C211.136 69 210.992 68.944 210.88 68.832C210.768 68.712 210.712 68.564 210.712 68.388V63.3C210.712 63.124 210.768 62.98 210.88 62.868C210.992 62.748 211.136 62.688 211.312 62.688C211.48 62.688 211.62 62.748 211.732 62.868C211.852 62.98 211.912 63.124 211.912 63.3V64.008L211.684 64.14C211.74 63.964 211.832 63.784 211.96 63.6C212.088 63.416 212.248 63.248 212.44 63.096C212.64 62.944 212.86 62.82 213.1 62.724C213.34 62.628 213.6 62.58 213.88 62.58ZM224.68 69.12C224.016 69.12 223.44 68.984 222.952 68.712C222.464 68.432 222.084 68.052 221.812 67.572C221.548 67.084 221.416 66.528 221.416 65.904C221.416 65.2 221.556 64.6 221.836 64.104C222.124 63.6 222.496 63.216 222.952 62.952C223.408 62.68 223.892 62.544 224.404 62.544C224.796 62.544 225.168 62.624 225.52 62.784C225.872 62.936 226.184 63.152 226.456 63.432C226.736 63.704 226.956 64.028 227.116 64.404C227.276 64.772 227.36 65.176 227.368 65.616C227.36 65.776 227.296 65.908 227.176 66.012C227.056 66.116 226.916 66.168 226.756 66.168H222.088L221.8 65.148H226.312L226.084 65.364V65.064C226.068 64.784 225.976 64.54 225.808 64.332C225.64 64.116 225.432 63.952 225.184 63.84C224.936 63.72 224.676 63.66 224.404 63.66C224.164 63.66 223.932 63.7 223.708 63.78C223.492 63.852 223.296 63.972 223.12 64.14C222.952 64.308 222.816 64.532 222.712 64.812C222.616 65.084 222.568 65.424 222.568 65.832C222.568 66.272 222.66 66.656 222.844 66.984C223.028 67.312 223.276 67.568 223.588 67.752C223.9 67.928 224.244 68.016 224.62 68.016C224.916 68.016 225.16 67.988 225.352 67.932C225.544 67.868 225.704 67.792 225.832 67.704C225.96 67.616 226.072 67.532 226.168 67.452C226.288 67.38 226.408 67.344 226.528 67.344C226.672 67.344 226.792 67.396 226.888 67.5C226.984 67.596 227.032 67.712 227.032 67.848C227.032 68.024 226.944 68.184 226.768 68.328C226.552 68.536 226.252 68.72 225.868 68.88C225.492 69.04 225.096 69.12 224.68 69.12ZM233.943 62.592C234.119 62.592 234.263 62.652 234.375 62.772C234.487 62.884 234.543 63.028 234.543 63.204V68.388C234.543 68.564 234.487 68.712 234.375 68.832C234.263 68.944 234.119 69 233.943 69C233.775 69 233.631 68.944 233.511 68.832C233.399 68.712 233.343 68.564 233.343 68.388V67.524L233.595 67.56C233.595 67.704 233.535 67.864 233.415 68.04C233.303 68.216 233.147 68.388 232.947 68.556C232.747 68.716 232.511 68.852 232.239 68.964C231.967 69.068 231.675 69.12 231.363 69.12C230.811 69.12 230.315 68.98 229.875 68.7C229.435 68.412 229.087 68.02 228.831 67.524C228.575 67.028 228.447 66.464 228.447 65.832C228.447 65.184 228.575 64.616 228.831 64.128C229.087 63.632 229.431 63.244 229.863 62.964C230.303 62.684 230.791 62.544 231.327 62.544C231.671 62.544 231.987 62.6 232.275 62.712C232.571 62.824 232.827 62.968 233.043 63.144C233.259 63.32 233.423 63.508 233.535 63.708C233.655 63.9 233.715 64.084 233.715 64.26L233.343 64.296V63.204C233.343 63.036 233.399 62.892 233.511 62.772C233.631 62.652 233.775 62.592 233.943 62.592ZM231.495 68.016C231.871 68.016 232.203 67.92 232.491 67.728C232.779 67.536 233.003 67.276 233.163 66.948C233.323 66.612 233.403 66.24 233.403 65.832C233.403 65.416 233.323 65.044 233.163 64.716C233.003 64.388 232.779 64.128 232.491 63.936C232.203 63.744 231.871 63.648 231.495 63.648C231.127 63.648 230.799 63.744 230.511 63.936C230.231 64.128 230.007 64.388 229.839 64.716C229.679 65.044 229.599 65.416 229.599 65.832C229.599 66.24 229.679 66.612 229.839 66.948C230.007 67.276 230.231 67.536 230.511 67.728C230.799 67.92 231.127 68.016 231.495 68.016ZM237.52 68.388C237.52 68.564 237.46 68.712 237.34 68.832C237.228 68.944 237.088 69 236.92 69C236.752 69 236.608 68.944 236.488 68.832C236.376 68.712 236.32 68.564 236.32 68.388V60.732C236.32 60.556 236.38 60.412 236.5 60.3C236.62 60.18 236.764 60.12 236.932 60.12C237.108 60.12 237.248 60.18 237.352 60.3C237.464 60.412 237.52 60.556 237.52 60.732V68.388ZM245.826 62.58C246.386 62.58 246.882 62.72 247.314 63C247.754 63.28 248.102 63.664 248.358 64.152C248.614 64.632 248.742 65.192 248.742 65.832C248.742 66.472 248.614 67.04 248.358 67.536C248.102 68.024 247.758 68.408 247.326 68.688C246.894 68.968 246.406 69.108 245.862 69.108C245.558 69.108 245.27 69.06 244.998 68.964C244.726 68.868 244.486 68.744 244.278 68.592C244.07 68.432 243.898 68.264 243.762 68.088C243.634 67.912 243.554 67.748 243.522 67.596L243.846 67.44V70.788C243.846 70.964 243.786 71.108 243.666 71.22C243.554 71.34 243.414 71.4 243.246 71.4C243.07 71.4 242.926 71.34 242.814 71.22C242.702 71.108 242.646 70.964 242.646 70.788V63.276C242.646 63.108 242.702 62.964 242.814 62.844C242.926 62.724 243.07 62.664 243.246 62.664C243.414 62.664 243.554 62.724 243.666 62.844C243.786 62.964 243.846 63.108 243.846 63.276V64.104L243.654 63.996C243.678 63.844 243.754 63.688 243.882 63.528C244.01 63.36 244.17 63.204 244.362 63.06C244.562 62.916 244.786 62.8 245.034 62.712C245.29 62.624 245.554 62.58 245.826 62.58ZM245.694 63.684C245.31 63.684 244.974 63.78 244.686 63.972C244.406 64.156 244.186 64.408 244.026 64.728C243.866 65.048 243.786 65.416 243.786 65.832C243.786 66.24 243.866 66.612 244.026 66.948C244.186 67.276 244.406 67.536 244.686 67.728C244.974 67.912 245.31 68.004 245.694 68.004C246.07 68.004 246.398 67.912 246.678 67.728C246.958 67.536 247.178 67.276 247.338 66.948C247.506 66.612 247.59 66.24 247.59 65.832C247.59 65.424 247.506 65.06 247.338 64.74C247.178 64.412 246.958 64.156 246.678 63.972C246.398 63.78 246.07 63.684 245.694 63.684ZM250.699 69C250.523 69 250.379 68.944 250.267 68.832C250.155 68.712 250.099 68.564 250.099 68.388V63.3C250.099 63.124 250.155 62.98 250.267 62.868C250.379 62.748 250.523 62.688 250.699 62.688C250.867 62.688 251.007 62.748 251.119 62.868C251.239 62.98 251.299 63.124 251.299 63.3V64.644L251.179 64.128C251.243 63.904 251.339 63.696 251.467 63.504C251.603 63.312 251.763 63.144 251.947 63C252.131 62.856 252.335 62.744 252.559 62.664C252.791 62.584 253.031 62.544 253.279 62.544C253.487 62.544 253.667 62.6 253.819 62.712C253.971 62.824 254.047 62.964 254.047 63.132C254.047 63.348 253.991 63.508 253.879 63.612C253.767 63.708 253.643 63.756 253.507 63.756C253.387 63.756 253.271 63.732 253.159 63.684C253.047 63.628 252.915 63.6 252.763 63.6C252.595 63.6 252.423 63.644 252.247 63.732C252.071 63.82 251.911 63.952 251.767 64.128C251.623 64.296 251.507 64.496 251.419 64.728C251.339 64.96 251.299 65.22 251.299 65.508V68.388C251.299 68.564 251.239 68.712 251.119 68.832C251.007 68.944 250.867 69 250.699 69ZM257.785 69.12C257.121 69.12 256.545 68.984 256.057 68.712C255.569 68.432 255.189 68.052 254.917 67.572C254.653 67.084 254.521 66.528 254.521 65.904C254.521 65.2 254.661 64.6 254.941 64.104C255.229 63.6 255.601 63.216 256.057 62.952C256.513 62.68 256.997 62.544 257.509 62.544C257.901 62.544 258.273 62.624 258.625 62.784C258.977 62.936 259.289 63.152 259.561 63.432C259.841 63.704 260.061 64.028 260.221 64.404C260.381 64.772 260.465 65.176 260.473 65.616C260.465 65.776 260.401 65.908 260.281 66.012C260.161 66.116 260.021 66.168 259.861 66.168H255.193L254.905 65.148H259.417L259.189 65.364V65.064C259.173 64.784 259.081 64.54 258.913 64.332C258.745 64.116 258.537 63.952 258.289 63.84C258.041 63.72 257.781 63.66 257.509 63.66C257.269 63.66 257.037 63.7 256.813 63.78C256.597 63.852 256.401 63.972 256.225 64.14C256.057 64.308 255.921 64.532 255.817 64.812C255.721 65.084 255.673 65.424 255.673 65.832C255.673 66.272 255.765 66.656 255.949 66.984C256.133 67.312 256.381 67.568 256.693 67.752C257.005 67.928 257.349 68.016 257.725 68.016C258.021 68.016 258.265 67.988 258.457 67.932C258.649 67.868 258.809 67.792 258.937 67.704C259.065 67.616 259.177 67.532 259.273 67.452C259.393 67.38 259.513 67.344 259.633 67.344C259.777 67.344 259.897 67.396 259.993 67.5C260.089 67.596 260.137 67.712 260.137 67.848C260.137 68.024 260.049 68.184 259.873 68.328C259.657 68.536 259.357 68.72 258.973 68.88C258.597 69.04 258.201 69.12 257.785 69.12ZM265.01 62.58C265.57 62.58 266.066 62.72 266.498 63C266.938 63.28 267.286 63.664 267.542 64.152C267.798 64.632 267.926 65.192 267.926 65.832C267.926 66.472 267.798 67.04 267.542 67.536C267.286 68.024 266.942 68.408 266.51 68.688C266.078 68.968 265.59 69.108 265.046 69.108C264.742 69.108 264.454 69.06 264.182 68.964C263.91 68.868 263.67 68.744 263.462 68.592C263.254 68.432 263.082 68.264 262.946 68.088C262.818 67.912 262.738 67.748 262.706 67.596L263.03 67.44V70.788C263.03 70.964 262.97 71.108 262.85 71.22C262.738 71.34 262.598 71.4 262.43 71.4C262.254 71.4 262.11 71.34 261.998 71.22C261.886 71.108 261.83 70.964 261.83 70.788V63.276C261.83 63.108 261.886 62.964 261.998 62.844C262.11 62.724 262.254 62.664 262.43 62.664C262.598 62.664 262.738 62.724 262.85 62.844C262.97 62.964 263.03 63.108 263.03 63.276V64.104L262.838 63.996C262.862 63.844 262.938 63.688 263.066 63.528C263.194 63.36 263.354 63.204 263.546 63.06C263.746 62.916 263.97 62.8 264.218 62.712C264.474 62.624 264.738 62.58 265.01 62.58ZM264.878 63.684C264.494 63.684 264.158 63.78 263.87 63.972C263.59 64.156 263.37 64.408 263.21 64.728C263.05 65.048 262.97 65.416 262.97 65.832C262.97 66.24 263.05 66.612 263.21 66.948C263.37 67.276 263.59 67.536 263.87 67.728C264.158 67.912 264.494 68.004 264.878 68.004C265.254 68.004 265.582 67.912 265.862 67.728C266.142 67.536 266.362 67.276 266.522 66.948C266.69 66.612 266.774 66.24 266.774 65.832C266.774 65.424 266.69 65.06 266.522 64.74C266.362 64.412 266.142 64.156 265.862 63.972C265.582 63.78 265.254 63.684 264.878 63.684ZM273.835 65.124C273.835 64.956 273.891 64.812 274.003 64.692C274.123 64.572 274.267 64.512 274.435 64.512C274.779 64.504 275.087 64.44 275.359 64.32C275.631 64.2 275.847 64.02 276.007 63.78C276.167 63.54 276.247 63.24 276.247 62.88C276.247 62.568 276.175 62.3 276.031 62.076C275.895 61.844 275.707 61.664 275.467 61.536C275.227 61.4 274.955 61.332 274.651 61.332C274.387 61.332 274.143 61.384 273.919 61.488C273.695 61.592 273.495 61.728 273.319 61.896C273.215 61.992 273.087 62.064 272.935 62.112C272.791 62.152 272.643 62.116 272.491 62.004C272.331 61.892 272.243 61.752 272.227 61.584C272.211 61.416 272.271 61.26 272.407 61.116C272.679 60.812 273.011 60.572 273.403 60.396C273.795 60.22 274.211 60.132 274.651 60.132C275.171 60.132 275.643 60.252 276.067 60.492C276.491 60.732 276.827 61.056 277.075 61.464C277.323 61.872 277.447 62.344 277.447 62.88C277.447 63.248 277.387 63.584 277.267 63.888C277.147 64.192 276.975 64.456 276.751 64.68C276.527 64.904 276.267 65.084 275.971 65.22C275.683 65.356 275.367 65.444 275.023 65.484C275.007 65.492 274.999 65.496 274.999 65.496C275.007 65.496 275.019 65.496 275.035 65.496V66.216C275.035 66.384 274.975 66.528 274.855 66.648C274.743 66.76 274.603 66.816 274.435 66.816C274.259 66.816 274.115 66.76 274.003 66.648C273.891 66.528 273.835 66.384 273.835 66.216V65.124ZM274.399 69C274.199 69 274.043 68.944 273.931 68.832C273.827 68.72 273.775 68.564 273.775 68.364V68.148C273.775 67.94 273.827 67.784 273.931 67.68C274.043 67.568 274.199 67.512 274.399 67.512H274.519C274.727 67.512 274.883 67.568 274.987 67.68C275.091 67.784 275.143 67.94 275.143 68.148V68.364C275.143 68.564 275.091 68.72 274.987 68.832C274.883 68.944 274.727 69 274.519 69H274.399Z" fill="black"/>
<path d="M88.9605 44.7622C87.7348 42.7038 84.6911 39.2854 77.9582 39.2854C77.8479 39.2854 77.7335 39.2854 77.6232 39.2854C73.0964 39.3589 69.1049 40.7516 65.9918 42.2546C66.0571 39.5672 66.098 36.5695 66.1388 33.6044C66.2451 25.6037 63.4506 18.1216 58.4703 13.0777C53.8946 8.44638 47.705 6 40.5595 6C25.2307 6 14.1017 17.5253 14.1017 33.4084V91.7947C13.3337 91.8192 12.5084 91.8846 11.6627 92.0071C6.05737 92.8158 2.11486 95.8176 0.562366 100.465C-0.732739 104.341 0.251868 108.597 3.07495 111.3C4.93386 113.077 7.34022 114 9.9386 114C11.3644 114 12.8475 113.722 14.3224 113.159C20.8714 110.655 21.9214 104.272 22.0889 100.139L61.8858 99.4238C62.9971 99.4034 64.0511 98.9337 64.807 98.121C65.5628 97.3083 65.955 96.2219 65.8937 95.1151C65.7466 92.4972 65.4729 85.0478 65.9672 82.0296C67.3114 73.7961 72.647 70.1817 78.3014 66.3589C82.3093 63.6471 86.4561 60.8372 88.9809 56.3856C91.0237 52.7834 91.0155 48.2296 88.9646 44.7785L88.9605 44.7622ZM11.4012 105.521C10.723 105.783 9.47286 106.11 8.72929 105.395C8.17775 104.868 8.01433 103.945 8.31257 103.051C9.07248 100.784 11.679 100.118 13.9056 99.9834C13.7626 102.965 13.1743 104.843 11.4012 105.521ZM81.868 52.3423C80.2869 55.1318 77.2391 57.1942 73.7134 59.5793C68.1366 63.353 61.3343 67.9599 58.6378 77.386C55.3572 76.7162 52.9181 74.6211 52.9059 74.6088C51.2267 73.1018 48.6447 73.2366 47.1371 74.9151C45.6296 76.5937 45.7644 79.1749 47.4436 80.6819C47.656 80.8738 51.7211 84.4597 57.5388 85.4889C57.4898 87.4697 57.5143 89.5566 57.5634 91.3251L22.2768 91.9581V33.4084C22.2768 27.5641 24.1603 22.6345 27.7187 19.1549C31.0116 15.9366 35.5752 14.1682 40.5676 14.1682C45.5601 14.1682 49.613 15.7324 52.6607 18.8159C56.1171 22.316 58.0536 27.6662 57.976 33.4983C57.8984 39.4733 57.7921 46.0977 57.5307 49.1281C57.4122 50.5167 58.0087 51.8686 59.1158 52.714C60.223 53.5635 61.6815 53.7881 62.993 53.3143C63.6998 53.0611 64.3412 52.6527 65.3095 52.0401C67.7935 50.4677 72.4223 47.5435 77.7662 47.4536C79.2451 47.421 81.1939 47.666 81.9457 48.9321C82.5421 49.9368 82.3787 51.4561 81.8762 52.3423H81.868Z" fill="#FFFCED"/>
<path d="M52.8851 39.641C49.4247 36.5698 44.6978 35.3772 40.2323 36.4473C35.8404 37.501 32.3677 40.5355 30.7008 44.7788C29.8756 46.8781 30.9092 49.2468 33.0091 50.0718C33.4994 50.2638 34.006 50.3577 34.5044 50.3577C36.1345 50.3577 37.6748 49.3734 38.308 47.7684C39.2354 45.4078 41.1066 44.64 42.1402 44.3949C44.0073 43.9457 46.0011 44.4562 47.4677 45.7549C49.1551 47.2538 51.7371 47.0986 53.2365 45.4119C54.7359 43.7251 54.5806 41.144 52.8933 39.6451L52.8851 39.641Z" fill="#FFFCED"/>
</svg>
