<svg width="572" height="257" viewBox="0 0 572 257" fill="none" xmlns="http://www.w3.org/2000/svg">
<path d="M211.693 92.2397C208.776 87.3415 201.534 79.207 185.512 79.207C185.249 79.207 184.977 79.207 184.714 79.207C173.942 79.3819 164.444 82.696 157.036 86.2725C157.191 79.8776 157.289 72.7441 157.386 65.6884C157.639 46.6495 150.989 28.845 139.138 16.8424C128.249 5.82147 113.52 0 96.5165 0C60.0396 0 33.5569 27.426 33.5569 65.2219V204.16C31.7292 204.218 29.7653 204.373 27.7529 204.665C14.4143 206.589 5.03258 213.733 1.33822 224.792C-1.74365 234.015 0.599352 244.142 7.31725 250.576C11.7408 254.804 17.467 257 23.6502 257C27.0432 257 30.5723 256.339 34.0819 254.998C49.6663 249.04 52.1648 233.85 52.5634 224.015L147.265 222.314C149.91 222.266 152.418 221.148 154.217 219.214C156.015 217.28 156.948 214.695 156.803 212.061C156.453 205.831 155.801 188.104 156.978 180.922C160.176 161.33 172.873 152.729 186.328 143.632C195.866 137.179 205.733 130.492 211.742 119.899C216.603 111.327 216.583 100.491 211.703 92.2786L211.693 92.2397ZM27.1307 236.824C25.5168 237.446 22.5419 238.224 20.7725 236.523C19.46 235.269 19.0711 233.073 19.7808 230.944C21.5891 225.55 27.7918 223.966 33.0903 223.646C32.75 230.74 31.35 235.211 27.1307 236.824ZM194.816 110.278C191.053 116.915 183.801 121.823 175.411 127.499C162.14 136.479 145.953 147.442 139.536 169.872C131.73 168.278 125.926 163.293 125.896 163.264C121.901 159.677 115.756 159.998 112.169 163.993C108.582 167.987 108.902 174.129 112.898 177.715C113.404 178.172 123.077 186.705 136.921 189.154C136.804 193.868 136.863 198.834 136.979 203.042L53.0106 204.548V65.2219C53.0106 51.3145 57.4925 39.5841 65.9603 31.3038C73.7962 23.6455 84.6557 19.4373 96.536 19.4373C108.416 19.4373 118.06 23.1595 125.313 30.4971C133.538 38.826 138.146 51.5574 137.961 65.4357C137.777 79.6541 137.524 95.4177 136.902 102.629C136.62 105.933 138.039 109.15 140.674 111.162C143.308 113.183 146.779 113.718 149.9 112.591C151.582 111.988 153.108 111.016 155.412 109.558C161.323 105.817 172.338 98.8581 185.055 98.6443C188.574 98.5666 193.211 99.1497 195 102.162C196.42 104.553 196.031 108.169 194.835 110.278H194.816Z" fill="#FFFCED"/>
<path d="M125.849 80.0522C117.614 72.7438 106.366 69.9059 95.7396 72.4522C85.2885 74.9596 77.0248 82.1806 73.0582 92.2783C71.0944 97.2737 73.554 102.91 78.5512 104.874C79.7178 105.33 80.9233 105.554 82.1094 105.554C85.9885 105.554 89.6537 103.212 91.1606 99.3923C93.3675 93.7749 97.8201 91.9478 100.28 91.3647C104.723 90.2957 109.467 91.5105 112.957 94.601C116.972 98.1678 123.117 97.7985 126.685 93.7847C130.253 89.7709 129.883 83.6287 125.868 80.0619L125.849 80.0522Z" fill="#FFFCED"/>
<path d="M250.124 46.8811V46.9659L250.114 47.0502L249.142 55.6225C249.141 55.6559 249.149 55.6699 249.153 55.6768C249.16 55.6906 249.177 55.7105 249.206 55.7267C249.235 55.7429 249.261 55.7469 249.277 55.7463C249.286 55.746 249.305 55.7449 249.341 55.7187L250.695 54.7359C251.36 54.2523 252.162 53.9919 252.985 53.9919H368.192C373.991 53.9919 378.692 49.2909 378.692 43.4919V12C378.692 6.201 373.991 1.5 368.192 1.5H260.624C254.825 1.5 250.124 6.20101 250.124 12V46.8811Z" fill="#FFFCED" stroke="#FFFCED" stroke-width="3"/>
<path d="M277.531 20.9473C278.757 20.9473 279.684 21.2473 280.311 21.8473C280.951 22.4473 281.271 23.3206 281.271 24.4673C281.271 25.0673 281.124 25.6139 280.831 26.1073C280.551 26.5873 280.131 26.9673 279.571 27.2473C279.024 27.5273 278.337 27.6739 277.511 27.6873L277.551 26.9473C277.991 26.9473 278.464 27.0073 278.971 27.1273C279.491 27.2473 279.977 27.4539 280.431 27.7473C280.884 28.0406 281.257 28.4406 281.551 28.9473C281.844 29.4406 281.991 30.0606 281.991 30.8073C281.991 31.6206 281.857 32.3006 281.591 32.8473C281.324 33.3806 280.971 33.8006 280.531 34.1073C280.091 34.4139 279.604 34.6339 279.071 34.7673C278.551 34.8873 278.037 34.9473 277.531 34.9473H272.411C272.131 34.9473 271.891 34.8539 271.691 34.6673C271.491 34.4673 271.391 34.2206 271.391 33.9273V21.9673C271.391 21.6739 271.491 21.4339 271.691 21.2473C271.891 21.0473 272.131 20.9473 272.411 20.9473H277.531ZM277.251 22.9073H273.311L273.551 22.5873V26.8873L273.331 26.6673H277.291C277.771 26.6539 278.191 26.4939 278.551 26.1873C278.924 25.8673 279.111 25.4006 279.111 24.7873C279.111 24.1606 278.944 23.6939 278.611 23.3873C278.277 23.0673 277.824 22.9073 277.251 22.9073ZM277.391 28.6273H273.411L273.551 28.4873V33.2073L273.391 33.0273H277.511C278.204 33.0273 278.764 32.8473 279.191 32.4873C279.617 32.1139 279.831 31.5539 279.831 30.8073C279.831 30.1806 279.704 29.7139 279.451 29.4073C279.197 29.1006 278.884 28.8939 278.511 28.7873C278.137 28.6806 277.764 28.6273 277.391 28.6273ZM294.317 29.6873C294.317 30.7539 294.084 31.7006 293.617 32.5273C293.15 33.3406 292.517 33.9806 291.717 34.4473C290.917 34.9139 290.017 35.1473 289.017 35.1473C288.017 35.1473 287.117 34.9139 286.317 34.4473C285.517 33.9806 284.877 33.3406 284.397 32.5273C283.93 31.7006 283.697 30.7539 283.697 29.6873C283.697 28.6073 283.93 27.6606 284.397 26.8473C284.877 26.0206 285.517 25.3739 286.317 24.9073C287.117 24.4273 288.017 24.1873 289.017 24.1873C290.017 24.1873 290.917 24.4273 291.717 24.9073C292.517 25.3739 293.15 26.0206 293.617 26.8473C294.084 27.6606 294.317 28.6073 294.317 29.6873ZM292.317 29.6873C292.317 28.9539 292.17 28.3206 291.877 27.7873C291.584 27.2406 291.184 26.8139 290.677 26.5073C290.184 26.1873 289.63 26.0273 289.017 26.0273C288.404 26.0273 287.844 26.1873 287.337 26.5073C286.83 26.8139 286.43 27.2406 286.137 27.7873C285.844 28.3206 285.697 28.9539 285.697 29.6873C285.697 30.3939 285.844 31.0206 286.137 31.5673C286.43 32.1139 286.83 32.5406 287.337 32.8473C287.844 33.1539 288.404 33.3073 289.017 33.3073C289.63 33.3073 290.184 33.1539 290.677 32.8473C291.184 32.5406 291.584 32.1139 291.877 31.5673C292.17 31.0206 292.317 30.3939 292.317 29.6873ZM302.001 24.1873C302.947 24.1873 303.681 24.3873 304.201 24.7873C304.721 25.1739 305.081 25.7006 305.281 26.3673C305.494 27.0206 305.601 27.7539 305.601 28.5673V33.9273C305.601 34.2206 305.501 34.4673 305.301 34.6673C305.114 34.8539 304.881 34.9473 304.601 34.9473C304.307 34.9473 304.067 34.8539 303.881 34.6673C303.694 34.4673 303.601 34.2206 303.601 33.9273V28.5873C303.601 28.1073 303.534 27.6806 303.401 27.3073C303.267 26.9206 303.034 26.6139 302.701 26.3873C302.381 26.1473 301.927 26.0273 301.341 26.0273C300.794 26.0273 300.314 26.1473 299.901 26.3873C299.487 26.6139 299.161 26.9206 298.921 27.3073C298.694 27.6806 298.581 28.1073 298.581 28.5873V33.9273C298.581 34.2206 298.481 34.4673 298.281 34.6673C298.094 34.8539 297.861 34.9473 297.581 34.9473C297.287 34.9473 297.047 34.8539 296.861 34.6673C296.674 34.4673 296.581 34.2206 296.581 33.9273V25.4473C296.581 25.1539 296.674 24.9139 296.861 24.7273C297.047 24.5273 297.287 24.4273 297.581 24.4273C297.861 24.4273 298.094 24.5273 298.281 24.7273C298.481 24.9139 298.581 25.1539 298.581 25.4473V26.5673L298.221 26.7673C298.314 26.4739 298.474 26.1806 298.701 25.8873C298.941 25.5806 299.227 25.3006 299.561 25.0473C299.894 24.7806 300.267 24.5739 300.681 24.4273C301.094 24.2673 301.534 24.1873 302.001 24.1873ZM310.658 35.3873C310.658 36.1073 310.511 36.7273 310.218 37.2473C309.924 37.7673 309.538 38.1673 309.058 38.4473C308.578 38.7273 308.064 38.8673 307.518 38.8673C307.238 38.8673 307.011 38.7739 306.838 38.5873C306.664 38.4139 306.578 38.2006 306.578 37.9473V37.7673C306.578 37.5273 306.664 37.3339 306.838 37.1873C306.998 37.0406 307.198 36.9273 307.438 36.8473C307.744 36.7539 307.984 36.6139 308.158 36.4273C308.344 36.2539 308.471 36.0273 308.538 35.7473C308.618 35.4806 308.658 35.1873 308.658 34.8673V25.4273C308.658 25.1473 308.751 24.9139 308.938 24.7273C309.124 24.5273 309.364 24.4273 309.658 24.4273C309.951 24.4273 310.191 24.5273 310.378 24.7273C310.564 24.9139 310.658 25.1473 310.658 25.4273V35.3873ZM309.618 23.0273C309.231 23.0273 308.951 22.9606 308.778 22.8273C308.604 22.6806 308.518 22.4406 308.518 22.1073V21.7873C308.518 21.4539 308.611 21.2206 308.798 21.0873C308.984 20.9539 309.264 20.8873 309.638 20.8873C310.038 20.8873 310.324 20.9606 310.498 21.1073C310.671 21.2406 310.758 21.4673 310.758 21.7873V22.1073C310.758 22.4539 310.664 22.6939 310.478 22.8273C310.304 22.9606 310.018 23.0273 309.618 23.0273ZM323.926 29.6873C323.926 30.7539 323.693 31.7006 323.226 32.5273C322.76 33.3406 322.126 33.9806 321.326 34.4473C320.526 34.9139 319.626 35.1473 318.626 35.1473C317.626 35.1473 316.726 34.9139 315.926 34.4473C315.126 33.9806 314.486 33.3406 314.006 32.5273C313.54 31.7006 313.306 30.7539 313.306 29.6873C313.306 28.6073 313.54 27.6606 314.006 26.8473C314.486 26.0206 315.126 25.3739 315.926 24.9073C316.726 24.4273 317.626 24.1873 318.626 24.1873C319.626 24.1873 320.526 24.4273 321.326 24.9073C322.126 25.3739 322.76 26.0206 323.226 26.8473C323.693 27.6606 323.926 28.6073 323.926 29.6873ZM321.926 29.6873C321.926 28.9539 321.78 28.3206 321.486 27.7873C321.193 27.2406 320.793 26.8139 320.286 26.5073C319.793 26.1873 319.24 26.0273 318.626 26.0273C318.013 26.0273 317.453 26.1873 316.946 26.5073C316.44 26.8139 316.04 27.2406 315.746 27.7873C315.453 28.3206 315.306 28.9539 315.306 29.6873C315.306 30.3939 315.453 31.0206 315.746 31.5673C316.04 32.1139 316.44 32.5406 316.946 32.8473C317.453 33.1539 318.013 33.3073 318.626 33.3073C319.24 33.3073 319.793 33.1539 320.286 32.8473C320.793 32.5406 321.193 32.1139 321.486 31.5673C321.78 31.0206 321.926 30.3939 321.926 29.6873ZM334.03 24.4273C334.31 24.4273 334.543 24.5273 334.73 24.7273C334.93 24.9139 335.03 25.1539 335.03 25.4473V30.7073C335.03 32.0939 334.643 33.1806 333.87 33.9673C333.097 34.7406 332.003 35.1273 330.59 35.1273C329.19 35.1273 328.103 34.7406 327.33 33.9673C326.57 33.1806 326.19 32.0939 326.19 30.7073V25.4473C326.19 25.1539 326.283 24.9139 326.47 24.7273C326.657 24.5273 326.897 24.4273 327.19 24.4273C327.47 24.4273 327.703 24.5273 327.89 24.7273C328.09 24.9139 328.19 25.1539 328.19 25.4473V30.7073C328.19 31.5739 328.39 32.2206 328.79 32.6473C329.203 33.0739 329.803 33.2873 330.59 33.2873C331.39 33.2873 331.997 33.0739 332.41 32.6473C332.823 32.2206 333.03 31.5739 333.03 30.7073V25.4473C333.03 25.1539 333.123 24.9139 333.31 24.7273C333.497 24.5273 333.737 24.4273 334.03 24.4273ZM338.811 34.9473C338.518 34.9473 338.278 34.8539 338.091 34.6673C337.904 34.4673 337.811 34.2206 337.811 33.9273V25.4473C337.811 25.1539 337.904 24.9139 338.091 24.7273C338.278 24.5273 338.518 24.4273 338.811 24.4273C339.091 24.4273 339.324 24.5273 339.511 24.7273C339.711 24.9139 339.811 25.1539 339.811 25.4473V27.6873L339.611 26.8273C339.718 26.4539 339.878 26.1073 340.091 25.7873C340.318 25.4673 340.584 25.1873 340.891 24.9473C341.198 24.7073 341.538 24.5206 341.911 24.3873C342.298 24.2539 342.698 24.1873 343.111 24.1873C343.458 24.1873 343.758 24.2806 344.011 24.4673C344.264 24.6539 344.391 24.8873 344.391 25.1673C344.391 25.5273 344.298 25.7939 344.111 25.9673C343.924 26.1273 343.718 26.2073 343.491 26.2073C343.291 26.2073 343.098 26.1673 342.911 26.0873C342.724 25.9939 342.504 25.9473 342.251 25.9473C341.971 25.9473 341.684 26.0206 341.391 26.1673C341.098 26.3139 340.831 26.5339 340.591 26.8273C340.351 27.1073 340.158 27.4406 340.011 27.8273C339.878 28.2139 339.811 28.6473 339.811 29.1273V33.9273C339.811 34.2206 339.711 34.4673 339.511 34.6673C339.324 34.8539 339.091 34.9473 338.811 34.9473ZM352.737 30.6873C352.35 30.6873 352.144 30.4739 352.117 30.0473L351.657 22.1873C351.63 21.8406 351.717 21.5473 351.917 21.3073C352.117 21.0673 352.39 20.9473 352.737 20.9473C353.07 20.9473 353.337 21.0673 353.537 21.3073C353.75 21.5473 353.837 21.8406 353.797 22.1873L353.357 30.0473C353.33 30.4739 353.124 30.6873 352.737 30.6873ZM352.637 34.9473C352.304 34.9473 352.044 34.8539 351.857 34.6673C351.684 34.4806 351.597 34.2206 351.597 33.8873V33.5273C351.597 33.1806 351.684 32.9206 351.857 32.7473C352.044 32.5606 352.304 32.4673 352.637 32.4673H352.837C353.184 32.4673 353.444 32.5606 353.617 32.7473C353.79 32.9206 353.877 33.1806 353.877 33.5273V33.8873C353.877 34.2206 353.79 34.4806 353.617 34.6673C353.444 34.8539 353.184 34.9473 352.837 34.9473H352.637Z" fill="#24376E"/>
<path d="M559.375 78.5H262.421C256.622 78.5 251.921 83.201 251.921 89V118.959C251.921 120.26 251.733 121.554 251.362 122.801L249.5 129.073C249.455 129.453 249.811 129.767 250.189 129.662L257.85 127.536C258.583 127.333 259.341 127.23 260.102 127.23H559.375C565.174 127.23 569.875 122.529 569.875 116.73V89C569.875 83.201 565.174 78.5 559.375 78.5Z" fill="#FFFCED" stroke="#FFFCED" stroke-width="3"/>
<path d="M291.161 100.58C291.161 101.593 290.994 102.54 290.661 103.42C290.328 104.287 289.854 105.047 289.241 105.7C288.641 106.353 287.928 106.867 287.101 107.24C286.274 107.6 285.368 107.78 284.381 107.78C283.408 107.78 282.508 107.6 281.681 107.24C280.854 106.867 280.134 106.353 279.521 105.7C278.921 105.047 278.454 104.287 278.121 103.42C277.801 102.54 277.641 101.593 277.641 100.58C277.641 99.5667 277.801 98.6267 278.121 97.7601C278.454 96.8801 278.921 96.1134 279.521 95.4601C280.134 94.8067 280.854 94.3001 281.681 93.9401C282.508 93.5667 283.408 93.3801 284.381 93.3801C285.368 93.3801 286.274 93.5667 287.101 93.9401C287.928 94.3001 288.641 94.8067 289.241 95.4601C289.854 96.1134 290.328 96.8801 290.661 97.7601C290.994 98.6267 291.161 99.5667 291.161 100.58ZM289.001 100.58C289.001 99.5934 288.801 98.7067 288.401 97.9201C288.014 97.1334 287.474 96.5134 286.781 96.0601C286.088 95.6067 285.288 95.3801 284.381 95.3801C283.488 95.3801 282.694 95.6067 282.001 96.0601C281.308 96.5134 280.768 97.1334 280.381 97.9201C279.994 98.6934 279.801 99.5801 279.801 100.58C279.801 101.567 279.994 102.453 280.381 103.24C280.768 104.027 281.308 104.647 282.001 105.1C282.694 105.553 283.488 105.78 284.381 105.78C285.288 105.78 286.088 105.553 286.781 105.1C287.474 104.647 288.014 104.027 288.401 103.24C288.801 102.453 289.001 101.567 289.001 100.58ZM298.816 96.8201C299.763 96.8201 300.496 97.0201 301.016 97.4201C301.536 97.8067 301.896 98.3334 302.096 99.0001C302.309 99.6534 302.416 100.387 302.416 101.2V106.56C302.416 106.853 302.316 107.1 302.116 107.3C301.929 107.487 301.696 107.58 301.416 107.58C301.123 107.58 300.883 107.487 300.696 107.3C300.509 107.1 300.416 106.853 300.416 106.56V101.22C300.416 100.74 300.349 100.313 300.216 99.9401C300.083 99.5534 299.849 99.2467 299.516 99.0201C299.196 98.7801 298.743 98.6601 298.156 98.6601C297.609 98.6601 297.129 98.7801 296.716 99.0201C296.303 99.2467 295.976 99.5534 295.736 99.9401C295.509 100.313 295.396 100.74 295.396 101.22V106.56C295.396 106.853 295.296 107.1 295.096 107.3C294.909 107.487 294.676 107.58 294.396 107.58C294.103 107.58 293.863 107.487 293.676 107.3C293.489 107.1 293.396 106.853 293.396 106.56V98.0801C293.396 97.7867 293.489 97.5467 293.676 97.3601C293.863 97.1601 294.103 97.0601 294.396 97.0601C294.676 97.0601 294.909 97.1601 295.096 97.3601C295.296 97.5467 295.396 97.7867 295.396 98.0801V99.2001L295.036 99.4001C295.129 99.1067 295.289 98.8134 295.516 98.5201C295.756 98.2134 296.043 97.9334 296.376 97.6801C296.709 97.4134 297.083 97.2067 297.496 97.0601C297.909 96.9001 298.349 96.8201 298.816 96.8201ZM316.059 96.8801C316.992 96.8801 317.819 97.1134 318.539 97.5801C319.272 98.0467 319.852 98.6867 320.279 99.5001C320.706 100.3 320.919 101.233 320.919 102.3C320.919 103.367 320.706 104.313 320.279 105.14C319.852 105.953 319.279 106.593 318.559 107.06C317.839 107.527 317.026 107.76 316.119 107.76C315.612 107.76 315.132 107.68 314.679 107.52C314.226 107.36 313.826 107.153 313.479 106.9C313.132 106.633 312.846 106.353 312.619 106.06C312.406 105.767 312.272 105.493 312.219 105.24L312.759 104.98V110.56C312.759 110.853 312.659 111.093 312.459 111.28C312.272 111.48 312.039 111.58 311.759 111.58C311.466 111.58 311.226 111.48 311.039 111.28C310.852 111.093 310.759 110.853 310.759 110.56V98.0401C310.759 97.7601 310.852 97.5201 311.039 97.3201C311.226 97.1201 311.466 97.0201 311.759 97.0201C312.039 97.0201 312.272 97.1201 312.459 97.3201C312.659 97.5201 312.759 97.7601 312.759 98.0401V99.4201L312.439 99.2401C312.479 98.9867 312.606 98.7267 312.819 98.4601C313.032 98.1801 313.299 97.9201 313.619 97.6801C313.952 97.4401 314.326 97.2467 314.739 97.1001C315.166 96.9534 315.606 96.8801 316.059 96.8801ZM315.839 98.7201C315.199 98.7201 314.639 98.8801 314.159 99.2001C313.692 99.5067 313.326 99.9267 313.059 100.46C312.792 100.993 312.659 101.607 312.659 102.3C312.659 102.98 312.792 103.6 313.059 104.16C313.326 104.707 313.692 105.14 314.159 105.46C314.639 105.767 315.199 105.92 315.839 105.92C316.466 105.92 317.012 105.767 317.479 105.46C317.946 105.14 318.312 104.707 318.579 104.16C318.859 103.6 318.999 102.98 318.999 102.3C318.999 101.62 318.859 101.013 318.579 100.48C318.312 99.9334 317.946 99.5067 317.479 99.2001C317.012 98.8801 316.466 98.7201 315.839 98.7201ZM325.341 106.56C325.341 106.853 325.241 107.1 325.041 107.3C324.854 107.487 324.621 107.58 324.341 107.58C324.061 107.58 323.821 107.487 323.621 107.3C323.434 107.1 323.341 106.853 323.341 106.56V93.8001C323.341 93.5067 323.441 93.2667 323.641 93.0801C323.841 92.8801 324.081 92.7801 324.361 92.7801C324.654 92.7801 324.888 92.8801 325.061 93.0801C325.248 93.2667 325.341 93.5067 325.341 93.8001V106.56ZM336.938 96.9001C337.231 96.9001 337.471 97.0001 337.658 97.2001C337.844 97.3867 337.938 97.6267 337.938 97.9201V106.56C337.938 106.853 337.844 107.1 337.658 107.3C337.471 107.487 337.231 107.58 336.938 107.58C336.658 107.58 336.418 107.487 336.218 107.3C336.031 107.1 335.938 106.853 335.938 106.56V105.12L336.358 105.18C336.358 105.42 336.258 105.687 336.058 105.98C335.871 106.273 335.611 106.56 335.278 106.84C334.944 107.107 334.551 107.333 334.098 107.52C333.644 107.693 333.158 107.78 332.638 107.78C331.718 107.78 330.891 107.547 330.158 107.08C329.424 106.6 328.844 105.947 328.418 105.12C327.991 104.293 327.778 103.353 327.778 102.3C327.778 101.22 327.991 100.273 328.418 99.4601C328.844 98.6334 329.418 97.9867 330.138 97.5201C330.871 97.0534 331.684 96.8201 332.578 96.8201C333.151 96.8201 333.678 96.9134 334.158 97.1001C334.651 97.2867 335.078 97.5267 335.438 97.8201C335.798 98.1134 336.071 98.4267 336.258 98.7601C336.458 99.0801 336.558 99.3867 336.558 99.6801L335.938 99.7401V97.9201C335.938 97.6401 336.031 97.4001 336.218 97.2001C336.418 97.0001 336.658 96.9001 336.938 96.9001ZM332.858 105.94C333.484 105.94 334.038 105.78 334.518 105.46C334.998 105.14 335.371 104.707 335.638 104.16C335.904 103.6 336.038 102.98 336.038 102.3C336.038 101.607 335.904 100.987 335.638 100.44C335.371 99.8934 334.998 99.4601 334.518 99.1401C334.038 98.8201 333.484 98.6601 332.858 98.6601C332.244 98.6601 331.698 98.8201 331.218 99.1401C330.751 99.4601 330.378 99.8934 330.098 100.44C329.831 100.987 329.698 101.607 329.698 102.3C329.698 102.98 329.831 103.6 330.098 104.16C330.378 104.707 330.751 105.14 331.218 105.46C331.698 105.78 332.244 105.94 332.858 105.94ZM346.16 96.8201C347.106 96.8201 347.84 97.0201 348.36 97.4201C348.88 97.8067 349.24 98.3334 349.44 99.0001C349.653 99.6534 349.76 100.387 349.76 101.2V106.56C349.76 106.853 349.66 107.1 349.46 107.3C349.273 107.487 349.04 107.58 348.76 107.58C348.466 107.58 348.226 107.487 348.04 107.3C347.853 107.1 347.76 106.853 347.76 106.56V101.22C347.76 100.74 347.693 100.313 347.56 99.9401C347.426 99.5534 347.193 99.2467 346.86 99.0201C346.54 98.7801 346.086 98.6601 345.5 98.6601C344.953 98.6601 344.473 98.7801 344.06 99.0201C343.646 99.2467 343.32 99.5534 343.08 99.9401C342.853 100.313 342.74 100.74 342.74 101.22V106.56C342.74 106.853 342.64 107.1 342.44 107.3C342.253 107.487 342.02 107.58 341.74 107.58C341.446 107.58 341.206 107.487 341.02 107.3C340.833 107.1 340.74 106.853 340.74 106.56V98.0801C340.74 97.7867 340.833 97.5467 341.02 97.3601C341.206 97.1601 341.446 97.0601 341.74 97.0601C342.02 97.0601 342.253 97.1601 342.44 97.3601C342.64 97.5467 342.74 97.7867 342.74 98.0801V99.2001L342.38 99.4001C342.473 99.1067 342.633 98.8134 342.86 98.5201C343.1 98.2134 343.386 97.9334 343.72 97.6801C344.053 97.4134 344.426 97.2067 344.84 97.0601C345.253 96.9001 345.693 96.8201 346.16 96.8201ZM354.416 106.56C354.416 106.853 354.323 107.1 354.136 107.3C353.95 107.487 353.71 107.58 353.416 107.58C353.136 107.58 352.896 107.487 352.696 107.3C352.51 107.1 352.416 106.853 352.416 106.56V98.0001C352.416 97.7067 352.51 97.4667 352.696 97.2801C352.896 97.0801 353.136 96.9801 353.416 96.9801C353.71 96.9801 353.95 97.0801 354.136 97.2801C354.323 97.4667 354.416 97.7067 354.416 98.0001V106.56ZM353.396 95.6601C353.01 95.6601 352.73 95.5934 352.556 95.4601C352.383 95.3134 352.296 95.0734 352.296 94.7401V94.4201C352.296 94.0867 352.39 93.8534 352.576 93.7201C352.763 93.5867 353.043 93.5201 353.416 93.5201C353.816 93.5201 354.103 93.5934 354.276 93.7401C354.45 93.8734 354.536 94.1001 354.536 94.4201V94.7401C354.536 95.0867 354.443 95.3267 354.256 95.4601C354.083 95.5934 353.796 95.6601 353.396 95.6601ZM362.007 92.8001C362.26 92.8001 362.52 92.8334 362.787 92.9001C363.053 92.9667 363.273 93.0801 363.447 93.2401C363.633 93.3867 363.727 93.5934 363.727 93.8601C363.727 94.1267 363.647 94.3467 363.487 94.5201C363.327 94.6801 363.14 94.7601 362.927 94.7601C362.793 94.7601 362.613 94.7334 362.387 94.6801C362.16 94.6134 361.933 94.5801 361.707 94.5801C361.4 94.5801 361.153 94.6534 360.967 94.8001C360.78 94.9334 360.647 95.1067 360.567 95.3201C360.487 95.5201 360.447 95.7201 360.447 95.9201V106.56C360.447 106.853 360.347 107.1 360.147 107.3C359.96 107.487 359.727 107.58 359.447 107.58C359.153 107.58 358.913 107.487 358.727 107.3C358.54 107.1 358.447 106.853 358.447 106.56V95.9401C358.447 95.0201 358.747 94.2667 359.347 93.6801C359.96 93.0934 360.847 92.8001 362.007 92.8001ZM362.407 97.2401C362.673 97.2401 362.893 97.3267 363.067 97.5001C363.24 97.6734 363.327 97.8934 363.327 98.1601C363.327 98.4267 363.24 98.6467 363.067 98.8201C362.893 98.9934 362.673 99.0801 362.407 99.0801H357.227C356.973 99.0801 356.753 98.9934 356.567 98.8201C356.393 98.6467 356.307 98.4267 356.307 98.1601C356.307 97.8934 356.393 97.6734 356.567 97.5001C356.753 97.3267 356.973 97.2401 357.227 97.2401H362.407ZM367.207 106.56C367.207 106.853 367.113 107.1 366.927 107.3C366.74 107.487 366.5 107.58 366.207 107.58C365.927 107.58 365.687 107.487 365.487 107.3C365.3 107.1 365.207 106.853 365.207 106.56V98.0001C365.207 97.7067 365.3 97.4667 365.487 97.2801C365.687 97.0801 365.927 96.9801 366.207 96.9801C366.5 96.9801 366.74 97.0801 366.927 97.2801C367.113 97.4667 367.207 97.7067 367.207 98.0001V106.56ZM366.207 95.6601C365.82 95.6601 365.54 95.5934 365.367 95.4601C365.193 95.3134 365.107 95.0734 365.107 94.7401V94.4201C365.107 94.0867 365.2 93.8534 365.387 93.7201C365.573 93.5867 365.853 93.5201 366.227 93.5201C366.627 93.5201 366.913 93.5934 367.087 93.7401C367.26 93.8734 367.347 94.1001 367.347 94.4201V94.7401C367.347 95.0867 367.253 95.3267 367.067 95.4601C366.893 95.5934 366.607 95.6601 366.207 95.6601ZM374.8 107.78C373.693 107.78 372.733 107.553 371.92 107.1C371.106 106.633 370.473 106 370.02 105.2C369.58 104.387 369.36 103.46 369.36 102.42C369.36 101.247 369.593 100.247 370.06 99.4201C370.54 98.5801 371.16 97.9401 371.92 97.5001C372.68 97.0467 373.486 96.8201 374.34 96.8201C374.993 96.8201 375.613 96.9534 376.2 97.2201C376.786 97.4734 377.306 97.8334 377.76 98.3001C378.226 98.7534 378.593 99.2934 378.86 99.9201C379.126 100.533 379.266 101.207 379.28 101.94C379.266 102.207 379.16 102.427 378.96 102.6C378.76 102.773 378.526 102.86 378.26 102.86H370.48L370 101.16H377.52L377.14 101.52V101.02C377.113 100.553 376.96 100.147 376.68 99.8001C376.4 99.4401 376.053 99.1667 375.64 98.9801C375.226 98.7801 374.793 98.6801 374.34 98.6801C373.94 98.6801 373.553 98.7467 373.18 98.8801C372.82 99.0001 372.493 99.2001 372.2 99.4801C371.92 99.7601 371.693 100.133 371.52 100.6C371.36 101.053 371.28 101.62 371.28 102.3C371.28 103.033 371.433 103.673 371.74 104.22C372.046 104.767 372.46 105.193 372.98 105.5C373.5 105.793 374.073 105.94 374.7 105.94C375.193 105.94 375.6 105.893 375.92 105.8C376.24 105.693 376.506 105.567 376.72 105.42C376.933 105.273 377.12 105.133 377.28 105C377.48 104.88 377.68 104.82 377.88 104.82C378.12 104.82 378.32 104.907 378.48 105.08C378.64 105.24 378.72 105.433 378.72 105.66C378.72 105.953 378.573 106.22 378.28 106.46C377.92 106.807 377.42 107.113 376.78 107.38C376.153 107.647 375.493 107.78 374.8 107.78ZM387.347 96.9601C387.547 96.9601 387.733 97.0134 387.907 97.1201C388.093 97.2267 388.227 97.3867 388.307 97.6001L391.447 104.86L391.067 105.04L394.247 97.6201C394.433 97.1801 394.733 96.9667 395.147 96.9801C395.413 96.9801 395.633 97.0667 395.807 97.2401C395.993 97.4001 396.087 97.6134 396.087 97.8801C396.087 97.9601 396.073 98.0467 396.047 98.1401C396.02 98.2201 395.987 98.3001 395.947 98.3801L392.147 106.94C391.973 107.34 391.687 107.553 391.287 107.58C391.087 107.607 390.887 107.567 390.687 107.46C390.5 107.34 390.353 107.167 390.247 106.94L386.467 98.3801C386.44 98.3267 386.413 98.2601 386.387 98.1801C386.36 98.0867 386.347 97.9801 386.347 97.8601C386.347 97.6601 386.433 97.4601 386.607 97.2601C386.793 97.0601 387.04 96.9601 387.347 96.9601ZM408.105 102.32C408.105 103.387 407.871 104.333 407.405 105.16C406.938 105.973 406.305 106.613 405.505 107.08C404.705 107.547 403.805 107.78 402.805 107.78C401.805 107.78 400.905 107.547 400.105 107.08C399.305 106.613 398.665 105.973 398.185 105.16C397.718 104.333 397.485 103.387 397.485 102.32C397.485 101.24 397.718 100.293 398.185 99.4801C398.665 98.6534 399.305 98.0067 400.105 97.5401C400.905 97.0601 401.805 96.8201 402.805 96.8201C403.805 96.8201 404.705 97.0601 405.505 97.5401C406.305 98.0067 406.938 98.6534 407.405 99.4801C407.871 100.293 408.105 101.24 408.105 102.32ZM406.105 102.32C406.105 101.587 405.958 100.953 405.665 100.42C405.371 99.8734 404.971 99.4467 404.465 99.1401C403.971 98.8201 403.418 98.6601 402.805 98.6601C402.191 98.6601 401.631 98.8201 401.125 99.1401C400.618 99.4467 400.218 99.8734 399.925 100.42C399.631 100.953 399.485 101.587 399.485 102.32C399.485 103.027 399.631 103.653 399.925 104.2C400.218 104.747 400.618 105.173 401.125 105.48C401.631 105.787 402.191 105.94 402.805 105.94C403.418 105.94 403.971 105.787 404.465 105.48C404.971 105.173 405.371 104.747 405.665 104.2C405.958 103.653 406.105 103.027 406.105 102.32ZM410.229 97.1801H414.929C415.195 97.1801 415.415 97.2734 415.589 97.4601C415.775 97.6334 415.869 97.8534 415.869 98.1201C415.869 98.3734 415.775 98.5867 415.589 98.7601C415.415 98.9334 415.195 99.0201 414.929 99.0201H410.229C409.962 99.0201 409.735 98.9334 409.549 98.7601C409.375 98.5734 409.289 98.3534 409.289 98.1001C409.289 97.8334 409.375 97.6134 409.549 97.4401C409.735 97.2667 409.962 97.1801 410.229 97.1801ZM412.329 94.5801C412.622 94.5801 412.862 94.6801 413.049 94.8801C413.235 95.0667 413.329 95.3067 413.329 95.6001V104.88C413.329 105.12 413.369 105.313 413.449 105.46C413.529 105.607 413.635 105.707 413.769 105.76C413.915 105.813 414.062 105.84 414.209 105.84C414.355 105.84 414.482 105.813 414.589 105.76C414.709 105.707 414.849 105.68 415.009 105.68C415.169 105.68 415.315 105.753 415.449 105.9C415.582 106.047 415.649 106.247 415.649 106.5C415.649 106.82 415.475 107.08 415.129 107.28C414.782 107.48 414.409 107.58 414.009 107.58C413.782 107.58 413.515 107.56 413.209 107.52C412.902 107.48 412.602 107.38 412.309 107.22C412.029 107.06 411.795 106.807 411.609 106.46C411.422 106.1 411.329 105.6 411.329 104.96V95.6001C411.329 95.3067 411.422 95.0667 411.609 94.8801C411.809 94.6801 412.049 94.5801 412.329 94.5801ZM419.083 107.58C418.79 107.58 418.55 107.487 418.363 107.3C418.177 107.1 418.083 106.853 418.083 106.56V98.0801C418.083 97.7867 418.177 97.5467 418.363 97.3601C418.55 97.1601 418.79 97.0601 419.083 97.0601C419.363 97.0601 419.597 97.1601 419.783 97.3601C419.983 97.5467 420.083 97.7867 420.083 98.0801V100.32L419.883 99.4601C419.99 99.0867 420.15 98.7401 420.363 98.4201C420.59 98.1001 420.857 97.8201 421.163 97.5801C421.47 97.3401 421.81 97.1534 422.183 97.0201C422.57 96.8867 422.97 96.8201 423.383 96.8201C423.73 96.8201 424.03 96.9134 424.283 97.1001C424.537 97.2867 424.663 97.5201 424.663 97.8001C424.663 98.1601 424.57 98.4267 424.383 98.6001C424.197 98.7601 423.99 98.8401 423.763 98.8401C423.563 98.8401 423.37 98.8001 423.183 98.7201C422.997 98.6267 422.777 98.5801 422.523 98.5801C422.243 98.5801 421.957 98.6534 421.663 98.8001C421.37 98.9467 421.103 99.1667 420.863 99.4601C420.623 99.7401 420.43 100.073 420.283 100.46C420.15 100.847 420.083 101.28 420.083 101.76V106.56C420.083 106.853 419.983 107.1 419.783 107.3C419.597 107.487 419.363 107.58 419.083 107.58ZM430.894 107.78C429.787 107.78 428.827 107.553 428.014 107.1C427.2 106.633 426.567 106 426.114 105.2C425.674 104.387 425.454 103.46 425.454 102.42C425.454 101.247 425.687 100.247 426.154 99.4201C426.634 98.5801 427.254 97.9401 428.014 97.5001C428.774 97.0467 429.58 96.8201 430.434 96.8201C431.087 96.8201 431.707 96.9534 432.294 97.2201C432.88 97.4734 433.4 97.8334 433.854 98.3001C434.32 98.7534 434.687 99.2934 434.954 99.9201C435.22 100.533 435.36 101.207 435.374 101.94C435.36 102.207 435.254 102.427 435.054 102.6C434.854 102.773 434.62 102.86 434.354 102.86H426.574L426.094 101.16H433.614L433.234 101.52V101.02C433.207 100.553 433.054 100.147 432.774 99.8001C432.494 99.4401 432.147 99.1667 431.734 98.9801C431.32 98.7801 430.887 98.6801 430.434 98.6801C430.034 98.6801 429.647 98.7467 429.274 98.8801C428.914 99.0001 428.587 99.2001 428.294 99.4801C428.014 99.7601 427.787 100.133 427.614 100.6C427.454 101.053 427.374 101.62 427.374 102.3C427.374 103.033 427.527 103.673 427.834 104.22C428.14 104.767 428.554 105.193 429.074 105.5C429.594 105.793 430.167 105.94 430.794 105.94C431.287 105.94 431.694 105.893 432.014 105.8C432.334 105.693 432.6 105.567 432.814 105.42C433.027 105.273 433.214 105.133 433.374 105C433.574 104.88 433.774 104.82 433.974 104.82C434.214 104.82 434.414 104.907 434.574 105.08C434.734 105.24 434.814 105.433 434.814 105.66C434.814 105.953 434.667 106.22 434.374 106.46C434.014 106.807 433.514 107.113 432.874 107.38C432.247 107.647 431.587 107.78 430.894 107.78ZM448.481 96.8801C449.467 96.8801 450.227 97.1267 450.761 97.6201C451.294 98.1001 451.647 98.7534 451.821 99.5801L451.501 99.4801L451.641 99.1601C451.814 98.8134 452.074 98.4667 452.421 98.1201C452.781 97.7601 453.207 97.4667 453.701 97.2401C454.194 97.0001 454.721 96.8801 455.281 96.8801C456.201 96.8801 456.914 97.0801 457.421 97.4801C457.927 97.8667 458.281 98.3934 458.481 99.0601C458.681 99.7134 458.781 100.447 458.781 101.26V106.56C458.781 106.853 458.687 107.1 458.501 107.3C458.314 107.487 458.074 107.58 457.781 107.58C457.501 107.58 457.261 107.487 457.061 107.3C456.874 107.1 456.781 106.853 456.781 106.56V101.28C456.781 100.813 456.714 100.387 456.581 100C456.461 99.6134 456.241 99.3067 455.921 99.0801C455.614 98.8401 455.187 98.7201 454.641 98.7201C454.121 98.7201 453.654 98.8401 453.241 99.0801C452.841 99.3067 452.527 99.6134 452.301 100C452.074 100.387 451.961 100.813 451.961 101.28V106.56C451.961 106.853 451.867 107.1 451.681 107.3C451.494 107.487 451.254 107.58 450.961 107.58C450.667 107.58 450.427 107.487 450.241 107.3C450.054 107.1 449.961 106.853 449.961 106.56V101.26C449.961 100.793 449.894 100.367 449.761 99.9801C449.641 99.5934 449.427 99.2867 449.121 99.0601C448.814 98.8334 448.387 98.7201 447.841 98.7201C447.321 98.7201 446.861 98.8334 446.461 99.0601C446.061 99.2867 445.747 99.5934 445.521 99.9801C445.307 100.367 445.201 100.793 445.201 101.26V106.56C445.201 106.853 445.101 107.1 444.901 107.3C444.714 107.487 444.481 107.58 444.201 107.58C443.907 107.58 443.667 107.487 443.481 107.3C443.294 107.1 443.201 106.853 443.201 106.56V98.0801C443.201 97.7867 443.294 97.5467 443.481 97.3601C443.667 97.1601 443.907 97.0601 444.201 97.0601C444.481 97.0601 444.714 97.1601 444.901 97.3601C445.101 97.5467 445.201 97.7867 445.201 98.0801V99.2601L444.821 99.4801C444.914 99.1867 445.067 98.8867 445.281 98.5801C445.494 98.2734 445.761 97.9934 446.081 97.7401C446.414 97.4867 446.781 97.2801 447.181 97.1201C447.581 96.9601 448.014 96.8801 448.481 96.8801ZM466.479 107.78C465.373 107.78 464.413 107.553 463.599 107.1C462.786 106.633 462.153 106 461.699 105.2C461.259 104.387 461.039 103.46 461.039 102.42C461.039 101.247 461.273 100.247 461.739 99.4201C462.219 98.5801 462.839 97.9401 463.599 97.5001C464.359 97.0467 465.166 96.8201 466.019 96.8201C466.673 96.8201 467.293 96.9534 467.879 97.2201C468.466 97.4734 468.986 97.8334 469.439 98.3001C469.906 98.7534 470.273 99.2934 470.539 99.9201C470.806 100.533 470.946 101.207 470.959 101.94C470.946 102.207 470.839 102.427 470.639 102.6C470.439 102.773 470.206 102.86 469.939 102.86H462.159L461.679 101.16H469.199L468.819 101.52V101.02C468.793 100.553 468.639 100.147 468.359 99.8001C468.079 99.4401 467.733 99.1667 467.319 98.9801C466.906 98.7801 466.473 98.6801 466.019 98.6801C465.619 98.6801 465.233 98.7467 464.859 98.8801C464.499 99.0001 464.173 99.2001 463.879 99.4801C463.599 99.7601 463.373 100.133 463.199 100.6C463.039 101.053 462.959 101.62 462.959 102.3C462.959 103.033 463.113 103.673 463.419 104.22C463.726 104.767 464.139 105.193 464.659 105.5C465.179 105.793 465.753 105.94 466.379 105.94C466.873 105.94 467.279 105.893 467.599 105.8C467.919 105.693 468.186 105.567 468.399 105.42C468.613 105.273 468.799 105.133 468.959 105C469.159 104.88 469.359 104.82 469.559 104.82C469.799 104.82 469.999 104.907 470.159 105.08C470.319 105.24 470.399 105.433 470.399 105.66C470.399 105.953 470.253 106.22 469.959 106.46C469.599 106.807 469.099 107.113 468.459 107.38C467.833 107.647 467.173 107.78 466.479 107.78ZM481.918 96.9001C482.212 96.9001 482.452 97.0001 482.638 97.2001C482.825 97.3867 482.918 97.6267 482.918 97.9201V106.56C482.918 106.853 482.825 107.1 482.638 107.3C482.452 107.487 482.212 107.58 481.918 107.58C481.638 107.58 481.398 107.487 481.198 107.3C481.012 107.1 480.918 106.853 480.918 106.56V105.12L481.338 105.18C481.338 105.42 481.238 105.687 481.038 105.98C480.852 106.273 480.592 106.56 480.258 106.84C479.925 107.107 479.532 107.333 479.078 107.52C478.625 107.693 478.138 107.78 477.618 107.78C476.698 107.78 475.872 107.547 475.138 107.08C474.405 106.6 473.825 105.947 473.398 105.12C472.972 104.293 472.758 103.353 472.758 102.3C472.758 101.22 472.972 100.273 473.398 99.4601C473.825 98.6334 474.398 97.9867 475.118 97.5201C475.852 97.0534 476.665 96.8201 477.558 96.8201C478.132 96.8201 478.658 96.9134 479.138 97.1001C479.632 97.2867 480.058 97.5267 480.418 97.8201C480.778 98.1134 481.052 98.4267 481.238 98.7601C481.438 99.0801 481.538 99.3867 481.538 99.6801L480.918 99.7401V97.9201C480.918 97.6401 481.012 97.4001 481.198 97.2001C481.398 97.0001 481.638 96.9001 481.918 96.9001ZM477.838 105.94C478.465 105.94 479.018 105.78 479.498 105.46C479.978 105.14 480.352 104.707 480.618 104.16C480.885 103.6 481.018 102.98 481.018 102.3C481.018 101.607 480.885 100.987 480.618 100.44C480.352 99.8934 479.978 99.4601 479.498 99.1401C479.018 98.8201 478.465 98.6601 477.838 98.6601C477.225 98.6601 476.678 98.8201 476.198 99.1401C475.732 99.4601 475.358 99.8934 475.078 100.44C474.812 100.987 474.678 101.607 474.678 102.3C474.678 102.98 474.812 103.6 475.078 104.16C475.358 104.707 475.732 105.14 476.198 105.46C476.678 105.78 477.225 105.94 477.838 105.94ZM487.88 106.56C487.88 106.853 487.78 107.1 487.58 107.3C487.393 107.487 487.16 107.58 486.88 107.58C486.6 107.58 486.36 107.487 486.16 107.3C485.973 107.1 485.88 106.853 485.88 106.56V93.8001C485.88 93.5067 485.98 93.2667 486.18 93.0801C486.38 92.8801 486.62 92.7801 486.9 92.7801C487.193 92.7801 487.427 92.8801 487.6 93.0801C487.787 93.2667 487.88 93.5067 487.88 93.8001V106.56ZM501.723 96.8801C502.657 96.8801 503.483 97.1134 504.203 97.5801C504.937 98.0467 505.517 98.6867 505.943 99.5001C506.37 100.3 506.583 101.233 506.583 102.3C506.583 103.367 506.37 104.313 505.943 105.14C505.517 105.953 504.943 106.593 504.223 107.06C503.503 107.527 502.69 107.76 501.783 107.76C501.277 107.76 500.797 107.68 500.343 107.52C499.89 107.36 499.49 107.153 499.143 106.9C498.797 106.633 498.51 106.353 498.283 106.06C498.07 105.767 497.937 105.493 497.883 105.24L498.423 104.98V110.56C498.423 110.853 498.323 111.093 498.123 111.28C497.937 111.48 497.703 111.58 497.423 111.58C497.13 111.58 496.89 111.48 496.703 111.28C496.517 111.093 496.423 110.853 496.423 110.56V98.0401C496.423 97.7601 496.517 97.5201 496.703 97.3201C496.89 97.1201 497.13 97.0201 497.423 97.0201C497.703 97.0201 497.937 97.1201 498.123 97.3201C498.323 97.5201 498.423 97.7601 498.423 98.0401V99.4201L498.103 99.2401C498.143 98.9867 498.27 98.7267 498.483 98.4601C498.697 98.1801 498.963 97.9201 499.283 97.6801C499.617 97.4401 499.99 97.2467 500.403 97.1001C500.83 96.9534 501.27 96.8801 501.723 96.8801ZM501.503 98.7201C500.863 98.7201 500.303 98.8801 499.823 99.2001C499.357 99.5067 498.99 99.9267 498.723 100.46C498.457 100.993 498.323 101.607 498.323 102.3C498.323 102.98 498.457 103.6 498.723 104.16C498.99 104.707 499.357 105.14 499.823 105.46C500.303 105.767 500.863 105.92 501.503 105.92C502.13 105.92 502.677 105.767 503.143 105.46C503.61 105.14 503.977 104.707 504.243 104.16C504.523 103.6 504.663 102.98 504.663 102.3C504.663 101.62 504.523 101.013 504.243 100.48C503.977 99.9334 503.61 99.5067 503.143 99.2001C502.677 98.8801 502.13 98.7201 501.503 98.7201ZM509.845 107.58C509.552 107.58 509.312 107.487 509.125 107.3C508.938 107.1 508.845 106.853 508.845 106.56V98.0801C508.845 97.7867 508.938 97.5467 509.125 97.3601C509.312 97.1601 509.552 97.0601 509.845 97.0601C510.125 97.0601 510.358 97.1601 510.545 97.3601C510.745 97.5467 510.845 97.7867 510.845 98.0801V100.32L510.645 99.4601C510.752 99.0867 510.912 98.7401 511.125 98.4201C511.352 98.1001 511.618 97.8201 511.925 97.5801C512.232 97.3401 512.572 97.1534 512.945 97.0201C513.332 96.8867 513.732 96.8201 514.145 96.8201C514.492 96.8201 514.792 96.9134 515.045 97.1001C515.298 97.2867 515.425 97.5201 515.425 97.8001C515.425 98.1601 515.332 98.4267 515.145 98.6001C514.958 98.7601 514.752 98.8401 514.525 98.8401C514.325 98.8401 514.132 98.8001 513.945 98.7201C513.758 98.6267 513.538 98.5801 513.285 98.5801C513.005 98.5801 512.718 98.6534 512.425 98.8001C512.132 98.9467 511.865 99.1667 511.625 99.4601C511.385 99.7401 511.192 100.073 511.045 100.46C510.912 100.847 510.845 101.28 510.845 101.76V106.56C510.845 106.853 510.745 107.1 510.545 107.3C510.358 107.487 510.125 107.58 509.845 107.58ZM521.655 107.78C520.549 107.78 519.589 107.553 518.775 107.1C517.962 106.633 517.329 106 516.875 105.2C516.435 104.387 516.215 103.46 516.215 102.42C516.215 101.247 516.449 100.247 516.915 99.4201C517.395 98.5801 518.015 97.9401 518.775 97.5001C519.535 97.0467 520.342 96.8201 521.195 96.8201C521.849 96.8201 522.469 96.9534 523.055 97.2201C523.642 97.4734 524.162 97.8334 524.615 98.3001C525.082 98.7534 525.449 99.2934 525.715 99.9201C525.982 100.533 526.122 101.207 526.135 101.94C526.122 102.207 526.015 102.427 525.815 102.6C525.615 102.773 525.382 102.86 525.115 102.86H517.335L516.855 101.16H524.375L523.995 101.52V101.02C523.969 100.553 523.815 100.147 523.535 99.8001C523.255 99.4401 522.909 99.1667 522.495 98.9801C522.082 98.7801 521.649 98.6801 521.195 98.6801C520.795 98.6801 520.409 98.7467 520.035 98.8801C519.675 99.0001 519.349 99.2001 519.055 99.4801C518.775 99.7601 518.549 100.133 518.375 100.6C518.215 101.053 518.135 101.62 518.135 102.3C518.135 103.033 518.289 103.673 518.595 104.22C518.902 104.767 519.315 105.193 519.835 105.5C520.355 105.793 520.929 105.94 521.555 105.94C522.049 105.94 522.455 105.893 522.775 105.8C523.095 105.693 523.362 105.567 523.575 105.42C523.789 105.273 523.975 105.133 524.135 105C524.335 104.88 524.535 104.82 524.735 104.82C524.975 104.82 525.175 104.907 525.335 105.08C525.495 105.24 525.575 105.433 525.575 105.66C525.575 105.953 525.429 106.22 525.135 106.46C524.775 106.807 524.275 107.113 523.635 107.38C523.009 107.647 522.349 107.78 521.655 107.78ZM533.696 96.8801C534.629 96.8801 535.456 97.1134 536.176 97.5801C536.909 98.0467 537.489 98.6867 537.916 99.5001C538.343 100.3 538.556 101.233 538.556 102.3C538.556 103.367 538.343 104.313 537.916 105.14C537.489 105.953 536.916 106.593 536.196 107.06C535.476 107.527 534.663 107.76 533.756 107.76C533.249 107.76 532.769 107.68 532.316 107.52C531.863 107.36 531.463 107.153 531.116 106.9C530.769 106.633 530.483 106.353 530.256 106.06C530.043 105.767 529.909 105.493 529.856 105.24L530.396 104.98V110.56C530.396 110.853 530.296 111.093 530.096 111.28C529.909 111.48 529.676 111.58 529.396 111.58C529.103 111.58 528.863 111.48 528.676 111.28C528.489 111.093 528.396 110.853 528.396 110.56V98.0401C528.396 97.7601 528.489 97.5201 528.676 97.3201C528.863 97.1201 529.103 97.0201 529.396 97.0201C529.676 97.0201 529.909 97.1201 530.096 97.3201C530.296 97.5201 530.396 97.7601 530.396 98.0401V99.4201L530.076 99.2401C530.116 98.9867 530.243 98.7267 530.456 98.4601C530.669 98.1801 530.936 97.9201 531.256 97.6801C531.589 97.4401 531.963 97.2467 532.376 97.1001C532.803 96.9534 533.243 96.8801 533.696 96.8801ZM533.476 98.7201C532.836 98.7201 532.276 98.8801 531.796 99.2001C531.329 99.5067 530.963 99.9267 530.696 100.46C530.429 100.993 530.296 101.607 530.296 102.3C530.296 102.98 530.429 103.6 530.696 104.16C530.963 104.707 531.329 105.14 531.796 105.46C532.276 105.767 532.836 105.92 533.476 105.92C534.103 105.92 534.649 105.767 535.116 105.46C535.583 105.14 535.949 104.707 536.216 104.16C536.496 103.6 536.636 102.98 536.636 102.3C536.636 101.62 536.496 101.013 536.216 100.48C535.949 99.9334 535.583 99.5067 535.116 99.2001C534.649 98.8801 534.103 98.7201 533.476 98.7201ZM548.404 101.12C548.404 100.84 548.497 100.6 548.684 100.4C548.884 100.2 549.124 100.1 549.404 100.1C549.977 100.087 550.491 99.9801 550.944 99.7801C551.397 99.5801 551.757 99.2801 552.024 98.8801C552.291 98.4801 552.424 97.9801 552.424 97.3801C552.424 96.8601 552.304 96.4134 552.064 96.0401C551.837 95.6534 551.524 95.3534 551.124 95.1401C550.724 94.9134 550.271 94.8001 549.764 94.8001C549.324 94.8001 548.917 94.8867 548.544 95.0601C548.171 95.2334 547.837 95.4601 547.544 95.7401C547.371 95.9001 547.157 96.0201 546.904 96.1001C546.664 96.1667 546.417 96.1067 546.164 95.9201C545.897 95.7334 545.751 95.5001 545.724 95.2201C545.697 94.9401 545.797 94.6801 546.024 94.4401C546.477 93.9334 547.031 93.5334 547.684 93.2401C548.337 92.9467 549.031 92.8001 549.764 92.8001C550.631 92.8001 551.417 93.0001 552.124 93.4001C552.831 93.8001 553.391 94.3401 553.804 95.0201C554.217 95.7001 554.424 96.4867 554.424 97.3801C554.424 97.9934 554.324 98.5534 554.124 99.0601C553.924 99.5667 553.637 100.007 553.264 100.38C552.891 100.753 552.457 101.053 551.964 101.28C551.484 101.507 550.957 101.653 550.384 101.72C550.357 101.733 550.344 101.74 550.344 101.74C550.357 101.74 550.377 101.74 550.404 101.74V102.94C550.404 103.22 550.304 103.46 550.104 103.66C549.917 103.847 549.684 103.94 549.404 103.94C549.111 103.94 548.871 103.847 548.684 103.66C548.497 103.46 548.404 103.22 548.404 102.94V101.12ZM549.344 107.58C549.011 107.58 548.751 107.487 548.564 107.3C548.391 107.113 548.304 106.853 548.304 106.52V106.16C548.304 105.813 548.391 105.553 548.564 105.38C548.751 105.193 549.011 105.1 549.344 105.1H549.544C549.891 105.1 550.151 105.193 550.324 105.38C550.497 105.553 550.584 105.813 550.584 106.16V106.52C550.584 106.853 550.497 107.113 550.324 107.3C550.151 107.487 549.891 107.58 549.544 107.58H549.344Z" fill="#24376E"/>
</svg>
