<svg width="604" height="313" viewBox="0 0 604 313" fill="none" xmlns="http://www.w3.org/2000/svg">
<path d="M227.693 120.24C224.776 115.342 217.534 107.207 201.512 107.207C201.249 107.207 200.977 107.207 200.714 107.207C189.942 107.382 180.444 110.696 173.036 114.272C173.191 107.878 173.289 100.744 173.386 93.6884C173.639 74.6495 166.989 56.845 155.138 44.8424C144.249 33.8215 129.52 28 112.517 28C76.0396 28 49.5569 55.426 49.5569 93.2219V232.16C47.7292 232.218 45.7653 232.374 43.7529 232.665C30.4143 234.589 21.0326 241.733 17.3382 252.792C14.2564 262.015 16.5994 272.142 23.3172 278.576C27.7408 282.804 33.467 285 39.6502 285C43.0432 285 46.5723 284.339 50.0819 282.998C65.6663 277.04 68.1648 261.85 68.5634 252.015L163.265 250.314C165.91 250.266 168.418 249.148 170.217 247.214C172.015 245.28 172.948 242.695 172.803 240.061C172.453 233.831 171.801 216.104 172.978 208.922C176.176 189.33 188.873 180.729 202.328 171.632C211.866 165.179 221.733 158.492 227.742 147.899C232.603 139.327 232.583 128.491 227.703 120.279L227.693 120.24ZM43.1307 264.824C41.5168 265.446 38.5419 266.224 36.7725 264.523C35.46 263.269 35.0711 261.073 35.7808 258.944C37.5891 253.55 43.7918 251.966 49.0903 251.646C48.75 258.74 47.35 263.211 43.1307 264.824ZM210.816 138.278C207.053 144.915 199.801 149.823 191.411 155.499C178.14 164.479 161.953 175.442 155.536 197.872C147.73 196.278 141.926 191.293 141.896 191.264C137.901 187.677 131.756 187.998 128.169 191.993C124.582 195.987 124.902 202.129 128.898 205.715C129.404 206.172 139.077 214.705 152.921 217.154C152.804 221.868 152.863 226.834 152.979 231.042L69.0106 232.548V93.2219C69.0106 79.3145 73.4925 67.5841 81.9603 59.3038C89.7962 51.6455 100.656 47.4373 112.536 47.4373C124.416 47.4373 134.06 51.1595 141.313 58.4971C149.538 66.826 154.146 79.5574 153.961 93.4357C153.777 107.654 153.524 123.418 152.902 130.629C152.62 133.933 154.039 137.15 156.674 139.162C159.308 141.183 162.779 141.718 165.9 140.591C167.582 139.988 169.108 139.016 171.412 137.558C177.323 133.817 188.338 126.858 201.055 126.644C204.574 126.567 209.211 127.15 211 130.162C212.42 132.553 212.031 136.169 210.835 138.278H210.816Z" fill="#FFFCED"/>
<path d="M141.849 108.052C133.614 100.744 122.366 97.9059 111.74 100.452C101.288 102.96 93.0248 110.181 89.0582 120.278C87.0944 125.274 89.554 130.91 94.5512 132.874C95.7178 133.33 96.9233 133.554 98.1094 133.554C101.988 133.554 105.654 131.212 107.161 127.392C109.367 121.775 113.82 119.948 116.28 119.365C120.723 118.296 125.467 119.51 128.957 122.601C132.972 126.168 139.117 125.798 142.685 121.785C146.253 117.771 145.883 111.629 141.868 108.062L141.849 108.052Z" fill="#FFFCED"/>
<path d="M266.124 74.8811V74.9659L266.114 75.0502L265.142 83.6225C265.141 83.6559 265.149 83.6699 265.153 83.6768C265.16 83.6906 265.177 83.7105 265.206 83.7267C265.235 83.7429 265.261 83.7469 265.277 83.7463C265.286 83.746 265.305 83.7449 265.341 83.7187L266.695 82.7359C267.361 82.2523 268.162 81.9919 268.985 81.9919H384.192C389.991 81.9919 394.692 77.2909 394.692 71.4919V40C394.692 34.201 389.991 29.5 384.192 29.5H276.624C270.825 29.5 266.124 34.201 266.124 40V74.8811Z" fill="#FFFCED" stroke="#FFFCED" stroke-width="3"/>
<path d="M293.531 48.9473C294.757 48.9473 295.684 49.2473 296.311 49.8473C296.951 50.4473 297.271 51.3206 297.271 52.4673C297.271 53.0673 297.124 53.6139 296.831 54.1073C296.551 54.5873 296.131 54.9673 295.571 55.2473C295.024 55.5273 294.337 55.6739 293.511 55.6873L293.551 54.9473C293.991 54.9473 294.464 55.0073 294.971 55.1273C295.491 55.2473 295.977 55.4539 296.431 55.7473C296.884 56.0406 297.257 56.4406 297.551 56.9473C297.844 57.4406 297.991 58.0606 297.991 58.8073C297.991 59.6206 297.857 60.3006 297.591 60.8473C297.324 61.3806 296.971 61.8006 296.531 62.1073C296.091 62.4139 295.604 62.6339 295.071 62.7673C294.551 62.8873 294.037 62.9473 293.531 62.9473H288.411C288.131 62.9473 287.891 62.8539 287.691 62.6673C287.491 62.4673 287.391 62.2206 287.391 61.9273V49.9673C287.391 49.6739 287.491 49.4339 287.691 49.2473C287.891 49.0473 288.131 48.9473 288.411 48.9473H293.531ZM293.251 50.9073H289.311L289.551 50.5873V54.8873L289.331 54.6673H293.291C293.771 54.6539 294.191 54.4939 294.551 54.1873C294.924 53.8673 295.111 53.4006 295.111 52.7873C295.111 52.1606 294.944 51.6939 294.611 51.3873C294.277 51.0673 293.824 50.9073 293.251 50.9073ZM293.391 56.6273H289.411L289.551 56.4873V61.2073L289.391 61.0273H293.511C294.204 61.0273 294.764 60.8473 295.191 60.4873C295.617 60.1139 295.831 59.5539 295.831 58.8073C295.831 58.1806 295.704 57.7139 295.451 57.4073C295.197 57.1006 294.884 56.8939 294.511 56.7873C294.137 56.6806 293.764 56.6273 293.391 56.6273ZM310.317 57.6873C310.317 58.7539 310.084 59.7006 309.617 60.5273C309.15 61.3406 308.517 61.9806 307.717 62.4473C306.917 62.9139 306.017 63.1473 305.017 63.1473C304.017 63.1473 303.117 62.9139 302.317 62.4473C301.517 61.9806 300.877 61.3406 300.397 60.5273C299.93 59.7006 299.697 58.7539 299.697 57.6873C299.697 56.6073 299.93 55.6606 300.397 54.8473C300.877 54.0206 301.517 53.3739 302.317 52.9073C303.117 52.4273 304.017 52.1873 305.017 52.1873C306.017 52.1873 306.917 52.4273 307.717 52.9073C308.517 53.3739 309.15 54.0206 309.617 54.8473C310.084 55.6606 310.317 56.6073 310.317 57.6873ZM308.317 57.6873C308.317 56.9539 308.17 56.3206 307.877 55.7873C307.584 55.2406 307.184 54.8139 306.677 54.5073C306.184 54.1873 305.63 54.0273 305.017 54.0273C304.404 54.0273 303.844 54.1873 303.337 54.5073C302.83 54.8139 302.43 55.2406 302.137 55.7873C301.844 56.3206 301.697 56.9539 301.697 57.6873C301.697 58.3939 301.844 59.0206 302.137 59.5673C302.43 60.1139 302.83 60.5406 303.337 60.8473C303.844 61.1539 304.404 61.3073 305.017 61.3073C305.63 61.3073 306.184 61.1539 306.677 60.8473C307.184 60.5406 307.584 60.1139 307.877 59.5673C308.17 59.0206 308.317 58.3939 308.317 57.6873ZM318.001 52.1873C318.947 52.1873 319.681 52.3873 320.201 52.7873C320.721 53.1739 321.081 53.7006 321.281 54.3673C321.494 55.0206 321.601 55.7539 321.601 56.5673V61.9273C321.601 62.2206 321.501 62.4673 321.301 62.6673C321.114 62.8539 320.881 62.9473 320.601 62.9473C320.307 62.9473 320.067 62.8539 319.881 62.6673C319.694 62.4673 319.601 62.2206 319.601 61.9273V56.5873C319.601 56.1073 319.534 55.6806 319.401 55.3073C319.267 54.9206 319.034 54.6139 318.701 54.3873C318.381 54.1473 317.927 54.0273 317.341 54.0273C316.794 54.0273 316.314 54.1473 315.901 54.3873C315.487 54.6139 315.161 54.9206 314.921 55.3073C314.694 55.6806 314.581 56.1073 314.581 56.5873V61.9273C314.581 62.2206 314.481 62.4673 314.281 62.6673C314.094 62.8539 313.861 62.9473 313.581 62.9473C313.287 62.9473 313.047 62.8539 312.861 62.6673C312.674 62.4673 312.581 62.2206 312.581 61.9273V53.4473C312.581 53.1539 312.674 52.9139 312.861 52.7273C313.047 52.5273 313.287 52.4273 313.581 52.4273C313.861 52.4273 314.094 52.5273 314.281 52.7273C314.481 52.9139 314.581 53.1539 314.581 53.4473V54.5673L314.221 54.7673C314.314 54.4739 314.474 54.1806 314.701 53.8873C314.941 53.5806 315.227 53.3006 315.561 53.0473C315.894 52.7806 316.267 52.5739 316.681 52.4273C317.094 52.2673 317.534 52.1873 318.001 52.1873ZM326.658 63.3873C326.658 64.1073 326.511 64.7273 326.218 65.2473C325.924 65.7673 325.538 66.1673 325.058 66.4473C324.578 66.7273 324.064 66.8673 323.518 66.8673C323.238 66.8673 323.011 66.7739 322.838 66.5873C322.664 66.4139 322.578 66.2006 322.578 65.9473V65.7673C322.578 65.5273 322.664 65.3339 322.838 65.1873C322.998 65.0406 323.198 64.9273 323.438 64.8473C323.744 64.7539 323.984 64.6139 324.158 64.4273C324.344 64.2539 324.471 64.0273 324.538 63.7473C324.618 63.4806 324.658 63.1873 324.658 62.8673V53.4273C324.658 53.1473 324.751 52.9139 324.938 52.7273C325.124 52.5273 325.364 52.4273 325.658 52.4273C325.951 52.4273 326.191 52.5273 326.378 52.7273C326.564 52.9139 326.658 53.1473 326.658 53.4273V63.3873ZM325.618 51.0273C325.231 51.0273 324.951 50.9606 324.778 50.8273C324.604 50.6806 324.518 50.4406 324.518 50.1073V49.7873C324.518 49.4539 324.611 49.2206 324.798 49.0873C324.984 48.9539 325.264 48.8873 325.638 48.8873C326.038 48.8873 326.324 48.9606 326.498 49.1073C326.671 49.2406 326.758 49.4673 326.758 49.7873V50.1073C326.758 50.4539 326.664 50.6939 326.478 50.8273C326.304 50.9606 326.018 51.0273 325.618 51.0273ZM339.926 57.6873C339.926 58.7539 339.693 59.7006 339.226 60.5273C338.76 61.3406 338.126 61.9806 337.326 62.4473C336.526 62.9139 335.626 63.1473 334.626 63.1473C333.626 63.1473 332.726 62.9139 331.926 62.4473C331.126 61.9806 330.486 61.3406 330.006 60.5273C329.54 59.7006 329.306 58.7539 329.306 57.6873C329.306 56.6073 329.54 55.6606 330.006 54.8473C330.486 54.0206 331.126 53.3739 331.926 52.9073C332.726 52.4273 333.626 52.1873 334.626 52.1873C335.626 52.1873 336.526 52.4273 337.326 52.9073C338.126 53.3739 338.76 54.0206 339.226 54.8473C339.693 55.6606 339.926 56.6073 339.926 57.6873ZM337.926 57.6873C337.926 56.9539 337.78 56.3206 337.486 55.7873C337.193 55.2406 336.793 54.8139 336.286 54.5073C335.793 54.1873 335.24 54.0273 334.626 54.0273C334.013 54.0273 333.453 54.1873 332.946 54.5073C332.44 54.8139 332.04 55.2406 331.746 55.7873C331.453 56.3206 331.306 56.9539 331.306 57.6873C331.306 58.3939 331.453 59.0206 331.746 59.5673C332.04 60.1139 332.44 60.5406 332.946 60.8473C333.453 61.1539 334.013 61.3073 334.626 61.3073C335.24 61.3073 335.793 61.1539 336.286 60.8473C336.793 60.5406 337.193 60.1139 337.486 59.5673C337.78 59.0206 337.926 58.3939 337.926 57.6873ZM350.03 52.4273C350.31 52.4273 350.543 52.5273 350.73 52.7273C350.93 52.9139 351.03 53.1539 351.03 53.4473V58.7073C351.03 60.0939 350.643 61.1806 349.87 61.9673C349.097 62.7406 348.003 63.1273 346.59 63.1273C345.19 63.1273 344.103 62.7406 343.33 61.9673C342.57 61.1806 342.19 60.0939 342.19 58.7073V53.4473C342.19 53.1539 342.283 52.9139 342.47 52.7273C342.657 52.5273 342.897 52.4273 343.19 52.4273C343.47 52.4273 343.703 52.5273 343.89 52.7273C344.09 52.9139 344.19 53.1539 344.19 53.4473V58.7073C344.19 59.5739 344.39 60.2206 344.79 60.6473C345.203 61.0739 345.803 61.2873 346.59 61.2873C347.39 61.2873 347.997 61.0739 348.41 60.6473C348.823 60.2206 349.03 59.5739 349.03 58.7073V53.4473C349.03 53.1539 349.123 52.9139 349.31 52.7273C349.497 52.5273 349.737 52.4273 350.03 52.4273ZM354.811 62.9473C354.518 62.9473 354.278 62.8539 354.091 62.6673C353.905 62.4673 353.811 62.2206 353.811 61.9273V53.4473C353.811 53.1539 353.905 52.9139 354.091 52.7273C354.278 52.5273 354.518 52.4273 354.811 52.4273C355.091 52.4273 355.325 52.5273 355.511 52.7273C355.711 52.9139 355.811 53.1539 355.811 53.4473V55.6873L355.611 54.8273C355.718 54.4539 355.878 54.1073 356.091 53.7873C356.318 53.4673 356.585 53.1873 356.891 52.9473C357.198 52.7073 357.538 52.5206 357.911 52.3873C358.298 52.2539 358.698 52.1873 359.111 52.1873C359.458 52.1873 359.758 52.2806 360.011 52.4673C360.265 52.6539 360.391 52.8873 360.391 53.1673C360.391 53.5273 360.298 53.7939 360.111 53.9673C359.925 54.1273 359.718 54.2073 359.491 54.2073C359.291 54.2073 359.098 54.1673 358.911 54.0873C358.725 53.9939 358.505 53.9473 358.251 53.9473C357.971 53.9473 357.685 54.0206 357.391 54.1673C357.098 54.3139 356.831 54.5339 356.591 54.8273C356.351 55.1073 356.158 55.4406 356.011 55.8273C355.878 56.2139 355.811 56.6473 355.811 57.1273V61.9273C355.811 62.2206 355.711 62.4673 355.511 62.6673C355.325 62.8539 355.091 62.9473 354.811 62.9473ZM368.737 58.6873C368.35 58.6873 368.144 58.4739 368.117 58.0473L367.657 50.1873C367.63 49.8406 367.717 49.5473 367.917 49.3073C368.117 49.0673 368.39 48.9473 368.737 48.9473C369.07 48.9473 369.337 49.0673 369.537 49.3073C369.75 49.5473 369.837 49.8406 369.797 50.1873L369.357 58.0473C369.33 58.4739 369.124 58.6873 368.737 58.6873ZM368.637 62.9473C368.304 62.9473 368.044 62.8539 367.857 62.6673C367.684 62.4806 367.597 62.2206 367.597 61.8873V61.5273C367.597 61.1806 367.684 60.9206 367.857 60.7473C368.044 60.5606 368.304 60.4673 368.637 60.4673H368.837C369.184 60.4673 369.444 60.5606 369.617 60.7473C369.79 60.9206 369.877 61.1806 369.877 61.5273V61.8873C369.877 62.2206 369.79 62.4806 369.617 62.6673C369.444 62.8539 369.184 62.9473 368.837 62.9473H368.637Z" fill="#24376E"/>
<path d="M585.875 117C585.875 111.201 581.174 106.5 575.375 106.5H278.421C272.622 106.5 267.921 111.201 267.921 117V146.959C267.921 148.26 267.733 149.554 267.362 150.801L265.5 157.073C265.455 157.453 265.811 157.767 266.189 157.662L273.85 155.536C274.583 155.333 275.341 155.23 276.102 155.23H575.375C581.174 155.23 585.875 150.529 585.875 144.73V117Z" fill="#FFFCED" stroke="#FFFCED" stroke-width="3"/>
<path d="M307.161 128.58C307.161 129.593 306.994 130.54 306.661 131.42C306.328 132.287 305.854 133.047 305.241 133.7C304.641 134.353 303.928 134.867 303.101 135.24C302.274 135.6 301.368 135.78 300.381 135.78C299.408 135.78 298.508 135.6 297.681 135.24C296.854 134.867 296.134 134.353 295.521 133.7C294.921 133.047 294.454 132.287 294.121 131.42C293.801 130.54 293.641 129.593 293.641 128.58C293.641 127.567 293.801 126.627 294.121 125.76C294.454 124.88 294.921 124.113 295.521 123.46C296.134 122.807 296.854 122.3 297.681 121.94C298.508 121.567 299.408 121.38 300.381 121.38C301.368 121.38 302.274 121.567 303.101 121.94C303.928 122.3 304.641 122.807 305.241 123.46C305.854 124.113 306.328 124.88 306.661 125.76C306.994 126.627 307.161 127.567 307.161 128.58ZM305.001 128.58C305.001 127.593 304.801 126.707 304.401 125.92C304.014 125.133 303.474 124.513 302.781 124.06C302.088 123.607 301.288 123.38 300.381 123.38C299.488 123.38 298.694 123.607 298.001 124.06C297.308 124.513 296.768 125.133 296.381 125.92C295.994 126.693 295.801 127.58 295.801 128.58C295.801 129.567 295.994 130.453 296.381 131.24C296.768 132.027 297.308 132.647 298.001 133.1C298.694 133.553 299.488 133.78 300.381 133.78C301.288 133.78 302.088 133.553 302.781 133.1C303.474 132.647 304.014 132.027 304.401 131.24C304.801 130.453 305.001 129.567 305.001 128.58ZM314.816 124.82C315.763 124.82 316.496 125.02 317.016 125.42C317.536 125.807 317.896 126.333 318.096 127C318.309 127.653 318.416 128.387 318.416 129.2V134.56C318.416 134.853 318.316 135.1 318.116 135.3C317.929 135.487 317.696 135.58 317.416 135.58C317.123 135.58 316.883 135.487 316.696 135.3C316.509 135.1 316.416 134.853 316.416 134.56V129.22C316.416 128.74 316.349 128.313 316.216 127.94C316.083 127.553 315.849 127.247 315.516 127.02C315.196 126.78 314.743 126.66 314.156 126.66C313.609 126.66 313.129 126.78 312.716 127.02C312.303 127.247 311.976 127.553 311.736 127.94C311.509 128.313 311.396 128.74 311.396 129.22V134.56C311.396 134.853 311.296 135.1 311.096 135.3C310.909 135.487 310.676 135.58 310.396 135.58C310.103 135.58 309.863 135.487 309.676 135.3C309.489 135.1 309.396 134.853 309.396 134.56V126.08C309.396 125.787 309.489 125.547 309.676 125.36C309.863 125.16 310.103 125.06 310.396 125.06C310.676 125.06 310.909 125.16 311.096 125.36C311.296 125.547 311.396 125.787 311.396 126.08V127.2L311.036 127.4C311.129 127.107 311.289 126.813 311.516 126.52C311.756 126.213 312.043 125.933 312.376 125.68C312.709 125.413 313.083 125.207 313.496 125.06C313.909 124.9 314.349 124.82 314.816 124.82ZM332.059 124.88C332.993 124.88 333.819 125.113 334.539 125.58C335.273 126.047 335.853 126.687 336.279 127.5C336.706 128.3 336.919 129.233 336.919 130.3C336.919 131.367 336.706 132.313 336.279 133.14C335.853 133.953 335.279 134.593 334.559 135.06C333.839 135.527 333.026 135.76 332.119 135.76C331.613 135.76 331.133 135.68 330.679 135.52C330.226 135.36 329.826 135.153 329.479 134.9C329.133 134.633 328.846 134.353 328.619 134.06C328.406 133.767 328.273 133.493 328.219 133.24L328.759 132.98V138.56C328.759 138.853 328.659 139.093 328.459 139.28C328.273 139.48 328.039 139.58 327.759 139.58C327.466 139.58 327.226 139.48 327.039 139.28C326.853 139.093 326.759 138.853 326.759 138.56V126.04C326.759 125.76 326.853 125.52 327.039 125.32C327.226 125.12 327.466 125.02 327.759 125.02C328.039 125.02 328.273 125.12 328.459 125.32C328.659 125.52 328.759 125.76 328.759 126.04V127.42L328.439 127.24C328.479 126.987 328.606 126.727 328.819 126.46C329.033 126.18 329.299 125.92 329.619 125.68C329.953 125.44 330.326 125.247 330.739 125.1C331.166 124.953 331.606 124.88 332.059 124.88ZM331.839 126.72C331.199 126.72 330.639 126.88 330.159 127.2C329.693 127.507 329.326 127.927 329.059 128.46C328.793 128.993 328.659 129.607 328.659 130.3C328.659 130.98 328.793 131.6 329.059 132.16C329.326 132.707 329.693 133.14 330.159 133.46C330.639 133.767 331.199 133.92 331.839 133.92C332.466 133.92 333.013 133.767 333.479 133.46C333.946 133.14 334.313 132.707 334.579 132.16C334.859 131.6 334.999 130.98 334.999 130.3C334.999 129.62 334.859 129.013 334.579 128.48C334.313 127.933 333.946 127.507 333.479 127.2C333.013 126.88 332.466 126.72 331.839 126.72ZM341.341 134.56C341.341 134.853 341.241 135.1 341.041 135.3C340.854 135.487 340.621 135.58 340.341 135.58C340.061 135.58 339.821 135.487 339.621 135.3C339.434 135.1 339.341 134.853 339.341 134.56V121.8C339.341 121.507 339.441 121.267 339.641 121.08C339.841 120.88 340.081 120.78 340.361 120.78C340.654 120.78 340.888 120.88 341.061 121.08C341.248 121.267 341.341 121.507 341.341 121.8V134.56ZM352.938 124.9C353.231 124.9 353.471 125 353.658 125.2C353.845 125.387 353.938 125.627 353.938 125.92V134.56C353.938 134.853 353.845 135.1 353.658 135.3C353.471 135.487 353.231 135.58 352.938 135.58C352.658 135.58 352.418 135.487 352.218 135.3C352.031 135.1 351.938 134.853 351.938 134.56V133.12L352.358 133.18C352.358 133.42 352.258 133.687 352.058 133.98C351.871 134.273 351.611 134.56 351.278 134.84C350.945 135.107 350.551 135.333 350.098 135.52C349.645 135.693 349.158 135.78 348.638 135.78C347.718 135.78 346.891 135.547 346.158 135.08C345.425 134.6 344.845 133.947 344.418 133.12C343.991 132.293 343.778 131.353 343.778 130.3C343.778 129.22 343.991 128.273 344.418 127.46C344.845 126.633 345.418 125.987 346.138 125.52C346.871 125.053 347.685 124.82 348.578 124.82C349.151 124.82 349.678 124.913 350.158 125.1C350.651 125.287 351.078 125.527 351.438 125.82C351.798 126.113 352.071 126.427 352.258 126.76C352.458 127.08 352.558 127.387 352.558 127.68L351.938 127.74V125.92C351.938 125.64 352.031 125.4 352.218 125.2C352.418 125 352.658 124.9 352.938 124.9ZM348.858 133.94C349.485 133.94 350.038 133.78 350.518 133.46C350.998 133.14 351.371 132.707 351.638 132.16C351.905 131.6 352.038 130.98 352.038 130.3C352.038 129.607 351.905 128.987 351.638 128.44C351.371 127.893 350.998 127.46 350.518 127.14C350.038 126.82 349.485 126.66 348.858 126.66C348.245 126.66 347.698 126.82 347.218 127.14C346.751 127.46 346.378 127.893 346.098 128.44C345.831 128.987 345.698 129.607 345.698 130.3C345.698 130.98 345.831 131.6 346.098 132.16C346.378 132.707 346.751 133.14 347.218 133.46C347.698 133.78 348.245 133.94 348.858 133.94ZM362.16 124.82C363.106 124.82 363.84 125.02 364.36 125.42C364.88 125.807 365.24 126.333 365.44 127C365.653 127.653 365.76 128.387 365.76 129.2V134.56C365.76 134.853 365.66 135.1 365.46 135.3C365.273 135.487 365.04 135.58 364.76 135.58C364.466 135.58 364.226 135.487 364.04 135.3C363.853 135.1 363.76 134.853 363.76 134.56V129.22C363.76 128.74 363.693 128.313 363.56 127.94C363.426 127.553 363.193 127.247 362.86 127.02C362.54 126.78 362.086 126.66 361.5 126.66C360.953 126.66 360.473 126.78 360.06 127.02C359.646 127.247 359.32 127.553 359.08 127.94C358.853 128.313 358.74 128.74 358.74 129.22V134.56C358.74 134.853 358.64 135.1 358.44 135.3C358.253 135.487 358.02 135.58 357.74 135.58C357.446 135.58 357.206 135.487 357.02 135.3C356.833 135.1 356.74 134.853 356.74 134.56V126.08C356.74 125.787 356.833 125.547 357.02 125.36C357.206 125.16 357.446 125.06 357.74 125.06C358.02 125.06 358.253 125.16 358.44 125.36C358.64 125.547 358.74 125.787 358.74 126.08V127.2L358.38 127.4C358.473 127.107 358.633 126.813 358.86 126.52C359.1 126.213 359.386 125.933 359.72 125.68C360.053 125.413 360.426 125.207 360.84 125.06C361.253 124.9 361.693 124.82 362.16 124.82ZM370.417 134.56C370.417 134.853 370.323 135.1 370.137 135.3C369.95 135.487 369.71 135.58 369.417 135.58C369.137 135.58 368.897 135.487 368.697 135.3C368.51 135.1 368.417 134.853 368.417 134.56V126C368.417 125.707 368.51 125.467 368.697 125.28C368.897 125.08 369.137 124.98 369.417 124.98C369.71 124.98 369.95 125.08 370.137 125.28C370.323 125.467 370.417 125.707 370.417 126V134.56ZM369.397 123.66C369.01 123.66 368.73 123.593 368.557 123.46C368.383 123.313 368.297 123.073 368.297 122.74V122.42C368.297 122.087 368.39 121.853 368.577 121.72C368.763 121.587 369.043 121.52 369.417 121.52C369.817 121.52 370.103 121.593 370.277 121.74C370.45 121.873 370.537 122.1 370.537 122.42V122.74C370.537 123.087 370.443 123.327 370.257 123.46C370.083 123.593 369.797 123.66 369.397 123.66ZM378.007 120.8C378.26 120.8 378.52 120.833 378.787 120.9C379.054 120.967 379.274 121.08 379.447 121.24C379.634 121.387 379.727 121.593 379.727 121.86C379.727 122.127 379.647 122.347 379.487 122.52C379.327 122.68 379.14 122.76 378.927 122.76C378.794 122.76 378.614 122.733 378.387 122.68C378.16 122.613 377.934 122.58 377.707 122.58C377.4 122.58 377.154 122.653 376.967 122.8C376.78 122.933 376.647 123.107 376.567 123.32C376.487 123.52 376.447 123.72 376.447 123.92V134.56C376.447 134.853 376.347 135.1 376.147 135.3C375.96 135.487 375.727 135.58 375.447 135.58C375.154 135.58 374.914 135.487 374.727 135.3C374.54 135.1 374.447 134.853 374.447 134.56V123.94C374.447 123.02 374.747 122.267 375.347 121.68C375.96 121.093 376.847 120.8 378.007 120.8ZM378.407 125.24C378.674 125.24 378.894 125.327 379.067 125.5C379.24 125.673 379.327 125.893 379.327 126.16C379.327 126.427 379.24 126.647 379.067 126.82C378.894 126.993 378.674 127.08 378.407 127.08H373.227C372.974 127.08 372.754 126.993 372.567 126.82C372.394 126.647 372.307 126.427 372.307 126.16C372.307 125.893 372.394 125.673 372.567 125.5C372.754 125.327 372.974 125.24 373.227 125.24H378.407ZM383.207 134.56C383.207 134.853 383.114 135.1 382.927 135.3C382.74 135.487 382.5 135.58 382.207 135.58C381.927 135.58 381.687 135.487 381.487 135.3C381.3 135.1 381.207 134.853 381.207 134.56V126C381.207 125.707 381.3 125.467 381.487 125.28C381.687 125.08 381.927 124.98 382.207 124.98C382.5 124.98 382.74 125.08 382.927 125.28C383.114 125.467 383.207 125.707 383.207 126V134.56ZM382.207 123.66C381.82 123.66 381.54 123.593 381.367 123.46C381.194 123.313 381.107 123.073 381.107 122.74V122.42C381.107 122.087 381.2 121.853 381.387 121.72C381.574 121.587 381.854 121.52 382.227 121.52C382.627 121.52 382.914 121.593 383.087 121.74C383.26 121.873 383.347 122.1 383.347 122.42V122.74C383.347 123.087 383.254 123.327 383.067 123.46C382.894 123.593 382.607 123.66 382.207 123.66ZM390.8 135.78C389.693 135.78 388.733 135.553 387.92 135.1C387.107 134.633 386.473 134 386.02 133.2C385.58 132.387 385.36 131.46 385.36 130.42C385.36 129.247 385.593 128.247 386.06 127.42C386.54 126.58 387.16 125.94 387.92 125.5C388.68 125.047 389.487 124.82 390.34 124.82C390.993 124.82 391.613 124.953 392.2 125.22C392.787 125.473 393.307 125.833 393.76 126.3C394.227 126.753 394.593 127.293 394.86 127.92C395.127 128.533 395.267 129.207 395.28 129.94C395.267 130.207 395.16 130.427 394.96 130.6C394.76 130.773 394.527 130.86 394.26 130.86H386.48L386 129.16H393.52L393.14 129.52V129.02C393.113 128.553 392.96 128.147 392.68 127.8C392.4 127.44 392.053 127.167 391.64 126.98C391.227 126.78 390.793 126.68 390.34 126.68C389.94 126.68 389.553 126.747 389.18 126.88C388.82 127 388.493 127.2 388.2 127.48C387.92 127.76 387.693 128.133 387.52 128.6C387.36 129.053 387.28 129.62 387.28 130.3C387.28 131.033 387.433 131.673 387.74 132.22C388.047 132.767 388.46 133.193 388.98 133.5C389.5 133.793 390.073 133.94 390.7 133.94C391.193 133.94 391.6 133.893 391.92 133.8C392.24 133.693 392.507 133.567 392.72 133.42C392.933 133.273 393.12 133.133 393.28 133C393.48 132.88 393.68 132.82 393.88 132.82C394.12 132.82 394.32 132.907 394.48 133.08C394.64 133.24 394.72 133.433 394.72 133.66C394.72 133.953 394.573 134.22 394.28 134.46C393.92 134.807 393.42 135.113 392.78 135.38C392.153 135.647 391.493 135.78 390.8 135.78ZM403.347 124.96C403.547 124.96 403.734 125.013 403.907 125.12C404.094 125.227 404.227 125.387 404.307 125.6L407.447 132.86L407.067 133.04L410.247 125.62C410.434 125.18 410.734 124.967 411.147 124.98C411.414 124.98 411.634 125.067 411.807 125.24C411.994 125.4 412.087 125.613 412.087 125.88C412.087 125.96 412.074 126.047 412.047 126.14C412.02 126.22 411.987 126.3 411.947 126.38L408.147 134.94C407.974 135.34 407.687 135.553 407.287 135.58C407.087 135.607 406.887 135.567 406.687 135.46C406.5 135.34 406.354 135.167 406.247 134.94L402.467 126.38C402.44 126.327 402.414 126.26 402.387 126.18C402.36 126.087 402.347 125.98 402.347 125.86C402.347 125.66 402.434 125.46 402.607 125.26C402.794 125.06 403.04 124.96 403.347 124.96ZM424.105 130.32C424.105 131.387 423.872 132.333 423.405 133.16C422.938 133.973 422.305 134.613 421.505 135.08C420.705 135.547 419.805 135.78 418.805 135.78C417.805 135.78 416.905 135.547 416.105 135.08C415.305 134.613 414.665 133.973 414.185 133.16C413.718 132.333 413.485 131.387 413.485 130.32C413.485 129.24 413.718 128.293 414.185 127.48C414.665 126.653 415.305 126.007 416.105 125.54C416.905 125.06 417.805 124.82 418.805 124.82C419.805 124.82 420.705 125.06 421.505 125.54C422.305 126.007 422.938 126.653 423.405 127.48C423.872 128.293 424.105 129.24 424.105 130.32ZM422.105 130.32C422.105 129.587 421.958 128.953 421.665 128.42C421.372 127.873 420.972 127.447 420.465 127.14C419.972 126.82 419.418 126.66 418.805 126.66C418.192 126.66 417.632 126.82 417.125 127.14C416.618 127.447 416.218 127.873 415.925 128.42C415.632 128.953 415.485 129.587 415.485 130.32C415.485 131.027 415.632 131.653 415.925 132.2C416.218 132.747 416.618 133.173 417.125 133.48C417.632 133.787 418.192 133.94 418.805 133.94C419.418 133.94 419.972 133.787 420.465 133.48C420.972 133.173 421.372 132.747 421.665 132.2C421.958 131.653 422.105 131.027 422.105 130.32ZM426.229 125.18H430.929C431.195 125.18 431.415 125.273 431.589 125.46C431.775 125.633 431.869 125.853 431.869 126.12C431.869 126.373 431.775 126.587 431.589 126.76C431.415 126.933 431.195 127.02 430.929 127.02H426.229C425.962 127.02 425.735 126.933 425.549 126.76C425.375 126.573 425.289 126.353 425.289 126.1C425.289 125.833 425.375 125.613 425.549 125.44C425.735 125.267 425.962 125.18 426.229 125.18ZM428.329 122.58C428.622 122.58 428.862 122.68 429.049 122.88C429.235 123.067 429.329 123.307 429.329 123.6V132.88C429.329 133.12 429.369 133.313 429.449 133.46C429.529 133.607 429.635 133.707 429.769 133.76C429.915 133.813 430.062 133.84 430.209 133.84C430.355 133.84 430.482 133.813 430.589 133.76C430.709 133.707 430.849 133.68 431.009 133.68C431.169 133.68 431.315 133.753 431.449 133.9C431.582 134.047 431.649 134.247 431.649 134.5C431.649 134.82 431.475 135.08 431.129 135.28C430.782 135.48 430.409 135.58 430.009 135.58C429.782 135.58 429.515 135.56 429.209 135.52C428.902 135.48 428.602 135.38 428.309 135.22C428.029 135.06 427.795 134.807 427.609 134.46C427.422 134.1 427.329 133.6 427.329 132.96V123.6C427.329 123.307 427.422 123.067 427.609 122.88C427.809 122.68 428.049 122.58 428.329 122.58ZM435.083 135.58C434.79 135.58 434.55 135.487 434.363 135.3C434.177 135.1 434.083 134.853 434.083 134.56V126.08C434.083 125.787 434.177 125.547 434.363 125.36C434.55 125.16 434.79 125.06 435.083 125.06C435.363 125.06 435.597 125.16 435.783 125.36C435.983 125.547 436.083 125.787 436.083 126.08V128.32L435.883 127.46C435.99 127.087 436.15 126.74 436.363 126.42C436.59 126.1 436.857 125.82 437.163 125.58C437.47 125.34 437.81 125.153 438.183 125.02C438.57 124.887 438.97 124.82 439.383 124.82C439.73 124.82 440.03 124.913 440.283 125.1C440.537 125.287 440.663 125.52 440.663 125.8C440.663 126.16 440.57 126.427 440.383 126.6C440.197 126.76 439.99 126.84 439.763 126.84C439.563 126.84 439.37 126.8 439.183 126.72C438.997 126.627 438.777 126.58 438.523 126.58C438.243 126.58 437.957 126.653 437.663 126.8C437.37 126.947 437.103 127.167 436.863 127.46C436.623 127.74 436.43 128.073 436.283 128.46C436.15 128.847 436.083 129.28 436.083 129.76V134.56C436.083 134.853 435.983 135.1 435.783 135.3C435.597 135.487 435.363 135.58 435.083 135.58ZM446.894 135.78C445.787 135.78 444.827 135.553 444.014 135.1C443.2 134.633 442.567 134 442.114 133.2C441.674 132.387 441.454 131.46 441.454 130.42C441.454 129.247 441.687 128.247 442.154 127.42C442.634 126.58 443.254 125.94 444.014 125.5C444.774 125.047 445.58 124.82 446.434 124.82C447.087 124.82 447.707 124.953 448.294 125.22C448.88 125.473 449.4 125.833 449.854 126.3C450.32 126.753 450.687 127.293 450.954 127.92C451.22 128.533 451.36 129.207 451.374 129.94C451.36 130.207 451.254 130.427 451.054 130.6C450.854 130.773 450.62 130.86 450.354 130.86H442.574L442.094 129.16H449.614L449.234 129.52V129.02C449.207 128.553 449.054 128.147 448.774 127.8C448.494 127.44 448.147 127.167 447.734 126.98C447.32 126.78 446.887 126.68 446.434 126.68C446.034 126.68 445.647 126.747 445.274 126.88C444.914 127 444.587 127.2 444.294 127.48C444.014 127.76 443.787 128.133 443.614 128.6C443.454 129.053 443.374 129.62 443.374 130.3C443.374 131.033 443.527 131.673 443.834 132.22C444.14 132.767 444.554 133.193 445.074 133.5C445.594 133.793 446.167 133.94 446.794 133.94C447.287 133.94 447.694 133.893 448.014 133.8C448.334 133.693 448.6 133.567 448.814 133.42C449.027 133.273 449.214 133.133 449.374 133C449.574 132.88 449.774 132.82 449.974 132.82C450.214 132.82 450.414 132.907 450.574 133.08C450.734 133.24 450.814 133.433 450.814 133.66C450.814 133.953 450.667 134.22 450.374 134.46C450.014 134.807 449.514 135.113 448.874 135.38C448.247 135.647 447.587 135.78 446.894 135.78ZM464.481 124.88C465.467 124.88 466.227 125.127 466.761 125.62C467.294 126.1 467.647 126.753 467.821 127.58L467.501 127.48L467.641 127.16C467.814 126.813 468.074 126.467 468.421 126.12C468.781 125.76 469.207 125.467 469.701 125.24C470.194 125 470.721 124.88 471.281 124.88C472.201 124.88 472.914 125.08 473.421 125.48C473.927 125.867 474.281 126.393 474.481 127.06C474.681 127.713 474.781 128.447 474.781 129.26V134.56C474.781 134.853 474.687 135.1 474.501 135.3C474.314 135.487 474.074 135.58 473.781 135.58C473.501 135.58 473.261 135.487 473.061 135.3C472.874 135.1 472.781 134.853 472.781 134.56V129.28C472.781 128.813 472.714 128.387 472.581 128C472.461 127.613 472.241 127.307 471.921 127.08C471.614 126.84 471.187 126.72 470.641 126.72C470.121 126.72 469.654 126.84 469.241 127.08C468.841 127.307 468.527 127.613 468.301 128C468.074 128.387 467.961 128.813 467.961 129.28V134.56C467.961 134.853 467.867 135.1 467.681 135.3C467.494 135.487 467.254 135.58 466.961 135.58C466.667 135.58 466.427 135.487 466.241 135.3C466.054 135.1 465.961 134.853 465.961 134.56V129.26C465.961 128.793 465.894 128.367 465.761 127.98C465.641 127.593 465.427 127.287 465.121 127.06C464.814 126.833 464.387 126.72 463.841 126.72C463.321 126.72 462.861 126.833 462.461 127.06C462.061 127.287 461.747 127.593 461.521 127.98C461.307 128.367 461.201 128.793 461.201 129.26V134.56C461.201 134.853 461.101 135.1 460.901 135.3C460.714 135.487 460.481 135.58 460.201 135.58C459.907 135.58 459.667 135.487 459.481 135.3C459.294 135.1 459.201 134.853 459.201 134.56V126.08C459.201 125.787 459.294 125.547 459.481 125.36C459.667 125.16 459.907 125.06 460.201 125.06C460.481 125.06 460.714 125.16 460.901 125.36C461.101 125.547 461.201 125.787 461.201 126.08V127.26L460.821 127.48C460.914 127.187 461.067 126.887 461.281 126.58C461.494 126.273 461.761 125.993 462.081 125.74C462.414 125.487 462.781 125.28 463.181 125.12C463.581 124.96 464.014 124.88 464.481 124.88ZM482.48 135.78C481.373 135.78 480.413 135.553 479.6 135.1C478.786 134.633 478.153 134 477.7 133.2C477.26 132.387 477.04 131.46 477.04 130.42C477.04 129.247 477.273 128.247 477.74 127.42C478.22 126.58 478.84 125.94 479.6 125.5C480.36 125.047 481.166 124.82 482.02 124.82C482.673 124.82 483.293 124.953 483.88 125.22C484.466 125.473 484.986 125.833 485.44 126.3C485.906 126.753 486.273 127.293 486.54 127.92C486.806 128.533 486.946 129.207 486.96 129.94C486.946 130.207 486.84 130.427 486.64 130.6C486.44 130.773 486.206 130.86 485.94 130.86H478.16L477.68 129.16H485.2L484.82 129.52V129.02C484.793 128.553 484.64 128.147 484.36 127.8C484.08 127.44 483.733 127.167 483.32 126.98C482.906 126.78 482.473 126.68 482.02 126.68C481.62 126.68 481.233 126.747 480.86 126.88C480.5 127 480.173 127.2 479.88 127.48C479.6 127.76 479.373 128.133 479.2 128.6C479.04 129.053 478.96 129.62 478.96 130.3C478.96 131.033 479.113 131.673 479.42 132.22C479.726 132.767 480.14 133.193 480.66 133.5C481.18 133.793 481.753 133.94 482.38 133.94C482.873 133.94 483.28 133.893 483.6 133.8C483.92 133.693 484.186 133.567 484.4 133.42C484.613 133.273 484.8 133.133 484.96 133C485.16 132.88 485.36 132.82 485.56 132.82C485.8 132.82 486 132.907 486.16 133.08C486.32 133.24 486.4 133.433 486.4 133.66C486.4 133.953 486.253 134.22 485.96 134.46C485.6 134.807 485.1 135.113 484.46 135.38C483.833 135.647 483.173 135.78 482.48 135.78ZM497.918 124.9C498.212 124.9 498.452 125 498.638 125.2C498.825 125.387 498.918 125.627 498.918 125.92V134.56C498.918 134.853 498.825 135.1 498.638 135.3C498.452 135.487 498.212 135.58 497.918 135.58C497.638 135.58 497.398 135.487 497.198 135.3C497.012 135.1 496.918 134.853 496.918 134.56V133.12L497.338 133.18C497.338 133.42 497.238 133.687 497.038 133.98C496.852 134.273 496.592 134.56 496.258 134.84C495.925 135.107 495.532 135.333 495.078 135.52C494.625 135.693 494.138 135.78 493.618 135.78C492.698 135.78 491.872 135.547 491.138 135.08C490.405 134.6 489.825 133.947 489.398 133.12C488.972 132.293 488.758 131.353 488.758 130.3C488.758 129.22 488.972 128.273 489.398 127.46C489.825 126.633 490.398 125.987 491.118 125.52C491.852 125.053 492.665 124.82 493.558 124.82C494.132 124.82 494.658 124.913 495.138 125.1C495.632 125.287 496.058 125.527 496.418 125.82C496.778 126.113 497.052 126.427 497.238 126.76C497.438 127.08 497.538 127.387 497.538 127.68L496.918 127.74V125.92C496.918 125.64 497.012 125.4 497.198 125.2C497.398 125 497.638 124.9 497.918 124.9ZM493.838 133.94C494.465 133.94 495.018 133.78 495.498 133.46C495.978 133.14 496.352 132.707 496.618 132.16C496.885 131.6 497.018 130.98 497.018 130.3C497.018 129.607 496.885 128.987 496.618 128.44C496.352 127.893 495.978 127.46 495.498 127.14C495.018 126.82 494.465 126.66 493.838 126.66C493.225 126.66 492.678 126.82 492.198 127.14C491.732 127.46 491.358 127.893 491.078 128.44C490.812 128.987 490.678 129.607 490.678 130.3C490.678 130.98 490.812 131.6 491.078 132.16C491.358 132.707 491.732 133.14 492.198 133.46C492.678 133.78 493.225 133.94 493.838 133.94ZM503.88 134.56C503.88 134.853 503.78 135.1 503.58 135.3C503.394 135.487 503.16 135.58 502.88 135.58C502.6 135.58 502.36 135.487 502.16 135.3C501.974 135.1 501.88 134.853 501.88 134.56V121.8C501.88 121.507 501.98 121.267 502.18 121.08C502.38 120.88 502.62 120.78 502.9 120.78C503.194 120.78 503.427 120.88 503.6 121.08C503.787 121.267 503.88 121.507 503.88 121.8V134.56ZM517.723 124.88C518.657 124.88 519.483 125.113 520.203 125.58C520.937 126.047 521.517 126.687 521.943 127.5C522.37 128.3 522.583 129.233 522.583 130.3C522.583 131.367 522.37 132.313 521.943 133.14C521.517 133.953 520.943 134.593 520.223 135.06C519.503 135.527 518.69 135.76 517.783 135.76C517.277 135.76 516.797 135.68 516.343 135.52C515.89 135.36 515.49 135.153 515.143 134.9C514.797 134.633 514.51 134.353 514.283 134.06C514.07 133.767 513.937 133.493 513.883 133.24L514.423 132.98V138.56C514.423 138.853 514.323 139.093 514.123 139.28C513.937 139.48 513.703 139.58 513.423 139.58C513.13 139.58 512.89 139.48 512.703 139.28C512.517 139.093 512.423 138.853 512.423 138.56V126.04C512.423 125.76 512.517 125.52 512.703 125.32C512.89 125.12 513.13 125.02 513.423 125.02C513.703 125.02 513.937 125.12 514.123 125.32C514.323 125.52 514.423 125.76 514.423 126.04V127.42L514.103 127.24C514.143 126.987 514.27 126.727 514.483 126.46C514.697 126.18 514.963 125.92 515.283 125.68C515.617 125.44 515.99 125.247 516.403 125.1C516.83 124.953 517.27 124.88 517.723 124.88ZM517.503 126.72C516.863 126.72 516.303 126.88 515.823 127.2C515.357 127.507 514.99 127.927 514.723 128.46C514.457 128.993 514.323 129.607 514.323 130.3C514.323 130.98 514.457 131.6 514.723 132.16C514.99 132.707 515.357 133.14 515.823 133.46C516.303 133.767 516.863 133.92 517.503 133.92C518.13 133.92 518.677 133.767 519.143 133.46C519.61 133.14 519.977 132.707 520.243 132.16C520.523 131.6 520.663 130.98 520.663 130.3C520.663 129.62 520.523 129.013 520.243 128.48C519.977 127.933 519.61 127.507 519.143 127.2C518.677 126.88 518.13 126.72 517.503 126.72ZM525.845 135.58C525.552 135.58 525.312 135.487 525.125 135.3C524.939 135.1 524.845 134.853 524.845 134.56V126.08C524.845 125.787 524.939 125.547 525.125 125.36C525.312 125.16 525.552 125.06 525.845 125.06C526.125 125.06 526.359 125.16 526.545 125.36C526.745 125.547 526.845 125.787 526.845 126.08V128.32L526.645 127.46C526.752 127.087 526.912 126.74 527.125 126.42C527.352 126.1 527.619 125.82 527.925 125.58C528.232 125.34 528.572 125.153 528.945 125.02C529.332 124.887 529.732 124.82 530.145 124.82C530.492 124.82 530.792 124.913 531.045 125.1C531.299 125.287 531.425 125.52 531.425 125.8C531.425 126.16 531.332 126.427 531.145 126.6C530.959 126.76 530.752 126.84 530.525 126.84C530.325 126.84 530.132 126.8 529.945 126.72C529.759 126.627 529.539 126.58 529.285 126.58C529.005 126.58 528.719 126.653 528.425 126.8C528.132 126.947 527.865 127.167 527.625 127.46C527.385 127.74 527.192 128.073 527.045 128.46C526.912 128.847 526.845 129.28 526.845 129.76V134.56C526.845 134.853 526.745 135.1 526.545 135.3C526.359 135.487 526.125 135.58 525.845 135.58ZM537.655 135.78C536.549 135.78 535.589 135.553 534.775 135.1C533.962 134.633 533.329 134 532.875 133.2C532.435 132.387 532.215 131.46 532.215 130.42C532.215 129.247 532.449 128.247 532.915 127.42C533.395 126.58 534.015 125.94 534.775 125.5C535.535 125.047 536.342 124.82 537.195 124.82C537.849 124.82 538.469 124.953 539.055 125.22C539.642 125.473 540.162 125.833 540.615 126.3C541.082 126.753 541.449 127.293 541.715 127.92C541.982 128.533 542.122 129.207 542.135 129.94C542.122 130.207 542.015 130.427 541.815 130.6C541.615 130.773 541.382 130.86 541.115 130.86H533.335L532.855 129.16H540.375L539.995 129.52V129.02C539.969 128.553 539.815 128.147 539.535 127.8C539.255 127.44 538.909 127.167 538.495 126.98C538.082 126.78 537.649 126.68 537.195 126.68C536.795 126.68 536.409 126.747 536.035 126.88C535.675 127 535.349 127.2 535.055 127.48C534.775 127.76 534.549 128.133 534.375 128.6C534.215 129.053 534.135 129.62 534.135 130.3C534.135 131.033 534.289 131.673 534.595 132.22C534.902 132.767 535.315 133.193 535.835 133.5C536.355 133.793 536.929 133.94 537.555 133.94C538.049 133.94 538.455 133.893 538.775 133.8C539.095 133.693 539.362 133.567 539.575 133.42C539.789 133.273 539.975 133.133 540.135 133C540.335 132.88 540.535 132.82 540.735 132.82C540.975 132.82 541.175 132.907 541.335 133.08C541.495 133.24 541.575 133.433 541.575 133.66C541.575 133.953 541.429 134.22 541.135 134.46C540.775 134.807 540.275 135.113 539.635 135.38C539.009 135.647 538.349 135.78 537.655 135.78ZM549.696 124.88C550.629 124.88 551.456 125.113 552.176 125.58C552.909 126.047 553.489 126.687 553.916 127.5C554.343 128.3 554.556 129.233 554.556 130.3C554.556 131.367 554.343 132.313 553.916 133.14C553.489 133.953 552.916 134.593 552.196 135.06C551.476 135.527 550.663 135.76 549.756 135.76C549.249 135.76 548.769 135.68 548.316 135.52C547.863 135.36 547.463 135.153 547.116 134.9C546.769 134.633 546.483 134.353 546.256 134.06C546.043 133.767 545.909 133.493 545.856 133.24L546.396 132.98V138.56C546.396 138.853 546.296 139.093 546.096 139.28C545.909 139.48 545.676 139.58 545.396 139.58C545.103 139.58 544.863 139.48 544.676 139.28C544.489 139.093 544.396 138.853 544.396 138.56V126.04C544.396 125.76 544.489 125.52 544.676 125.32C544.863 125.12 545.103 125.02 545.396 125.02C545.676 125.02 545.909 125.12 546.096 125.32C546.296 125.52 546.396 125.76 546.396 126.04V127.42L546.076 127.24C546.116 126.987 546.243 126.727 546.456 126.46C546.669 126.18 546.936 125.92 547.256 125.68C547.589 125.44 547.963 125.247 548.376 125.1C548.803 124.953 549.243 124.88 549.696 124.88ZM549.476 126.72C548.836 126.72 548.276 126.88 547.796 127.2C547.329 127.507 546.963 127.927 546.696 128.46C546.429 128.993 546.296 129.607 546.296 130.3C546.296 130.98 546.429 131.6 546.696 132.16C546.963 132.707 547.329 133.14 547.796 133.46C548.276 133.767 548.836 133.92 549.476 133.92C550.103 133.92 550.649 133.767 551.116 133.46C551.583 133.14 551.949 132.707 552.216 132.16C552.496 131.6 552.636 130.98 552.636 130.3C552.636 129.62 552.496 129.013 552.216 128.48C551.949 127.933 551.583 127.507 551.116 127.2C550.649 126.88 550.103 126.72 549.476 126.72ZM564.404 129.12C564.404 128.84 564.498 128.6 564.684 128.4C564.884 128.2 565.124 128.1 565.404 128.1C565.978 128.087 566.491 127.98 566.944 127.78C567.398 127.58 567.758 127.28 568.024 126.88C568.291 126.48 568.424 125.98 568.424 125.38C568.424 124.86 568.304 124.413 568.064 124.04C567.838 123.653 567.524 123.353 567.124 123.14C566.724 122.913 566.271 122.8 565.764 122.8C565.324 122.8 564.918 122.887 564.544 123.06C564.171 123.233 563.838 123.46 563.544 123.74C563.371 123.9 563.158 124.02 562.904 124.1C562.664 124.167 562.418 124.107 562.164 123.92C561.898 123.733 561.751 123.5 561.724 123.22C561.698 122.94 561.798 122.68 562.024 122.44C562.478 121.933 563.031 121.533 563.684 121.24C564.338 120.947 565.031 120.8 565.764 120.8C566.631 120.8 567.418 121 568.124 121.4C568.831 121.8 569.391 122.34 569.804 123.02C570.218 123.7 570.424 124.487 570.424 125.38C570.424 125.993 570.324 126.553 570.124 127.06C569.924 127.567 569.638 128.007 569.264 128.38C568.891 128.753 568.458 129.053 567.964 129.28C567.484 129.507 566.958 129.653 566.384 129.72C566.358 129.733 566.344 129.74 566.344 129.74C566.358 129.74 566.378 129.74 566.404 129.74V130.94C566.404 131.22 566.304 131.46 566.104 131.66C565.918 131.847 565.684 131.94 565.404 131.94C565.111 131.94 564.871 131.847 564.684 131.66C564.498 131.46 564.404 131.22 564.404 130.94V129.12ZM565.344 135.58C565.011 135.58 564.751 135.487 564.564 135.3C564.391 135.113 564.304 134.853 564.304 134.52V134.16C564.304 133.813 564.391 133.553 564.564 133.38C564.751 133.193 565.011 133.1 565.344 133.1H565.544C565.891 133.1 566.151 133.193 566.324 133.38C566.498 133.553 566.584 133.813 566.584 134.16V134.52C566.584 134.853 566.498 135.113 566.324 135.3C566.151 135.487 565.891 135.58 565.544 135.58H565.344Z" fill="#24376E"/>
</svg>
