<svg width="314" height="480" viewBox="0 0 314 480" fill="none" xmlns="http://www.w3.org/2000/svg">
<g clip-path="url(#clip0_944_38)">
<path d="M182.075 101.011C167.395 75.1392 136.369 53.9218 106.115 64.3382C105.955 64.4002 105.785 64.4356 105.612 64.5028C105.239 64.6475 104.879 64.787 104.511 64.9451C104.138 65.0898 103.768 65.2027 103.4 65.3608C103.226 65.428 103.077 65.5166 102.917 65.5787C73.5388 78.2923 64.9345 114.881 71.5526 143.88C75.0367 159.147 81.5119 172.165 93.3621 182.638C104.876 192.797 118.826 199.712 130.294 209.951C150.728 260.894 171.181 311.845 191.615 362.788C201.94 388.539 211.711 414.598 222.644 440.098C226.678 449.51 232.884 459.107 244.024 460.121C252.337 460.882 264.616 456.334 270.439 450.32C278.99 441.499 273.585 428.235 269.846 418.279C266.512 409.408 263.184 400.55 259.864 391.674C248.236 360.709 236.596 329.75 224.974 298.798C211.108 261.864 197.234 224.949 183.395 188.005C185.142 173.223 190.471 159.137 192.105 144.338C193.831 128.63 189.81 114.629 182.075 101.011ZM173.798 149.707C171.335 162.328 167.315 174.573 166.14 187.431C165.868 188.824 166.407 191.559 167.035 193.216C189.89 254.197 212.363 313.992 235.264 374.97C241.869 392.552 248.546 410.122 255.076 427.748C256.227 430.874 258.352 436.55 256.566 439.573C255.139 441.981 250.288 444.216 246.412 443.235C242.537 442.255 240.023 437.159 238.568 433.722C228.463 409.924 219.292 385.687 209.662 361.69C187.968 307.618 165.619 257.034 145.676 202.298C144.758 199.772 141.669 197.107 138.675 194.405C130.087 187.204 120.421 181.494 111.373 174.886C100.721 167.106 93.6549 158.532 89.6979 145.841C82.7106 123.44 86.0134 90.731 110.66 80.7574C135.585 71.5034 160.079 93.43 170.025 114.684C175.489 126.361 176.268 137.143 173.816 149.715L173.798 149.707Z" fill="#FFFCED"/>
</g>
<path fill-rule="evenodd" clip-rule="evenodd" d="M157.194 0.343343C161.109 1.57281 163.286 5.74297 162.056 9.65767L152.5 40.0839C151.271 43.9986 147.101 46.1754 143.186 44.946C139.271 43.7165 137.095 39.5463 138.324 35.6316L147.88 5.20539C149.109 1.29069 153.279 -0.88612 157.194 0.343343ZM56.0774 12.8861C59.4384 10.5323 64.0711 11.3488 66.4249 14.7098L84.7192 40.8324C87.073 44.1934 86.2565 48.8261 82.8955 51.1799C79.5345 53.5337 74.9018 52.7172 72.548 49.3562L54.2537 23.2336C51.8999 19.8726 52.7164 15.2399 56.0774 12.8861ZM219.088 46.3986C222.033 49.2565 222.103 53.9601 219.245 56.9044L197.033 79.7887C194.175 82.733 189.471 82.8031 186.527 79.9453C183.583 77.0874 183.512 72.3838 186.37 69.4395L208.582 46.5552C211.44 43.6109 216.144 43.5408 219.088 46.3986ZM0.291876 90.2831C1.42701 86.3401 5.54372 84.0638 9.4868 85.1989L40.1337 94.0215C44.0768 95.1566 46.3531 99.2733 45.2179 103.216C44.0828 107.159 39.9661 109.436 36.023 108.301L5.37613 99.4781C1.43304 98.3429 -0.843255 94.2262 0.291876 90.2831ZM59.0876 150.691C60.1898 154.643 57.8793 158.741 53.9269 159.843L23.2075 168.41C19.2551 169.512 15.1575 167.202 14.0553 163.249C12.9531 159.297 15.2636 155.199 19.216 154.097L49.9354 145.53C53.8878 144.428 57.9854 146.738 59.0876 150.691Z" fill="#FFFCED"/>
<defs>
<clipPath id="clip0_944_38">
<rect width="120.575" height="421.827" fill="white" transform="translate(48.2932 86.7202) rotate(-21.2002)"/>
</clipPath>
</defs>
</svg>
