<svg width="35" height="37" viewBox="0 0 35 37" fill="none" xmlns="http://www.w3.org/2000/svg">
<path fill-rule="evenodd" clip-rule="evenodd" d="M17.5 0C18.6046 1.19209e-07 19.5 0.895431 19.5 2L19.5 19.5082L26.5533 12.1192C27.316 11.3202 28.582 11.2907 29.381 12.0534C30.18 12.8161 30.2094 14.0821 29.4467 14.8811L18.9467 25.881C18.5635 26.2824 18.0306 26.5066 17.4757 26.4999C16.9207 26.4931 16.3935 26.256 16.0201 25.8454L6.02013 14.8455C5.27711 14.0281 5.33734 12.7633 6.15465 12.0202C6.97196 11.2772 8.23686 11.3374 8.97987 12.1548L15.5 19.3268L15.5 2C15.5 0.89543 16.3954 0 17.5 0ZM2 20.9999C3.10457 20.9999 4 21.8953 4 22.9999V31.4999C4 32.0522 4.44771 32.4999 5 32.4999H30C30.5523 32.4999 31 32.0522 31 31.4999V22.9999C31 21.8953 31.8954 20.9999 33 20.9999C34.1046 20.9999 35 21.8953 35 22.9999V31.4999C35 34.2613 32.7614 36.4999 30 36.4999H5C2.23858 36.4999 0 34.2613 0 31.4999V22.9999C0 21.8953 0.89543 20.9999 2 20.9999Z" fill="#57751F"/>
</svg>
