<svg width="260" height="427" viewBox="0 0 260 427" fill="none" xmlns="http://www.w3.org/2000/svg">
<path d="M217.876 346.376L204.325 380.564C202.129 386.112 199.923 391.67 197.726 397.218C195.94 401.716 194.46 407.093 191.242 410.817C187.928 414.656 182.561 414.952 177.844 415.028C172.181 415.114 166.508 415.057 160.845 415.057C151.792 415.057 142.73 415.057 133.677 415.047C133.658 415.047 133.638 415.047 133.619 415.047C132.617 415.047 131.614 415.047 130.621 415.047C129.589 415.047 128.548 415.047 127.517 415.047C127.498 415.047 127.479 415.047 127.46 415.047C118.693 415.047 109.917 415.057 101.151 415.057C95.4685 415.057 89.7769 415.095 84.0853 415.038C79.1386 414.99 73.3897 414.876 69.8945 410.827C66.8673 407.322 65.4252 402.318 63.754 398.097C61.5576 392.548 59.3516 386.991 57.1552 381.442C52.5236 369.753 47.8921 358.065 43.2605 346.376C40.577 339.596 29.4899 342.556 32.2115 349.422C37.311 362.276 42.401 375.13 47.5005 387.993C49.9834 394.267 52.4186 400.561 54.9588 406.806C56.8783 411.533 58.9983 416.289 62.7323 419.889C71.5466 428.388 85.6705 426.507 96.8436 426.507C108.093 426.507 119.333 426.497 130.583 426.497C141.832 426.497 153.072 426.517 164.322 426.507C175.562 426.507 189.523 428.35 198.423 419.889C202.176 416.327 204.277 411.505 206.197 406.806C208.747 400.561 211.172 394.267 213.655 387.993C218.755 375.139 223.845 362.286 228.944 349.422C231.666 342.566 220.588 339.586 217.895 346.376H217.876Z" fill="#FFFCED"/>
<path d="M256.323 360.968C250.708 349.098 245.102 337.227 239.487 325.348C238.646 323.581 236.421 322.502 234.54 322.511C187.336 322.788 140.122 323.18 92.9185 322.903L26.5865 322.511C24.7053 322.502 22.4802 323.581 21.6398 325.348C16.0246 337.218 10.419 349.088 4.80376 360.968C1.67148 367.595 11.5458 373.421 14.6972 366.755C19.854 355.84 25.0204 344.915 30.1772 334C76.1875 334.276 122.198 334.639 168.208 334.372C189.122 334.248 210.026 334.124 230.94 334L246.42 366.755C249.571 373.421 259.455 367.605 256.313 360.968H256.323Z" fill="#FFFCED"/>
<path d="M204.306 267.514C202.004 273.311 199.712 279.117 197.411 284.914C195.109 290.71 192.751 300.738 187.957 304.787C182.857 309.094 173.747 307.929 167.349 307.929C159.47 307.929 151.601 307.938 143.723 307.948C139.339 307.948 134.956 307.948 130.563 307.957C119.151 307.948 107.74 307.938 96.3278 307.929C89.643 307.929 82.3566 308.492 75.987 306.267C69.4837 303.994 67.3732 294.139 65.0049 288.161C62.2737 281.275 59.5425 274.381 56.8113 267.495C54.1278 260.715 43.0406 263.675 45.7623 270.542C48.2834 276.902 50.8045 283.252 53.316 289.612C56.4006 297.405 58.8644 307.04 65.0526 312.875C71.8997 319.331 82.8723 319.369 91.7153 319.379C99.651 319.379 107.587 319.388 115.523 319.398C118.655 319.398 121.778 319.398 124.91 319.398C124.977 319.398 125.044 319.407 125.11 319.407C126.925 319.407 128.739 319.407 130.554 319.407C132.368 319.407 134.192 319.407 136.007 319.407C136.073 319.407 136.14 319.407 136.207 319.398C146.588 319.398 156.968 319.379 167.349 319.369C175.523 319.369 184.643 319.636 192.044 315.74C200.543 311.271 203.265 301.043 206.569 292.697C209.501 285.305 212.423 277.923 215.355 270.532C218.076 263.675 206.999 260.696 204.306 267.486V267.514Z" fill="#FFFCED"/>
<path d="M243.431 286.337C237.816 274.467 232.21 262.596 226.595 250.717C225.754 248.95 223.529 247.871 221.648 247.88C174.444 248.157 153.015 248.549 105.811 248.272L39.4786 247.88C37.5973 247.871 35.3723 248.95 34.5319 250.717C28.9167 262.587 23.3111 274.457 17.6959 286.337C14.5636 292.964 24.4379 298.79 27.5893 292.124C32.7461 281.209 37.9125 270.284 43.0693 259.369C89.0796 259.646 135.09 260.009 181.1 259.741C202.014 259.617 197.134 259.493 218.048 259.369L233.528 292.124C236.679 298.79 246.563 292.974 243.421 286.337H243.431Z" fill="#FFFCED"/>
<path d="M193.906 163.777L180.355 197.965C178.159 203.513 175.953 209.071 173.756 214.619C171.97 219.117 170.49 224.493 167.272 228.218C163.958 232.057 158.591 232.353 153.874 232.429C153.425 232.429 152.967 232.429 152.518 232.439C145.346 232.439 138.184 232.439 131.012 232.448C123.811 232.448 116.621 232.448 109.42 232.439C108.962 232.439 108.503 232.439 108.045 232.439C103.098 232.391 97.3493 232.276 93.8542 228.227C90.8269 224.723 89.3849 219.719 87.7137 215.498C85.5173 209.949 83.3114 204.391 81.1149 198.843C76.4834 187.154 71.8517 175.466 67.2201 163.777C64.5367 156.996 53.4496 159.957 56.1712 166.823C61.2707 179.677 66.3607 192.531 71.4602 205.394C73.9431 211.668 76.3783 217.962 78.9185 224.207C80.838 228.934 82.958 233.69 86.6919 237.29C90.8747 241.32 96.2416 243.02 101.924 243.688C102.42 243.822 102.945 243.898 103.538 243.898C103.738 243.898 103.948 243.898 104.149 243.898C109.783 244.319 115.608 243.908 120.794 243.918C124.05 243.918 127.307 243.918 130.563 243.918C133.819 243.918 137.076 243.918 140.332 243.918C145.489 243.918 151.219 244.299 156.767 243.908C157.044 243.908 157.321 243.908 157.589 243.908C158.219 243.908 158.782 243.822 159.308 243.669C164.932 242.991 170.242 241.291 174.434 237.3C178.187 233.738 180.288 228.915 182.208 224.217C184.757 217.971 187.183 211.678 189.666 205.404C194.765 192.55 199.855 179.696 204.955 166.833C207.677 159.976 196.599 156.996 193.906 163.786V163.777Z" fill="#FFFCED"/>
<path d="M231.665 183.611C226.05 171.741 220.445 159.871 214.829 147.991C213.989 146.224 211.764 145.145 209.883 145.155C183.449 145.308 157.006 145.47 130.573 145.623C104.139 145.47 77.6963 145.308 51.2628 145.155C49.3815 145.145 47.1565 146.224 46.3161 147.991C40.7009 159.861 35.0952 171.732 29.48 183.611C26.3477 190.239 36.2221 196.064 39.3735 189.398C44.5303 178.483 49.6967 167.558 54.8535 156.643C79.1478 156.786 103.433 156.93 127.727 157.073C127.947 157.092 128.166 157.101 128.405 157.101C129.131 157.101 129.857 157.101 130.582 157.092C131.308 157.092 132.034 157.092 132.76 157.101C132.989 157.101 133.218 157.101 133.438 157.073C157.732 156.93 182.017 156.786 206.311 156.643C211.468 167.558 216.634 178.483 221.791 189.398C224.943 196.064 234.826 190.248 231.685 183.611H231.665Z" fill="#FFFCED"/>
<path d="M147.218 385.549C140.409 385.549 136.647 380.487 133.61 376.419C130.688 372.485 129.045 370.632 126.658 370.632H126.638C123.602 370.632 122.37 371.998 119.619 375.894C116.745 379.962 112.811 385.539 104.063 385.539C96.7958 385.539 93.1573 380.229 90.493 376.343C87.6281 372.15 86.1384 370.451 82.9679 370.451C77.4864 370.451 72.5588 379.236 71.2696 382.321C70.2096 384.851 67.2969 386.055 64.7663 384.995C62.2356 383.935 61.0323 381.041 62.0827 378.501C62.8467 376.658 69.9231 360.5 82.9679 360.5C91.6963 360.5 95.7453 366.411 98.7057 370.727C101.284 374.5 102.306 375.588 104.063 375.588C107.501 375.588 108.828 373.927 111.483 370.155C114.3 366.153 118.168 360.681 126.638 360.681H126.677C134.307 360.7 138.518 366.354 141.593 370.479C143.962 373.669 145.528 375.598 147.218 375.598C149.204 375.598 150.236 374.433 152.766 370.441C155.469 366.172 159.155 360.318 167.377 360.318C176.173 360.318 180.002 366.65 182.533 370.842C184.786 374.576 185.627 375.588 187.241 375.588C192.159 375.588 192.426 369.429 192.426 368.197C192.426 365.456 194.642 363.221 197.382 363.212H197.411C200.133 363.212 202.358 365.389 202.386 368.111C202.386 368.961 202.339 376.515 197.43 381.48C194.804 384.135 191.29 385.529 187.25 385.529C179.792 385.529 176.459 380.01 174.024 375.97C171.522 371.826 170.3 370.25 167.396 370.25C164.904 370.25 163.72 371.749 161.208 375.732C158.592 379.867 155.02 385.529 147.247 385.529L147.218 385.549Z" fill="#FFFCED"/>
<path d="M144.458 290.319C138.318 290.319 134.918 285.754 132.187 282.078C129.541 278.535 128.071 276.854 125.913 276.854H125.893C123.153 276.854 122.035 278.086 119.562 281.6C116.974 285.277 113.422 290.3 105.534 290.3C98.973 290.3 95.6879 285.506 93.291 282.001C90.703 278.219 89.366 276.682 86.5011 276.682C81.5544 276.682 77.1138 284.618 75.9392 287.397C74.9842 289.679 72.3581 290.758 70.0662 289.803C67.7838 288.848 66.6951 286.232 67.6501 283.94C68.3377 282.278 74.7264 267.696 86.5011 267.696C94.3796 267.696 98.0276 273.024 100.701 276.921C103.032 280.32 103.948 281.314 105.534 281.314C108.637 281.314 109.831 279.814 112.228 276.415C114.778 272.805 118.263 267.868 125.903 267.868H125.932C132.817 267.877 136.618 272.986 139.397 276.711C141.536 279.585 142.949 281.333 144.468 281.333C146.263 281.333 147.189 280.282 149.472 276.672C151.907 272.814 155.24 267.543 162.65 267.543C170.586 267.543 174.043 273.254 176.325 277.035C178.359 280.406 179.123 281.323 180.575 281.323C185.015 281.323 185.254 275.765 185.254 274.648C185.254 272.175 187.26 270.16 189.723 270.15H189.743C192.197 270.15 194.202 272.117 194.231 274.572C194.231 275.335 194.183 282.154 189.752 286.642C187.384 289.039 184.213 290.3 180.565 290.3C173.842 290.3 170.825 285.315 168.628 281.676C166.365 277.933 165.267 276.52 162.641 276.52C160.387 276.52 159.317 277.876 157.054 281.466C154.695 285.2 151.467 290.309 144.458 290.309V290.319Z" fill="#FFFCED"/>
<path d="M141.498 191.891C136.599 191.891 133.877 187.871 131.7 184.633C129.589 181.51 128.415 180.04 126.696 180.03H126.686C124.499 180.03 123.611 181.119 121.625 184.213C119.553 187.45 116.726 191.881 110.423 191.881C105.19 191.881 102.564 187.66 100.654 184.576C98.591 181.243 97.5215 179.887 95.2391 179.887C91.2951 179.887 87.7426 186.877 86.8067 189.322C86.0428 191.337 83.9419 192.282 82.1179 191.442C80.2939 190.602 79.4248 188.3 80.1888 186.285C80.7427 184.824 85.8422 171.98 95.2391 171.98C101.532 171.98 104.445 176.678 106.575 180.107C108.437 183.105 109.162 183.974 110.433 183.974C112.915 183.974 113.861 182.647 115.78 179.658C117.814 176.478 120.593 172.133 126.696 172.133H126.724C132.225 172.142 135.252 176.64 137.468 179.916C139.177 182.446 140.304 183.984 141.517 183.984C142.949 183.984 143.694 183.057 145.509 179.887C147.457 176.487 150.111 171.846 156.032 171.846C162.373 171.846 165.124 176.879 166.948 180.212C168.571 183.182 169.182 183.984 170.338 183.984C173.881 183.984 174.072 179.085 174.072 178.111C174.072 175.933 175.666 174.157 177.643 174.148H177.662C179.629 174.148 181.224 175.876 181.243 178.044C181.243 178.712 181.205 184.729 177.672 188.673C175.781 190.783 173.25 191.891 170.338 191.891C164.971 191.891 162.564 187.498 160.807 184.299C159.002 181.004 158.124 179.753 156.032 179.753C154.237 179.753 153.377 180.947 151.573 184.108C149.691 187.393 147.113 191.891 141.517 191.891H141.498Z" fill="#FFFCED"/>
<path fill-rule="evenodd" clip-rule="evenodd" d="M190.505 29.9486C194.51 32.0159 196.082 36.939 194.014 40.9447L177.947 72.0781C175.88 76.0838 170.957 77.6552 166.951 75.588C162.945 73.5207 161.374 68.5976 163.441 64.5919L179.509 33.4585C181.576 29.4528 186.499 27.8814 190.505 29.9486ZM78.7024 24.4984C82.783 22.5832 87.6435 24.3386 89.5587 28.4192L104.444 60.1348C106.359 64.2154 104.604 69.0759 100.523 70.9911C96.4427 72.9063 91.5822 71.1509 89.667 67.0703L74.7816 35.3547C72.8664 31.2741 74.6218 26.4136 78.7024 24.4984ZM248.829 91.4417C251.478 95.0888 250.669 100.193 247.022 102.842L218.675 123.431C215.028 126.08 209.924 125.271 207.275 121.624C204.626 117.977 205.435 112.873 209.082 110.223L237.429 89.6344C241.076 86.9854 246.18 87.7945 248.829 91.4417ZM3.76097 97.7716C5.73148 93.7174 10.6154 92.0283 14.6696 93.9988L46.1798 109.314C50.234 111.285 51.9231 116.169 49.9526 120.223C47.9821 124.277 43.0981 125.966 39.044 123.996L7.53376 108.68C3.4796 106.71 1.79046 101.826 3.76097 97.7716Z" fill="#FFFCED"/>
</svg>
