<svg width="35" height="35" viewBox="0 0 35 35" fill="none" xmlns="http://www.w3.org/2000/svg">
<path fill-rule="evenodd" clip-rule="evenodd" d="M24.6693 3.5H10.6693C6.80332 3.5 3.66931 6.63401 3.66931 10.5V24.5C3.66931 28.366 6.80332 31.5 10.6693 31.5H24.6693C28.5353 31.5 31.6693 28.366 31.6693 24.5V10.5C31.6693 6.63401 28.5353 3.5 24.6693 3.5ZM10.6693 0.5C5.14646 0.5 0.669312 4.97715 0.669312 10.5V24.5C0.669312 30.0228 5.14646 34.5 10.6693 34.5H24.6693C30.1922 34.5 34.6693 30.0228 34.6693 24.5V10.5C34.6693 4.97715 30.1922 0.5 24.6693 0.5H10.6693Z" fill="#9EA5D3"/>
<path fill-rule="evenodd" clip-rule="evenodd" d="M18.1693 22.5C21.2069 22.5 23.6693 20.0376 23.6693 17C23.6693 13.9624 21.2069 11.5 18.1693 11.5C15.1317 11.5 12.6693 13.9624 12.6693 17C12.6693 20.0376 15.1317 22.5 18.1693 22.5ZM18.1693 25.5C22.8637 25.5 26.6693 21.6944 26.6693 17C26.6693 12.3056 22.8637 8.5 18.1693 8.5C13.4749 8.5 9.66931 12.3056 9.66931 17C9.66931 21.6944 13.4749 25.5 18.1693 25.5Z" fill="#9EA5D3"/>
<path d="M28.6693 8.5C28.6693 9.60457 27.7739 10.5 26.6693 10.5C25.5647 10.5 24.6693 9.60457 24.6693 8.5C24.6693 7.39543 25.5647 6.5 26.6693 6.5C27.7739 6.5 28.6693 7.39543 28.6693 8.5Z" fill="#9EA5D3"/>
</svg>
