<svg width="136" height="136" viewBox="0 0 136 136" fill="none" xmlns="http://www.w3.org/2000/svg">
<g clip-path="url(#clip0_436_2690)">
<rect width="136" height="136" rx="68" fill="#FFFCED"/>
<path d="M114.822 91.5649C113.663 89.6196 110.787 86.3889 104.424 86.3889C104.319 86.3889 104.211 86.3889 104.107 86.3889C99.8289 86.4584 96.0566 87.7746 93.1144 89.195C93.1762 86.6553 93.2148 83.8222 93.2534 81.02C93.3538 73.4586 90.7128 66.3875 86.0061 61.6207C81.6816 57.2437 75.832 54.9316 69.0789 54.9316C54.592 54.9316 44.0743 65.824 44.0743 80.8347V136.014C43.3484 136.037 42.5685 136.099 41.7692 136.215C36.4718 136.979 32.7458 139.816 31.2785 144.209C30.0546 147.872 30.9851 151.893 33.6531 154.449C35.4099 156.128 37.6841 157 40.1398 157C41.4874 157 42.8889 156.738 44.2828 156.205C50.4722 153.839 51.4645 147.806 51.6228 143.9L89.234 143.224C90.2842 143.205 91.2804 142.761 91.9947 141.993C92.709 141.225 93.0796 140.198 93.0217 139.152C92.8827 136.678 92.624 129.638 93.0912 126.786C94.3615 119.004 99.4041 115.588 104.748 111.976C108.536 109.413 112.455 106.757 114.841 102.55C116.771 99.1456 116.764 94.8419 114.825 91.5804L114.822 91.5649ZM41.5221 148.987C40.8812 149.234 39.6997 149.543 38.9969 148.867C38.4757 148.369 38.3212 147.497 38.6031 146.652C39.3213 144.51 41.7847 143.881 43.889 143.753C43.7538 146.571 43.1978 148.346 41.5221 148.987ZM108.119 98.7287C106.624 101.365 103.744 103.314 100.412 105.568C95.1415 109.135 88.7127 113.489 86.1644 122.397C83.0639 121.764 80.7588 119.784 80.7472 119.772C79.1603 118.348 76.7201 118.475 75.2953 120.062C73.8706 121.648 73.998 124.088 75.5849 125.512C75.7857 125.693 79.6275 129.082 85.1257 130.055C85.0794 131.927 85.1026 133.899 85.1489 135.57L51.8004 136.169V80.8347C51.8004 75.3113 53.5804 70.6526 56.9434 67.364C60.0555 64.3225 64.3683 62.6512 69.0866 62.6512C73.8049 62.6512 77.6352 64.1295 80.5155 67.0437C83.7821 70.3515 85.6122 75.4078 85.5389 80.9196C85.4655 86.5665 85.3651 92.8271 85.118 95.691C85.006 97.0034 85.5698 98.281 86.6161 99.0799C87.6625 99.8828 89.0409 100.095 90.2803 99.6473C90.9483 99.408 91.5545 99.022 92.4696 98.4431C94.8171 96.9571 99.1918 94.1934 104.242 94.1085C105.64 94.0777 107.482 94.3092 108.192 95.5058C108.756 96.4553 108.601 97.8911 108.126 98.7287H108.119Z" fill="#F29F05"/>
<path d="M80.7281 86.7248C77.4577 83.8222 72.9904 82.6951 68.7702 83.7064C64.6195 84.7022 61.3375 87.5701 59.7622 91.5804C58.9822 93.5643 59.9591 95.803 61.9437 96.5827C62.4071 96.7641 62.8858 96.8529 63.3569 96.8529C64.8975 96.8529 66.3531 95.9227 66.9516 94.4058C67.8281 92.1748 69.5965 91.4492 70.5733 91.2176C72.3379 90.793 74.2221 91.2755 75.6082 92.5029C77.2029 93.9194 79.6431 93.7727 81.0601 92.1787C82.4772 90.5846 82.3304 88.1452 80.7358 86.7286L80.7281 86.7248Z" fill="#F29F05"/>
<g clip-path="url(#clip1_436_2690)">
<path d="M52.7058 72.9039L52.7037 72.9089L52.6988 72.9068L44.906 76.0287L45.976 79.1416L84.2016 63.8277L82.8087 60.8442L52.7058 72.9039Z" fill="#FFFCED"/>
<path d="M84.6171 26.8826C83.5271 23.4317 80.5905 21.0254 76.9543 20.6043C73.0802 20.1549 69.451 22.0948 67.2488 25.7979C67.1453 25.9712 67.0304 26.1984 66.8963 26.4498C65.9943 28.166 64.7604 30.5135 62.4634 30.8242C60.4439 31.0979 58.9346 29.4994 57.9381 28.4408C57.7946 28.2882 57.6689 28.1492 57.5638 28.0513C54.4218 25.1425 50.4985 24.2927 47.021 25.7888C43.478 27.1012 41.2074 30.4281 40.9421 34.7102C40.9337 34.8536 40.9387 35.041 40.9388 35.2469C40.9488 36.7007 40.9607 38.8992 39.3108 40.0955C37.4311 41.458 34.9213 40.6104 33.0838 39.9916C32.8133 39.9023 32.5733 39.8173 32.3788 39.7634C28.2289 38.605 24.2627 39.7039 21.772 42.7073C19.4323 45.5224 18.9694 49.2907 20.5633 52.5396C21.2711 53.9775 23.8243 57.4516 32.989 64.5284C36.836 67.5008 40.5109 70.0643 42.3147 71.2978L47.7653 69.1142L40.9127 58.0637C40.1333 56.8069 40.5221 55.1562 41.7753 54.3782C43.0357 53.5974 44.6828 53.9877 45.4608 55.2409L52.8065 67.0904L60.2834 64.0951L54.7105 50.1022C54.1618 48.7324 54.831 47.1753 56.2008 46.6265L56.2044 46.6251C57.5777 46.0749 59.1326 46.7492 59.6814 48.119L65.25 62.1012L72.2479 59.2977L69.1526 45.5683C68.826 44.126 69.7303 42.693 71.174 42.3699C72.6163 42.0433 74.0458 42.9491 74.3724 44.3914L77.2784 57.2783L81.8383 55.4515C82.2915 53.3138 83.1765 48.9235 83.9108 44.1158C85.6545 32.6689 85.1028 28.3929 84.6221 26.8641L84.6171 26.8826Z" fill="#FFFCED"/>
<path d="M90.2474 64.1278L86.9633 57.0919C88.0425 52.1378 92.0358 32.6241 89.7177 25.2753C87.9834 19.7847 83.3288 15.9581 77.5671 15.2889C71.5336 14.5887 65.9576 17.4979 62.6455 23.0665C62.488 23.3313 62.3271 23.6388 62.1562 23.9626C62.0562 24.155 61.9122 24.4227 61.759 24.6982C61.5651 24.4918 61.3805 24.2981 61.1922 24.1264C56.5587 19.8384 50.637 18.595 45.2815 20.7282L44.7669 20.9343C44.7669 20.9343 44.7669 20.9343 44.7634 20.9357C39.4106 23.0966 35.9931 28.0732 35.6011 34.3828C35.587 34.6355 35.5872 34.9031 35.588 35.1828C35.287 35.0893 34.9966 34.9915 34.7928 34.9249C34.4457 34.8086 34.1169 34.6974 33.8202 34.6145C27.5794 32.8729 21.5386 34.6217 17.656 39.2905C13.9429 43.7555 13.2178 49.7372 15.7541 54.9066C19.0024 61.5244 34.1086 72.1964 39.0965 75.6012L41.8338 83.5439C42.0734 84.2345 42.5841 84.8 43.2501 85.1056C43.9161 85.4112 44.6764 85.4278 45.3577 85.1548L88.8175 67.744C89.4989 67.471 90.0395 66.9291 90.3124 66.2432C90.5818 65.5588 90.5594 64.7935 90.2474 64.1278ZM45.9757 79.1419L44.9021 76.0304L52.6948 72.9084C52.6948 72.9084 52.6948 72.9084 52.6984 72.907C52.7019 72.9056 52.6984 72.907 52.7019 72.9056L82.8048 60.8458L84.1977 63.8294L45.9757 79.1419ZM81.8329 55.4698L77.273 57.2966L74.367 44.4097C74.0404 42.9674 72.6109 42.0616 71.1686 42.3882C69.7249 42.7113 68.8206 44.1443 69.1472 45.5866L72.2425 59.316L65.2446 62.1195L59.676 48.1372C59.1258 46.7639 57.5723 46.0932 56.199 46.6434L56.1954 46.6448C54.8256 47.1936 54.1585 48.7457 54.7051 50.1204L60.278 64.1133L52.8011 67.1087L45.4554 55.2592C44.676 54.0024 43.0303 53.6157 41.7699 54.3965C40.5132 55.1759 40.1279 56.8252 40.9073 58.0819L47.7599 69.1324L42.3093 71.3161C40.5055 70.0826 36.8341 67.5176 32.9836 64.5467C23.8189 57.4699 21.2657 53.9957 20.5579 52.5579C18.964 49.309 19.4269 45.5407 21.7666 42.7255C24.2588 39.7257 28.2235 38.6233 32.3734 39.7817C32.5679 39.8355 32.8064 39.917 33.0784 40.0099C34.9159 40.6286 37.4257 41.4763 39.3054 40.1138C40.9588 38.916 40.9434 36.719 40.9334 35.2652C40.9319 35.0558 40.9268 34.8684 40.9367 34.7285C41.202 30.4464 43.4726 27.1194 47.0156 25.8071C50.4931 24.311 54.4149 25.1572 57.5584 28.0695C57.6635 28.1674 57.7892 28.3065 57.9327 28.4591C58.9292 29.5177 60.4371 31.1126 62.458 30.8425C64.755 30.5318 65.9889 28.1843 66.8909 26.468C67.025 26.2167 67.1399 25.9895 67.2434 25.8162C69.4456 22.113 73.0734 20.1696 76.9489 20.6225C80.5851 21.0437 83.5217 23.45 84.6117 26.9008C85.0924 28.4296 85.6442 32.7056 83.9004 44.1526C83.1697 48.9588 82.2812 53.3505 81.828 55.4882L81.8329 55.4698Z" fill="#57751F"/>
</g>
</g>
<rect x="1.5" y="1.5" width="133" height="133" rx="66.5" stroke="#57751F" stroke-width="3"/>
<defs>
<clipPath id="clip0_436_2690">
<rect width="136" height="136" rx="68" fill="white"/>
</clipPath>
<clipPath id="clip1_436_2690">
<rect width="79.7662" height="59.8342" fill="white" transform="translate(8 35.6641) rotate(-21.832)"/>
</clipPath>
</defs>
</svg>
