<svg width="170" height="240" viewBox="0 0 170 240" fill="none" xmlns="http://www.w3.org/2000/svg">
<g clip-path="url(#clip0_1197_9263)">
<path d="M139.222 48.886C137.667 46.284 133.812 41.9424 125.471 42.0852C119.902 42.177 114.926 43.8913 111.01 45.7636C111.071 43.4933 111.097 41.0699 111.112 38.5088C111.117 37.2691 111.127 36.0854 111.142 34.9834C111.275 24.9889 107.787 15.6423 101.572 9.34151C95.8659 3.55601 88.1359 0.5 79.2178 0.5C60.0865 0.5 46.1969 14.8974 46.1969 34.7385L46.1969 108.129C40.2056 108.659 31.3385 110.695 28.8145 117.924C27.4735 121.751 28.7482 126.154 32.2155 129.71C35.1729 132.74 38.9665 134.424 42.5205 134.424C43.6168 134.424 44.6927 134.266 45.7125 133.934C52.6675 131.679 54.7275 123.567 55.6096 118.103L105.834 117.2C107.221 117.174 108.537 116.588 109.48 115.572C110.424 114.557 110.913 113.2 110.837 111.817C110.653 108.547 110.316 99.2413 110.928 95.471C112.723 84.4765 121.034 78.7624 128.367 73.7167C133.002 70.528 137.377 67.523 139.671 63.3956C141.583 59.957 142.261 53.9521 139.233 48.8911L139.222 48.886ZM42.5868 124.215C42.3778 124.256 41.4599 124.113 40.3331 123.286C39.1654 122.429 38.6453 121.506 38.5229 121.113C39.1297 120.057 41.8373 119.082 45.1261 118.557C44.1267 123.164 43.0559 124.062 42.5868 124.21V124.215ZM130.753 58.4264C129.621 60.457 126.205 62.8089 122.585 65.2986C115.252 70.3393 105.467 77.0686 101.811 89.6039C97.7067 88.7723 94.5759 86.1652 94.5606 86.1499C92.4343 84.303 89.2118 84.5326 87.366 86.6601C85.5201 88.7876 85.7496 92.0119 87.8759 93.8588C88.4877 94.3894 93.4286 98.5168 100.409 99.7311C100.343 102.226 100.379 104.864 100.435 107.093L56.3948 107.884L56.3948 34.7385C56.3948 27.4378 58.7454 21.2799 63.1866 16.9331C67.2964 12.9128 72.992 10.7037 79.2229 10.7037C85.4538 10.7037 90.512 12.6577 94.3159 16.5096C98.6296 20.8819 101.046 27.5653 100.95 34.8508C100.934 35.9732 100.929 37.1823 100.919 38.4476C100.894 42.7433 100.853 49.1819 100.333 53.447C100.185 53.9266 100.108 54.4317 100.113 54.947C99.9706 55.7531 99.7972 56.4265 99.5984 56.9163C98.5276 59.5233 99.7718 62.5028 102.377 63.5742C104.983 64.6456 107.961 63.4008 109.031 60.7937C109.353 60.008 109.623 59.1203 109.852 58.1305C113.039 56.1255 118.969 52.3961 125.649 52.2838C128.097 52.243 129.728 52.8603 130.483 54.1256C131.375 55.6204 131.136 57.7479 130.758 58.4213L130.753 58.4264Z" fill="#9EA5D3"/>
<path d="M77.8616 37.1007C71.5797 39.2792 67.4699 45.5748 67.271 50.1563C67.1487 52.9725 69.3259 55.3551 72.1405 55.4775C72.217 55.4775 72.2935 55.4775 72.37 55.4775C75.0674 55.4775 77.316 53.3603 77.4588 50.6461C77.6117 49.7227 79.2434 47.2993 81.4054 46.6717C83.1951 46.1565 85.199 47.1615 87.3559 49.6665C89.1966 51.7991 92.4141 52.0389 94.5454 50.1971C96.6768 48.3554 96.9164 45.1361 95.0757 43.0035C88.2176 35.0446 81.3442 35.8864 77.8616 37.0956V37.1007Z" fill="#9EA5D3"/>
</g>
<g clip-path="url(#clip1_1197_9263)">
<path d="M168.467 208.821C167.898 208.281 167.262 208.064 166.557 208.17C161.832 208.863 158.172 208.71 155.578 207.712C156.635 207.421 157.486 206.934 158.134 206.253C159.257 205.074 159.955 203.25 160.225 200.783C160.495 198.317 160.638 195.988 160.65 193.794C160.662 191.599 160.949 190.209 161.51 189.619C161.682 189.438 162.196 189.215 163.056 188.949C163.914 188.684 164.698 188.176 165.413 187.429C166.124 186.68 166.425 185.796 166.31 184.781C166.195 183.764 165.753 182.89 164.983 182.155C163.484 180.729 161.677 180.263 159.565 180.761C159.701 180.891 156.306 182.117 149.387 184.438C142.463 186.76 138.342 188.071 137.022 188.369C136.987 188.501 136.958 188.634 136.928 188.768C136.679 188.712 136.446 188.637 136.235 188.538C135.267 188.089 135.034 187.328 135.535 186.247C135.614 186.076 136.681 184.589 138.744 181.779C140.802 178.969 142.839 176.547 144.853 174.51C146.864 172.473 147.991 171.199 148.226 170.687C148.91 169.209 148.001 167.891 145.501 166.733C144.42 166.232 143.422 166.117 142.505 166.38C141.587 166.646 140.492 167.485 139.216 168.897L131.848 176.981C129.919 179.058 127.784 180.503 125.441 181.316C123.097 182.131 121.212 182.206 119.793 181.549C118.372 180.891 118.222 179.389 119.342 177.042C120.463 174.698 122.225 172.233 124.628 169.651C127.03 167.071 128.759 165.349 129.814 164.492C130.866 163.632 131.432 163.119 131.512 162.948C131.801 162.323 131.639 161.628 131.028 160.859C130.415 160.093 129.485 159.419 128.235 158.841C126.983 158.261 125.697 158.357 124.375 159.125C122.136 160.23 119.669 162.316 116.974 165.382C115.174 167.426 113.692 169.409 112.519 171.331C112.393 171.03 112.214 170.748 111.984 170.483C111.371 169.78 110.661 169.381 109.853 169.287C109.042 169.193 108.326 169.392 107.701 169.886C103.932 172.978 100.645 174.641 97.8424 174.881L97.4689 174.836C96.3176 174.702 95.641 173.574 95.4436 171.462C95.7538 170.875 96.0145 170.271 96.2213 169.651C96.4374 168.986 96.4844 168.251 96.3646 167.445C96.2871 166.937 96.0592 166.427 95.6809 165.915C95.8031 164.938 95.9511 163.918 96.132 162.854C103.364 160.359 108.796 158.947 112.43 158.616C113.774 158.458 114.502 157.883 114.62 156.884C114.737 155.89 114.533 155.061 114.011 154.401C113.487 153.74 112.886 153.369 112.202 153.289C111.082 153.158 108.415 153.571 104.202 154.528C108.424 151.868 112.094 148.687 115.21 144.984C118.325 141.281 120.291 137.271 121.116 132.95L121.215 132.109C121.433 130.241 121.027 128.601 119.993 127.187C118.959 125.773 117.153 124.915 114.57 124.612C111.988 124.309 109.244 125.251 106.338 127.431C103.432 129.614 100.85 132.53 98.5942 136.174C93.9329 143.638 90.7048 151.271 88.9075 159.071C87.9771 159.468 87.0655 159.849 86.1703 160.218C85.2752 160.587 84.7701 161.268 84.6526 162.264C84.5351 163.26 84.6996 164.148 85.146 164.924C85.59 165.701 86.0623 166.12 86.5604 166.178C87.0584 166.237 87.4344 166.249 87.6904 166.216C87.58 167.464 87.5354 168.652 87.5518 169.782C86.2338 171.429 84.9087 172.656 83.5813 173.457C83.9995 172.444 84.1381 171.472 83.9971 170.544C83.7551 168.934 82.7425 167.264 80.9616 165.537C79.1807 163.81 77.4281 162.269 75.7036 160.913C73.9791 159.558 73.0557 158.477 72.9336 157.671C72.896 157.424 73.0346 156.882 73.3541 156.041C73.6713 155.202 73.7535 154.269 73.5985 153.247C73.4434 152.225 72.9312 151.447 72.0596 150.914C71.1856 150.381 70.2246 150.193 69.1721 150.353C67.1281 150.66 65.6503 151.802 64.7457 153.776C64.9313 153.747 63.8177 157.18 61.4025 164.069C58.9872 170.96 57.493 175.017 56.9174 176.243C57.002 176.354 57.0912 176.462 57.1782 176.568C56.9808 176.73 56.7788 176.866 56.572 176.974C55.6252 177.463 54.8804 177.181 54.333 176.124C54.2461 175.957 53.7245 174.199 52.7682 170.849C51.8097 167.501 51.1448 164.407 50.7689 161.566C50.393 158.728 50.0758 157.058 49.8173 156.557C49.0679 155.11 47.4702 155.021 45.0221 156.287C43.9649 156.835 43.26 157.554 42.9076 158.439C42.5552 159.327 42.5458 160.707 42.8818 162.579L44.7543 173.356C45.2124 176.152 45.0456 178.724 44.2515 181.076C43.4574 183.428 42.3649 184.962 40.974 185.681C39.8392 186.269 38.7773 185.843 37.7929 184.403C37.7435 183.731 37.5203 183.212 37.1186 182.843C37.0199 182.751 36.9165 182.669 36.8131 182.594C35.8099 180.393 35.0487 177.719 34.5365 174.571C33.9703 171.091 33.6696 168.671 33.6367 167.311C33.6038 165.953 33.5451 165.189 33.4581 165.022C33.141 164.412 32.4925 164.111 31.5128 164.125C30.5307 164.139 29.4288 164.463 28.2048 165.095C26.9807 165.73 26.2665 166.803 26.0644 168.319C25.5663 170.765 25.7026 173.993 26.4732 178.001C27.2438 182.011 28.334 185.38 29.746 188.106C29.7507 188.118 29.7578 188.127 29.7625 188.139C29.6732 188.505 29.5815 188.893 29.4923 189.304C28.8673 192.17 28.5008 194.915 28.3974 197.534L16.2179 179.521C16.1216 179.349 15.842 179.051 15.3791 178.628C14.9186 178.205 14.1786 178.041 13.1612 178.128C12.1463 178.217 11.331 178.598 10.7178 179.267C10.1046 179.937 9.59714 180.726 9.19303 181.631C8.82417 181.292 8.26265 181.163 7.51317 181.241C6.7637 181.318 6.1129 181.659 5.56313 182.258L5.24596 182.606C1.6419 186.529 0.023133 191.48 0.3779 197.45C0.732666 203.422 3.08446 208.393 7.43094 212.366C9.51256 214.269 11.7915 215.188 14.2725 215.12C16.7536 215.054 19.1124 213.795 21.3538 211.344C23.5951 208.894 24.4879 206.06 24.0345 202.844L26.3651 205.865C22.9326 222.337 23.668 232.816 28.5689 237.296C30.3263 238.903 32.1659 239.629 34.0878 239.477C36.0096 239.324 37.8798 238.255 39.6983 236.265C41.5167 234.277 42.6445 231.975 43.0815 229.362C43.5185 226.75 43.2483 223.933 42.2709 220.918C40.5817 215.893 37.5086 210.111 33.047 203.57C33.5521 200.722 34.3439 197.457 35.4129 193.782C37.5321 194.696 39.7828 194.539 42.1652 193.305C44.6697 192.011 46.4294 190.164 47.4467 187.768C48.4641 185.373 48.8987 182.801 48.7483 180.057C48.8658 180.562 49.2159 181.368 49.7915 182.479C50.3671 183.593 51.368 184.572 52.7964 185.42C54.2226 186.269 55.9095 186.191 57.8572 185.181C59.9952 184.074 61.7056 182.653 62.9907 180.917C63.524 181.154 64.0761 181.375 64.6541 181.572C67.9269 182.695 71.4229 182.975 75.1397 182.415L75.4193 182.373C80.9029 181.546 85.4655 180.012 89.1072 177.771C90.2443 180.144 92.1239 181.487 94.7529 181.795L95.406 181.873C100.603 181.892 105.523 180.05 110.161 176.349C109.618 178.226 109.526 180.035 109.893 181.776C110.398 184.185 111.932 185.982 114.491 187.166C117.049 188.35 119.587 188.611 122.103 187.946C124.619 187.281 126.917 186.05 128.991 184.248C128.665 184.65 128.242 185.42 127.716 186.558C127.189 187.695 127.027 189.086 127.232 190.735C127.436 192.382 128.531 193.667 130.523 194.588C132.708 195.601 134.881 196.08 137.043 196.033C137.182 196.601 137.351 197.175 137.548 197.755C138.671 201.028 140.593 203.962 143.316 206.551L143.52 206.746C147.559 210.59 151.593 213.259 155.618 214.756C159.642 216.252 163.216 216.452 166.336 215.355C166.994 215.117 167.605 214.704 168.166 214.112C168.728 213.522 169.059 212.627 169.162 211.429C169.266 210.231 169.033 209.359 168.467 208.821ZM105.079 138.918C107.745 135.006 110.259 133.185 112.625 133.462C113.123 133.521 113.342 133.798 113.285 134.296C112.884 137.72 111.575 140.673 109.359 143.156C107.144 145.64 103.683 148.656 98.9772 152.206C100.375 147.261 102.41 142.832 105.076 138.918H105.079ZM17.0919 205.283C15.8655 206.624 14.3289 206.448 12.4776 204.756C10.6285 203.065 9.47966 200.213 9.03562 196.197C8.58922 192.182 9.41623 188.841 11.5143 186.175L16.2273 193.413C19.3403 198.551 19.6269 202.508 17.0895 205.28L17.0919 205.283ZM34.2945 216.621C35.4176 218.966 36.1999 221.569 36.6393 224.433C37.0763 227.297 36.6393 229.444 35.3306 230.878C34.5271 231.756 33.639 231.752 32.6687 230.863C31.6984 229.975 31.0171 228.653 30.6294 226.898C30.2394 225.14 30.0561 223.507 30.0773 221.999C30.2229 219.332 30.526 215.705 30.9889 211.116C32.0673 212.444 33.1691 214.279 34.2945 216.623V216.621ZM72.4355 176.462L71.7847 176.561C71.101 176.664 69.6208 176.286 67.3372 175.426C67.3795 175.294 67.4641 174.916 67.5933 174.293C67.7201 173.673 68.0867 172.43 68.6952 170.562L70.8731 163.582C73.972 166.916 75.7059 169.792 76.0701 172.207C76.4342 174.622 75.2219 176.041 72.4355 176.462ZM151.955 201.023C150.27 202.792 148.407 202.708 146.366 200.762L145.889 200.309C145.388 199.834 144.777 198.432 144.056 196.101C144.188 196.054 144.538 195.89 145.106 195.61C145.675 195.33 146.882 194.856 148.727 194.191L155.575 191.628C154.845 196.122 153.637 199.254 151.953 201.023H151.955Z" fill="#9EA5D3"/>
</g>
<defs>
<clipPath id="clip0_1197_9263">
<rect width="113.008" height="133.919" fill="white" transform="translate(28.2893 0.5)"/>
</clipPath>
<clipPath id="clip1_1197_9263">
<rect width="168.857" height="114.949" fill="white" transform="translate(0.330811 124.551)"/>
</clipPath>
</defs>
</svg>
