<svg width="57" height="47" viewBox="0 0 57 47" fill="none" xmlns="http://www.w3.org/2000/svg">
<path fill-rule="evenodd" clip-rule="evenodd" d="M54.388 45.0542C52.988 46.3542 51.788 46.7542 50.788 46.7542C50.288 46.7542 49.788 46.6542 49.388 46.5542C47.288 45.6542 46.188 42.7542 45.888 40.0542H13.688C6.28799 40.0542 0.187988 33.9542 0.187988 26.4542C0.187988 19.0542 6.28799 12.9542 13.688 12.9542H19.888C18.688 10.5542 17.588 7.35424 18.288 4.55424C18.788 2.85424 19.988 1.55424 21.788 0.754238C26.388 -1.14576 29.188 2.65424 31.588 5.95424C34.188 9.45424 36.788 12.9542 41.388 12.9542H45.488C47.788 12.9542 49.488 14.7542 49.488 16.9542V36.3542C52.288 36.7542 54.988 37.7542 55.888 39.8542C56.288 40.8542 56.588 42.7542 54.388 45.0542ZM45.488 16.9542H41.388C34.688 16.9542 31.088 11.9542 28.388 8.35424C25.788 4.75424 24.788 3.85424 23.288 4.45424C22.488 4.85424 22.288 5.25424 22.188 5.65424C21.588 7.65424 23.388 11.2542 24.688 13.1542C25.0213 13.2209 25.3547 13.2876 25.688 13.3542C26.788 13.5542 27.488 14.6542 27.288 15.7542C27.088 16.6542 26.288 17.3542 25.288 17.3542C25.1547 17.3542 25.0213 17.3209 24.888 17.2542C23.788 17.0542 22.288 16.9542 21.388 16.9542H13.688C8.48799 16.9542 4.18799 21.2542 4.18799 26.4542C4.18799 31.7542 8.48799 36.0542 13.688 36.0542H45.488V16.9542ZM52.688 41.2542C52.488 40.8542 51.388 40.1542 49.388 39.8542C49.688 41.8542 50.388 43.0542 50.788 43.2542C50.788 43.2542 51.188 43.2542 51.888 42.5542C52.588 41.8542 52.788 41.3542 52.688 41.2542Z" fill="#9EA5D3"/>
<path fill-rule="evenodd" clip-rule="evenodd" d="M39.0879 20.9543V32.0543C39.0879 32.9543 39.7879 33.7543 40.7879 33.7543C41.7879 33.7543 42.4879 32.9543 42.4879 32.0543V20.9543C42.4879 19.9543 41.7879 19.1543 40.7879 19.1543C39.7879 19.1543 39.0879 19.9543 39.0879 20.9543Z" fill="#9EA5D3"/>
</svg>
