<svg width="68" height="81" viewBox="0 0 68 81" fill="none" xmlns="http://www.w3.org/2000/svg">
<g id="Calque_1" clip-path="url(#clip0_888_5587)">
<path id="Vector" d="M66.7514 29.266C65.8156 27.6923 63.4961 25.0662 58.4765 25.1526C55.1261 25.2082 52.1315 26.245 49.7752 27.3775C49.812 26.0043 49.8273 24.5385 49.8365 22.9894C49.8396 22.2396 49.8457 21.5237 49.8549 20.8571C49.9347 14.812 47.8361 9.15875 44.096 5.34775C40.6627 1.84841 36.0113 0 30.6451 0C19.1333 0 10.7756 8.70822 10.7756 20.709L10.7756 65.0987C7.17047 65.4196 1.83491 66.6509 0.31616 71.0235C-0.49077 73.3379 0.276274 76.001 2.36263 78.1518C4.14218 79.9848 6.4249 81.0031 8.56342 81.0031C9.22308 81.0031 9.87046 80.9074 10.4841 80.7069C14.6691 79.3429 15.9086 74.4364 16.4394 71.1315L46.661 70.5853C47.4955 70.5699 48.2871 70.215 48.8547 69.6009C49.4223 68.9869 49.7169 68.166 49.6708 67.3298C49.5604 65.3518 49.3579 59.7232 49.7261 57.4428C50.8061 50.7928 55.8072 47.3367 60.2192 44.2848C63.0082 42.3561 65.6407 40.5386 67.0214 38.0421C68.172 35.9623 68.58 32.3303 66.7575 29.2691L66.7514 29.266ZM8.60331 74.8283C8.47751 74.853 7.92524 74.7666 7.24717 74.2667C6.54456 73.7483 6.2316 73.1898 6.15797 72.9522C6.52308 72.3134 8.15228 71.724 10.1313 71.4062C9.5299 74.1927 8.88558 74.7358 8.60331 74.8253V74.8283ZM61.6551 35.0365C60.974 36.2647 58.9183 37.6873 56.7399 39.1932C52.3279 42.242 46.4401 46.3122 44.2402 53.8941C41.7703 53.3911 39.8864 51.8142 39.8772 51.8049C38.5978 50.6879 36.6587 50.8267 35.548 52.1135C34.4374 53.4003 34.5754 55.3506 35.8548 56.4676C36.223 56.7886 39.1961 59.285 43.3964 60.0194C43.3565 61.5284 43.378 63.1238 43.4118 64.4723L16.9119 64.9506L16.9119 20.709C16.9119 16.2932 18.3264 12.5686 20.9987 9.93946C23.4717 7.50783 26.8988 6.17166 30.6482 6.17166C34.3975 6.17166 37.4411 7.35354 39.73 9.68334C42.3256 12.3279 43.78 16.3703 43.7217 20.7769C43.7125 21.4558 43.7094 22.1871 43.7032 22.9524C43.6879 25.5507 43.6634 29.445 43.3504 32.0248C43.2614 32.3148 43.2154 32.6203 43.2185 32.932C43.1326 33.4196 43.0282 33.8269 42.9086 34.1231C42.2643 35.7 43.0129 37.5021 44.5807 38.1501C46.1486 38.7982 47.9404 38.0452 48.5847 36.4684C48.778 35.9931 48.9406 35.4562 49.0787 34.8576C50.9963 33.6448 54.5646 31.3891 58.5839 31.3212C60.0566 31.2965 61.0384 31.6699 61.4925 32.4352C62.0295 33.3393 61.8853 34.6261 61.6582 35.0335L61.6551 35.0365Z" fill="#D90718"/>
<path id="Vector_2" d="M29.8287 22.1376C26.0487 23.4552 23.5757 27.2631 23.4561 30.0342C23.3824 31.7376 24.6926 33.1787 26.3862 33.2527C26.4322 33.2527 26.4782 33.2527 26.5243 33.2527C28.1473 33.2527 29.5004 31.9721 29.5863 30.3305C29.6783 29.7719 30.6602 28.3061 31.9611 27.9266C33.038 27.6149 34.2438 28.2228 35.5416 29.738C36.6492 31.0278 38.5853 31.1729 39.8678 30.0589C41.1503 28.9449 41.2945 26.9978 40.1868 25.7079C36.0602 20.894 31.9243 21.4031 29.8287 22.1345V22.1376Z" fill="#D90718"/>
</g>
<defs>
<clipPath id="clip0_888_5587">
<rect width="68" height="81" fill="white"/>
</clipPath>
</defs>
</svg>
