<svg width="27" height="27" viewBox="0 0 27 27" fill="none" xmlns="http://www.w3.org/2000/svg">
<path fill-rule="evenodd" clip-rule="evenodd" d="M13.27 24C19.069 24 23.77 19.299 23.77 13.5C23.77 7.70101 19.069 3 13.27 3C7.47103 3 2.77002 7.70101 2.77002 13.5C2.77002 19.299 7.47103 24 13.27 24ZM13.27 26.5C20.4497 26.5 26.27 20.6797 26.27 13.5C26.27 6.3203 20.4497 0.5 13.27 0.5C6.09032 0.5 0.27002 6.3203 0.27002 13.5C0.27002 20.6797 6.09032 26.5 13.27 26.5Z" fill="#D90718"/>
<path fill-rule="evenodd" clip-rule="evenodd" d="M13.27 5.5C13.8223 5.5 14.27 5.94772 14.27 6.5V13H17.77C18.3223 13 18.77 13.4477 18.77 14C18.77 14.5523 18.3223 15 17.77 15H14.27C13.1655 15 12.27 14.1046 12.27 13V6.5C12.27 5.94772 12.7177 5.5 13.27 5.5Z" fill="#D90718"/>
</svg>
