<svg width="42" height="33" viewBox="0 0 42 33" fill="none" xmlns="http://www.w3.org/2000/svg">
<path d="M41.6694 3.88235C40.1604 4.56176 38.5337 5.00824 36.8482 5.22176C38.5729 4.19294 39.9056 2.56235 40.5327 0.601765C38.9061 1.57235 37.103 2.25177 35.2019 2.64C33.6537 0.970588 31.4782 0 29.0088 0C24.4032 0 20.6403 3.72706 20.6403 8.32765C20.6403 8.98765 20.7187 9.62824 20.8559 10.23C13.8788 9.88059 7.66609 6.56118 3.53081 1.53353C2.80567 2.75647 2.3941 4.19294 2.3941 5.70706C2.3941 8.59941 3.86398 11.1618 6.13741 12.6176C4.74592 12.6176 3.45242 12.2294 2.31571 11.6471C2.31571 11.6471 2.31571 11.6471 2.31571 11.7053C2.31571 15.7429 5.21628 19.1206 9.05758 19.8776C8.35204 20.0718 7.60729 20.1688 6.84295 20.1688C6.31379 20.1688 5.78464 20.1106 5.27507 20.0135C6.33339 23.2941 9.41035 25.74 13.1145 25.7982C10.2531 28.05 6.62737 29.37 2.66848 29.37C2.00213 29.37 1.33578 29.3312 0.669434 29.2535C4.39314 31.6218 8.8224 33 13.5652 33C29.0088 33 37.495 20.3047 37.495 9.29823C37.495 8.92941 37.495 8.58 37.4754 8.21117C39.1216 7.04647 40.5327 5.57118 41.6694 3.88235Z" fill="#9EA5D3"/>
</svg>
