<svg width="284" height="395" viewBox="0 0 284 395" fill="none" xmlns="http://www.w3.org/2000/svg">
<path d="M279.434 223.829C276.404 218.74 268.879 210.289 252.234 210.289C251.961 210.289 251.678 210.289 251.406 210.289C240.215 210.471 230.347 213.914 222.65 217.629C222.812 210.986 222.913 203.575 223.014 196.244C223.276 176.465 216.368 157.967 204.056 145.498C192.743 134.048 177.441 128 159.776 128C121.88 128 94.3665 156.493 94.3665 195.76V340.104C92.4677 340.164 90.4274 340.326 88.3367 340.629C74.4791 342.628 64.7323 350.049 60.8942 361.539C57.6924 371.121 60.1266 381.642 67.1059 388.326C71.7015 392.718 77.6506 395 84.0743 395C87.5993 395 91.2657 394.313 94.9119 392.92C111.103 386.731 113.698 370.949 114.113 360.731L212.499 358.964C215.247 358.914 217.853 357.753 219.721 355.744C221.59 353.734 222.559 351.049 222.408 348.312C222.044 341.84 221.367 323.424 222.59 315.962C225.913 295.607 239.104 286.671 253.082 277.221C262.991 270.516 273.243 263.57 279.484 252.564C284.535 243.659 284.514 232.401 279.444 223.869L279.434 223.829ZM87.6902 374.039C86.0136 374.685 82.9229 375.493 81.0847 373.726C79.7211 372.424 79.3171 370.142 80.0544 367.93C81.9331 362.327 88.3771 360.681 93.8817 360.348C93.5282 367.718 92.0738 372.363 87.6902 374.039ZM261.9 242.568C257.991 249.465 250.456 254.563 241.74 260.46C227.953 269.789 211.136 281.179 204.47 304.482C196.359 302.826 190.329 297.647 190.299 297.616C186.148 293.891 179.764 294.224 176.037 298.374C172.31 302.523 172.644 308.905 176.795 312.63C177.32 313.105 187.37 321.97 201.753 324.514C201.632 329.411 201.692 334.571 201.813 338.943L114.577 340.508V195.76C114.577 181.311 119.233 169.124 128.031 160.522C136.172 152.566 147.454 148.194 159.796 148.194C172.139 148.194 182.158 152.061 189.693 159.684C198.238 168.337 203.025 181.564 202.833 195.982C202.642 210.753 202.379 227.13 201.733 234.622C201.44 238.055 202.914 241.397 205.651 243.487C208.389 245.587 211.994 246.143 215.237 244.972C216.984 244.346 218.57 243.336 220.963 241.821C227.104 237.934 238.548 230.705 251.759 230.483C255.416 230.402 260.233 231.008 262.092 234.138C263.566 236.621 263.162 240.377 261.92 242.568H261.9Z" fill="#D90718"/>
<path d="M190.249 211.167C181.694 203.574 170.008 200.626 158.968 203.272C148.11 205.877 139.525 213.378 135.404 223.869C133.364 229.059 135.919 234.915 141.111 236.954C142.323 237.429 143.575 237.661 144.807 237.661C148.837 237.661 152.645 235.228 154.211 231.26C156.504 225.424 161.13 223.526 163.685 222.92C168.301 221.809 173.23 223.071 176.856 226.282C181.027 229.988 187.41 229.604 191.117 225.434C194.824 221.264 194.44 214.883 190.269 211.177L190.249 211.167Z" fill="#D90718"/>
<g clip-path="url(#clip0_841_7631)">
<path d="M116.945 175.014L116.94 175.027L116.927 175.022L96.5417 183.188L99.3408 191.331L199.335 151.272L195.691 143.467L116.945 175.014Z" fill="#9EA5D3"/>
<path d="M200.422 54.6258C197.57 45.5988 189.888 39.3042 180.376 38.2025C170.242 37.0269 160.749 42.1014 154.988 51.7885C154.717 52.2418 154.417 52.8361 154.066 53.4937C151.706 57.9832 148.478 64.124 142.47 64.9369C137.187 65.6528 133.239 61.4712 130.632 58.702C130.257 58.3029 129.928 57.9391 129.653 57.683C121.434 50.0739 111.171 47.851 102.074 51.7648C92.8059 55.1977 86.8664 63.9007 86.1724 75.1022C86.1503 75.4773 86.1635 75.9675 86.1638 76.506C86.19 80.3091 86.2209 86.06 81.9052 89.1895C76.988 92.7537 70.4225 90.5363 65.6158 88.9178C64.9082 88.6842 64.2804 88.4617 63.7715 88.3208C52.916 85.2905 42.5409 88.165 36.0253 96.0215C29.905 103.386 28.694 113.243 32.8637 121.742C34.7152 125.503 41.394 134.591 65.3678 153.103C75.4311 160.879 85.0444 167.585 89.7628 170.811L104.021 165.099L86.0954 136.192C84.0566 132.905 85.0737 128.587 88.352 126.552C91.6489 124.509 95.9576 125.53 97.9927 128.808L117.208 159.805L136.767 151.97L122.189 115.366C120.754 111.783 122.504 107.709 126.088 106.274L126.097 106.27C129.689 104.831 133.757 106.595 135.192 110.178L149.759 146.754L168.065 139.42L159.968 103.506C159.114 99.7329 161.479 95.9843 165.256 95.1392C169.029 94.2848 172.768 96.6542 173.622 100.427L181.224 134.138L193.153 129.359C194.338 123.767 196.653 112.283 198.574 99.7062C203.135 69.7623 201.692 58.5768 200.435 54.5775L200.422 54.6258Z" fill="#9EA5D3"/>
<path d="M215.151 152.056L206.56 133.651C209.383 120.692 219.829 69.646 213.765 50.4223C209.229 36.0594 197.053 26.0495 181.981 24.299C166.198 22.4672 151.612 30.0773 142.947 44.6442C142.536 45.337 142.114 46.1413 141.667 46.9883C141.406 47.4917 141.029 48.192 140.628 48.9127C140.121 48.3726 139.638 47.8659 139.146 47.4168C127.025 36.1998 111.534 32.9473 97.5249 38.5275L96.1789 39.0667C96.1789 39.0667 96.1789 39.0667 96.1696 39.0704C82.1675 44.723 73.2276 57.7414 72.2021 74.2465C72.1653 74.9076 72.1657 75.6077 72.168 76.3393C71.3805 76.0946 70.6208 75.8388 70.0878 75.6645C69.1796 75.3604 68.3197 75.0693 67.5433 74.8525C51.2183 70.2968 35.4162 74.8715 25.2596 87.0845C15.5466 98.7644 13.6497 114.412 20.2844 127.935C28.7817 145.246 68.2978 173.163 81.3458 182.069L88.5061 202.847C89.1329 204.653 90.4688 206.132 92.2111 206.932C93.9533 207.731 95.9422 207.775 97.7244 207.061L211.411 161.516C213.193 160.802 214.607 159.384 215.321 157.59C216.026 155.8 215.967 153.798 215.151 152.056ZM99.3409 191.332L96.5325 183.192L116.918 175.025C116.918 175.025 116.918 175.025 116.927 175.022C116.936 175.018 116.927 175.022 116.936 175.018L195.682 143.471L199.326 151.276L99.3409 191.332ZM193.14 129.408L181.211 134.186L173.61 100.476C172.755 96.7028 169.016 94.3335 165.243 95.1878C161.466 96.0329 159.101 99.7815 159.955 103.554L168.052 139.469L149.746 146.803L135.179 110.227C133.74 106.634 129.676 104.88 126.084 106.319L126.075 106.323C122.491 107.758 120.746 111.818 122.176 115.414L136.754 152.018L117.195 159.854L97.9798 128.857C95.941 125.569 91.636 124.558 88.3391 126.6C85.0516 128.639 84.0437 132.953 86.0825 136.241L104.008 165.148L89.7499 170.86C85.0315 167.633 75.4275 160.924 65.355 153.152C41.3811 134.64 34.7023 125.552 32.8508 121.791C28.6811 113.292 29.8922 103.434 36.0125 96.0702C42.5317 88.2229 52.9031 85.3391 63.7587 88.3694C64.2675 88.5103 64.8916 88.7235 65.6029 88.9664C70.4096 90.5849 76.9751 92.8023 81.8923 89.2381C86.2173 86.105 86.1771 80.3577 86.1509 76.5547C86.1469 76.0069 86.1337 75.5166 86.1595 75.1508C86.8536 63.9493 92.793 55.2463 102.061 51.8134C111.158 47.8997 121.417 50.1132 129.64 57.7317C129.915 57.9878 130.244 58.3516 130.619 58.7506C133.226 61.5198 137.17 65.6921 142.457 64.9855C148.466 64.1727 151.693 58.0318 154.053 53.5423C154.404 52.8848 154.704 52.2904 154.975 51.8372C160.736 42.1501 170.226 37.0662 180.363 38.2511C189.875 39.3528 197.557 45.6475 200.409 54.6745C201.666 58.6737 203.109 69.8592 198.548 99.8031C196.637 112.376 194.312 123.864 193.127 129.456L193.14 129.408Z" fill="#D90718"/>
</g>
<defs>
<clipPath id="clip0_841_7631">
<rect width="208.66" height="156.52" fill="white" transform="translate(0 77.5977) rotate(-21.832)"/>
</clipPath>
</defs>
</svg>
